<svg  viewBox="0 0 54 54" fill="none" xmlns="http://www.w3.org/2000/svg">
<g clip-path="url(#clip0_331_8057)">
<rect width="53" height="53" transform="translate(0.232422 0.362305)" fill="#3D70FF"/>
<path d="M13.5184 40.717L47.1224 51.6356C51.7622 53.1431 56.7455 50.604 58.2531 45.9642L69.1717 12.3602C70.6792 7.72049 68.1401 2.73713 63.5003 1.22959L29.8963 -9.68901C25.2566 -11.1966 20.2732 -8.65741 18.7657 -4.01767L7.84709 29.5863C6.33955 34.2261 8.8787 39.2094 13.5184 40.717Z" fill="#BDF0E4"/>
<path d="M28.4512 27.4624C31.5719 28.5105 34.4876 28.1007 37.1985 26.233" stroke="#1A1E23" stroke-width="2.22222" stroke-linecap="round"/>
<path d="M23.9874 22.1432C23.8743 21.3381 23.293 20.7541 22.6891 20.839C22.0852 20.9239 21.6874 21.6454 21.8006 22.4506C21.9138 23.2557 22.495 23.8397 23.0989 23.7548C23.7028 23.6699 24.1006 22.9484 23.9874 22.1432Z" fill="#1A1E23"/>
<path d="M41.4816 19.6847C41.3684 18.8796 40.7871 18.2956 40.1833 18.3805C39.5794 18.4654 39.1816 19.1869 39.2947 19.9921C39.4079 20.7972 39.9892 21.3812 40.5931 21.2963C41.1969 21.2114 41.5947 20.4899 41.4816 19.6847Z" fill="#1A1E23"/>
</g>
<defs>
<clipPath id="clip0_331_8057">
<rect width="53" height="53" fill="white" transform="translate(0.232422 0.362305)"/>
</clipPath>
</defs>
</svg>
