<svg width="182" height="74" viewBox="0 0 182 74" fill="none" xmlns="http://www.w3.org/2000/svg">
<path d="M43.3044 45.7739L36.7865 48.6104V48.3388C35.489 48.6708 34.1613 48.8518 32.8034 48.9122C26.6778 48.8518 21.8195 45.6532 21.7592 41.8511V40.4329C23.7508 43.3599 27.8848 45.3213 32.8034 45.2308C34.4328 45.2911 36.0321 45.0799 37.6012 44.6574L38.1746 43.2392C36.4244 43.7824 34.6139 44.0841 32.8034 44.0841C26.6778 44.1143 21.8195 40.9157 21.7592 37.0231V35.8764C23.7508 38.5922 27.8546 40.5234 32.8034 40.4329C34.9458 40.5536 37.0883 40.1613 39.0195 39.2862L39.2911 37.868C37.2693 38.8638 35.0363 39.3768 32.7732 39.2862C26.6476 39.3768 21.7894 36.1782 21.729 32.2252V31.0785C23.7206 33.8547 27.8546 35.7859 32.7732 35.8764C35.4286 35.7859 38.0539 35.122 40.4377 33.915L40.7093 32.2252C38.7479 33.6736 35.8511 34.6392 32.8034 34.7599C26.6476 34.609 21.7894 31.4105 21.729 27.3971C21.7894 23.5951 26.6476 20.3663 32.7732 20.3361C36.4244 20.3965 39.804 21.694 41.8258 23.7459L42.037 24.0477H43.4553L43.244 23.7158C41.2223 21 37.209 19.1895 32.743 19.1895C25.9837 19.1895 20.5522 22.9312 20.5522 27.3971V42.1227C20.7936 46.4981 26.0743 50.0588 32.743 50.0588C37.209 50.0286 41.1619 48.2785 43.3044 45.7739Z" fill="#21252D"/>
<path d="M40.649 55.7621L42.9423 46.0457L36.3641 48.9123L40.3774 32.0443H32.6525L34.6441 23.7461H59.237L57.2454 32.0443H49.249L47.529 36.631L56.4005 32.9194L40.649 55.7621ZM44.6623 44.0239L43.5157 49.7271L52.9605 35.4239L45.2356 38.8639L48.6756 30.8675H56.4005L57.8188 24.8626H35.5192L34.1009 30.8675H41.8258L38.1143 46.8604L44.6623 44.0239Z" fill="#21252D"/>
<path d="M74.5058 29.2982C74.5058 29.7206 74.3851 30.1129 74.2342 30.475C74.0531 30.8371 73.8117 31.169 73.51 31.4406C72.8159 31.9838 71.971 32.2855 71.0959 32.2252C70.6131 32.2554 70.1303 32.1648 69.6777 31.9838C69.2251 31.8027 68.8328 31.501 68.5009 31.1389C67.8672 30.4147 67.5654 29.3887 67.5654 28.0912V27.5782C67.5353 26.8238 67.6861 26.0996 67.9879 25.4055C68.2595 24.802 68.6819 24.3192 69.2251 23.9571C69.8889 23.595 70.6433 23.414 71.3977 23.4743C72.1521 23.5347 72.8763 23.8063 73.4798 24.2589C74.1135 24.8322 74.4756 25.647 74.5359 26.4919H72.7858C72.7858 26.0392 72.6349 25.6168 72.3331 25.2848C72.0012 25.0133 71.5486 24.8926 71.1261 24.9227C70.8847 24.8926 70.6131 24.9529 70.3717 25.0736C70.1303 25.1943 69.9493 25.3452 69.7984 25.5564C69.4967 25.9789 69.3458 26.6427 69.3458 27.5178V28.1515C69.3458 29.0869 69.4967 29.7508 69.7682 30.1733C69.9191 30.3845 70.1002 30.5655 70.3416 30.6561C70.583 30.7768 70.8244 30.8069 71.0959 30.8069C71.5486 30.8371 71.971 30.7164 72.303 30.4448C72.6047 30.1431 72.7556 29.7206 72.7556 29.2982H74.5058Z" fill="#21252D"/>
<path d="M82.6832 28.0613C82.7134 28.8156 82.5625 29.57 82.2306 30.2641C81.959 30.8676 81.5064 31.3805 80.9632 31.7427C80.3899 32.0746 79.7261 32.2556 79.0622 32.2556C78.3983 32.2556 77.7345 32.0746 77.1612 31.7427C76.5878 31.3805 76.1352 30.8977 75.8636 30.2942C75.5619 29.6002 75.3808 28.876 75.411 28.1216V27.6992C75.3808 26.9448 75.5619 26.1904 75.8636 25.4662C76.1352 24.8627 76.5878 24.3497 77.1612 23.9876C77.7345 23.6557 78.3983 23.4746 79.0622 23.4746C79.7261 23.4746 80.3899 23.6557 80.9632 23.9876C81.5366 24.3497 81.959 24.8627 82.2608 25.4662C82.5625 26.1602 82.7436 26.9146 82.7134 27.669V28.0613H82.6832ZM80.9029 27.669C80.9029 26.7637 80.752 26.0999 80.4201 25.6171C80.2692 25.4058 80.058 25.2248 79.8166 25.1041C79.5752 24.9834 79.3036 24.923 79.0622 24.923C78.7906 24.923 78.519 24.9834 78.3078 25.1041C78.0664 25.2248 77.8552 25.4058 77.7043 25.6171C77.3724 26.0697 77.2215 26.7637 77.2215 27.6388V28.0613C77.1913 28.7553 77.3422 29.4795 77.7043 30.083C77.8552 30.2942 78.0664 30.4753 78.3078 30.596C78.5492 30.7167 78.8208 30.777 79.0924 30.777C79.364 30.777 79.6355 30.7167 79.8769 30.596C80.1183 30.4753 80.3296 30.2942 80.4804 30.083C80.7822 29.6304 80.9632 28.9363 80.9632 28.0613V27.669H80.9029Z" fill="#21252D"/>
<path d="M85.8215 32.105H84.0714V23.5654H85.8215V32.105Z" fill="#21252D"/>
<path d="M94.3913 32.105H92.6411L89.2313 26.4924V32.105H87.4811V23.5654H89.2313L92.6713 29.178V23.5654H94.4215V32.105H94.3913Z" fill="#21252D"/>
<path d="M102.177 25.0135H99.5513V32.1348H97.8313V25.0135H95.2664V23.5952H102.207V25.0135H102.177Z" fill="#21252D"/>
<path d="M108.332 28.4233H104.953V30.7166H108.906V32.1348H103.172V23.5952H108.875V25.0135H104.922V27.0352H108.302V28.4233H108.332Z" fill="#21252D"/>
<path d="M111.712 30.6868H115.454V32.105H109.962V23.5654H111.712V30.6868Z" fill="#21252D"/>
<path d="M121.579 28.4233H118.2V30.7166H122.153V32.1348H116.419V23.5952H122.122V25.0135H118.169V27.0352H121.549V28.4233H121.579Z" fill="#21252D"/>
<path d="M129.968 31.0485C129.606 31.4709 129.153 31.7727 128.64 31.9235C128.037 32.1348 127.373 32.2555 126.709 32.2253C126.015 32.2555 125.351 32.0744 124.778 31.7425C124.204 31.4106 123.752 30.9278 123.48 30.3242C123.148 29.6604 122.997 28.906 123.028 28.1516V27.5783C122.997 26.8239 123.148 26.0695 123.45 25.3755C123.722 24.772 124.144 24.2892 124.687 23.9572C125.261 23.6253 125.924 23.4443 126.588 23.4744C127.614 23.4744 128.399 23.7158 128.972 24.1987C129.576 24.7418 129.938 25.4962 129.998 26.3109H128.278C128.248 25.8885 128.067 25.5264 127.765 25.2246C127.463 24.9832 127.071 24.8625 126.649 24.8927C126.377 24.8927 126.106 24.9229 125.864 25.0436C125.623 25.1643 125.412 25.3453 125.261 25.5565C124.959 26.0092 124.778 26.673 124.778 27.5481V28.0913C124.778 28.9965 124.959 29.6604 125.291 30.113C125.472 30.3544 125.683 30.5355 125.955 30.6562C126.226 30.7769 126.498 30.8372 126.8 30.8071C127.463 30.8071 127.916 30.6562 128.218 30.3846V28.906H126.619V27.6085H129.968V31.0485Z" fill="#21252D"/>
<path d="M134.525 28.9966H133.137V32.1348H131.386V23.5952H134.555C135.551 23.5952 136.335 23.8064 136.878 24.2591C137.15 24.5005 137.361 24.7721 137.512 25.104C137.663 25.4359 137.723 25.798 137.693 26.1601C137.723 26.6731 137.572 27.1861 137.301 27.6085C137.029 28.031 136.607 28.3327 136.154 28.544L137.995 32.0443V32.1348H136.094L134.525 28.9966ZM133.137 27.5482H134.555C134.917 27.5784 135.309 27.4577 135.581 27.2163C135.701 27.0956 135.792 26.9447 135.852 26.7938C135.913 26.6429 135.943 26.4619 135.943 26.2808C135.943 26.0998 135.913 25.9489 135.882 25.7678C135.822 25.617 135.732 25.4661 135.611 25.3152C135.46 25.1945 135.309 25.104 135.128 25.0436C134.947 24.9833 134.766 24.9531 134.555 24.9833H133.137V27.5482Z" fill="#21252D"/>
<path d="M143.849 30.3549H140.771L140.197 32.105H138.327L141.495 23.5654H143.124L146.323 32.105H144.452L143.849 30.3549ZM141.254 28.9366H143.396L142.31 25.7381L141.254 28.9366Z" fill="#21252D"/>
<path d="M148.888 29.1173V32.1348H147.138V23.5952H150.457C151.03 23.5952 151.604 23.7159 152.147 23.9573C152.6 24.1685 152.992 24.5307 153.263 24.9531C153.535 25.4057 153.656 25.9187 153.656 26.4317C153.686 26.7938 153.595 27.1861 153.444 27.518C153.294 27.8499 153.082 28.1517 152.781 28.3931C152.207 28.8759 151.423 29.1173 150.397 29.1173H148.888ZM148.888 27.6689H150.457C150.849 27.6991 151.211 27.5784 151.513 27.337C151.634 27.2163 151.724 27.0654 151.815 26.9145C151.875 26.7636 151.906 26.5826 151.906 26.4015C151.906 26.2205 151.875 26.0394 151.815 25.8584C151.755 25.6773 151.664 25.5264 151.543 25.3756C151.423 25.2549 151.242 25.1342 151.061 25.0738C150.88 25.0135 150.699 24.9833 150.517 24.9833H148.918V27.6689H148.888Z" fill="#21252D"/>
<path d="M161.803 32.105H160.053V28.4538H156.613V32.105H154.863V23.5654H156.613V27.0356H160.053V23.5654H161.803V32.105Z" fill="#21252D"/>
<path d="M73.0574 41.2481H70.8848V47.1625H69.4062V41.2481H67.2637V40.0713H73.0574V41.2481Z" fill="#21252D"/>
<path d="M75.1696 42.4546C75.3506 42.2434 75.5619 42.0624 75.8033 41.9417C76.0447 41.821 76.3162 41.7606 76.5878 41.7606C77.7345 41.7606 78.3078 42.4245 78.338 43.7522V47.1318H76.9198V43.7824C76.9499 43.541 76.8594 43.2996 76.7387 43.1185C76.6482 43.028 76.5577 42.9676 76.437 42.9375C76.3162 42.9073 76.1955 42.8771 76.0748 42.9073C75.8938 42.9073 75.7127 42.9375 75.5619 43.028C75.411 43.1185 75.2601 43.2392 75.1696 43.3901V47.1318H73.7513V39.6182H75.1696V42.4546Z" fill="#21252D"/>
<path d="M81.8081 47.2829C81.446 47.2829 81.1141 47.2527 80.7822 47.132C80.4502 47.0113 80.1485 46.8303 79.9071 46.5889C79.6657 46.3475 79.4545 46.0457 79.3338 45.7138C79.2131 45.3819 79.1527 45.0499 79.1527 44.6878V44.5369C79.1527 44.0541 79.2432 43.5713 79.4545 43.1187C79.6355 42.7264 79.9373 42.3945 80.3295 42.1531C80.7218 41.9117 81.1745 41.791 81.6271 41.8212C81.959 41.791 82.2608 41.8513 82.5625 41.972C82.8643 42.0927 83.1359 42.2738 83.3471 42.5152C83.7695 42.9678 83.9808 43.6317 83.9808 44.4464V45.0197H80.6313C80.6615 45.3517 80.8124 45.6233 81.0538 45.8647C81.2952 46.0759 81.5969 46.1966 81.9288 46.1664C82.1702 46.1664 82.4116 46.1362 82.6531 46.0155C82.8643 45.925 83.0755 45.744 83.2264 45.5629L83.9204 46.3475C83.7092 46.6492 83.4074 46.8906 83.0755 47.0415C82.653 47.1924 82.2306 47.2829 81.8081 47.2829ZM81.6573 42.9377C81.5366 42.9377 81.4159 42.9678 81.2952 42.998C81.1745 43.0584 81.0839 43.1187 80.9934 43.2092C80.8124 43.4506 80.6917 43.7222 80.6615 44.024H82.6229V43.9033C82.6229 43.6317 82.5323 43.3903 82.3815 43.1791C82.2909 43.0885 82.1702 43.0282 82.0495 42.9678C81.8987 42.9377 81.778 42.9377 81.6573 42.9377Z" fill="#21252D"/>
<path d="M87.6622 47.1621V42.9074H86.8777V41.8814H87.6622V41.4288C87.6321 41.1874 87.6924 40.9158 87.7829 40.6744C87.8735 40.433 87.9942 40.2218 88.1752 40.0407C88.5675 39.7088 89.0805 39.5278 89.5935 39.5579C89.8349 39.5579 90.0763 39.5881 90.3177 39.6485V40.7348C90.1668 40.7046 90.0461 40.6744 89.8952 40.7046C89.3521 40.7046 89.1107 40.946 89.1107 41.459V41.8814H90.1668V42.9074H89.0805V47.1621H87.6622Z" fill="#21252D"/>
<path d="M94.0292 46.6492C93.8482 46.8604 93.637 47.0414 93.3956 47.132C93.1542 47.2527 92.8826 47.2828 92.611 47.2828C92.3696 47.313 92.1282 47.2527 91.917 47.1923C91.7057 47.1018 91.4945 46.9811 91.3135 46.8C90.9815 46.4078 90.8307 45.8948 90.8608 45.3818V41.9116H92.2791V45.3214C92.2791 45.8646 92.5205 46.1362 93.0335 46.1362C93.2145 46.1663 93.4257 46.106 93.6068 46.0456C93.7878 45.9551 93.9387 45.8344 94.0292 45.6534V41.9116H95.4475V47.1923H94.1198L94.0292 46.6492Z" fill="#21252D"/>
<path d="M98.1632 40.584V41.8815H99.0685V42.9075H98.1632V45.5327C98.1632 45.6836 98.1934 45.8345 98.2839 45.9552C98.3443 46.0155 98.4046 46.0457 98.4951 46.0759C98.5555 46.1061 98.646 46.1061 98.7365 46.1061C98.8874 46.1061 99.0081 46.1061 99.159 46.0759V47.132C98.8874 47.2226 98.5857 47.2527 98.3141 47.2527C97.3183 47.2527 96.8053 46.7398 96.8053 45.744V42.9075H96.0208V41.8815H96.8053V40.584H98.1632Z" fill="#21252D"/>
<path d="M103.021 46.6492C102.84 46.8604 102.629 47.0414 102.388 47.132C102.146 47.2527 101.875 47.2828 101.603 47.2828C101.362 47.313 101.12 47.2527 100.909 47.1923C100.698 47.1018 100.487 46.9811 100.306 46.8C99.9737 46.4078 99.8228 45.8948 99.853 45.3818V41.9116H101.271V45.3214C101.271 45.8646 101.513 46.1362 102.026 46.1362C102.207 46.1663 102.418 46.106 102.599 46.0456C102.78 45.9551 102.931 45.8344 103.021 45.6534V41.9116H104.44V47.1923H103.112L103.021 46.6492Z" fill="#21252D"/>
<path d="M108.423 43.2089C108.242 43.1787 108.091 43.1787 107.91 43.1787C107.367 43.1787 107.035 43.3597 106.854 43.7218V47.192H105.435V41.9113H106.763L106.793 42.545C106.914 42.3338 107.065 42.1527 107.276 42.0018C107.487 41.8811 107.729 41.7906 107.97 41.8208C108.121 41.8208 108.272 41.851 108.423 41.8811V43.2089Z" fill="#21252D"/>
<path d="M111.44 47.2829C111.078 47.2829 110.746 47.2527 110.414 47.132C110.082 47.0113 109.781 46.8303 109.539 46.5889C109.298 46.3475 109.087 46.0457 108.966 45.7138C108.845 45.3819 108.785 45.0499 108.785 44.6878V44.5369C108.785 44.0541 108.875 43.5713 109.087 43.1187C109.268 42.7264 109.569 42.3945 109.962 42.1531C110.354 41.9117 110.807 41.791 111.259 41.8212C111.591 41.791 111.893 41.8513 112.195 41.972C112.496 42.0927 112.768 42.2738 112.979 42.5152C113.402 42.9678 113.613 43.6317 113.613 44.4464V45.0197H110.233C110.264 45.3517 110.414 45.6233 110.656 45.8647C110.897 46.0759 111.199 46.1966 111.531 46.1664C111.772 46.1664 112.014 46.1362 112.255 46.0155C112.466 45.925 112.678 45.744 112.828 45.5629L113.522 46.3475C113.311 46.6492 113.009 46.8906 112.678 47.0415C112.255 47.1924 111.863 47.2829 111.44 47.2829ZM111.259 42.9377C111.139 42.9377 111.018 42.9678 110.897 42.998C110.776 43.0584 110.686 43.1187 110.595 43.2092C110.414 43.4506 110.294 43.7222 110.264 44.024H112.225V43.9033C112.225 43.6317 112.134 43.3903 111.984 43.1791C111.893 43.0885 111.772 43.0282 111.652 42.9678C111.531 42.9377 111.41 42.9377 111.259 42.9377Z" fill="#21252D"/>
<path d="M116.691 44.4766C116.691 43.9938 116.781 43.511 116.993 43.0886C117.174 42.6963 117.475 42.3643 117.868 42.1229C118.26 41.8815 118.713 41.791 119.195 41.791C119.527 41.791 119.829 41.8212 120.131 41.9419C120.433 42.0626 120.704 42.2135 120.946 42.4549C121.428 42.9377 121.67 43.5714 121.7 44.2352V44.5973C121.73 45.3215 121.489 46.0156 121.036 46.5587C120.553 47.0415 119.89 47.2829 119.226 47.2829C118.532 47.2829 117.898 47.0114 117.415 46.5587C116.932 46.0156 116.691 45.2914 116.721 44.5671V44.4766H116.691ZM118.079 44.5973C118.049 44.9896 118.139 45.4121 118.351 45.744C118.441 45.8647 118.562 45.9552 118.713 46.0457C118.864 46.1061 119.014 46.1363 119.165 46.1664C119.316 46.1664 119.467 46.1363 119.618 46.0759C119.769 46.0156 119.89 45.8949 119.98 45.7742C120.191 45.3819 120.312 44.9594 120.282 44.5068C120.312 44.1145 120.191 43.6921 119.98 43.3601C119.89 43.2394 119.769 43.1187 119.618 43.0584C119.467 42.998 119.316 42.9679 119.165 42.9679C119.014 42.9679 118.864 42.998 118.713 43.0584C118.562 43.1187 118.441 43.2394 118.351 43.3601C118.17 43.7222 118.049 44.1447 118.079 44.5973Z" fill="#21252D"/>
<path d="M122.937 47.1621V42.9074H122.153V41.8814H122.937V41.4288C122.907 41.1874 122.967 40.9158 123.058 40.6744C123.148 40.433 123.269 40.2218 123.45 40.0407C123.842 39.7088 124.355 39.5278 124.868 39.5579C125.11 39.5579 125.351 39.5881 125.593 39.6485V40.7348C125.442 40.7046 125.321 40.6744 125.17 40.7046C124.627 40.7046 124.386 40.946 124.386 41.459V41.8814H125.442V42.9074H124.386V47.1621H122.937Z" fill="#21252D"/>
<path d="M129.968 41.8815L129.998 42.485C130.179 42.2738 130.421 42.0927 130.662 41.972C130.934 41.8513 131.205 41.791 131.507 41.8212C131.809 41.791 132.08 41.8513 132.322 42.0022C132.563 42.1531 132.774 42.3643 132.895 42.6359C133.076 42.3643 133.317 42.1531 133.589 42.0324C133.861 41.8815 134.162 41.8212 134.494 41.8513C134.736 41.8212 134.977 41.8815 135.188 41.9419C135.4 42.0324 135.611 42.1531 135.762 42.3341C136.063 42.7868 136.214 43.2998 136.184 43.8429V47.2226H134.766V43.8429C134.796 43.6015 134.736 43.3903 134.585 43.1791C134.494 43.0885 134.404 43.0282 134.283 42.998C134.162 42.9678 134.072 42.9377 133.951 42.9678C133.77 42.9678 133.559 42.998 133.408 43.1187C133.257 43.2394 133.136 43.3903 133.076 43.5713V47.1924H131.658V43.8127C131.688 43.5713 131.628 43.3299 131.477 43.1489C131.386 43.0584 131.296 43.0282 131.205 42.9678C131.085 42.9377 130.994 42.9075 130.873 42.9377C130.692 42.9377 130.511 42.9678 130.36 43.0584C130.209 43.1489 130.089 43.2696 129.998 43.4506V47.1924H128.58V41.9117H129.968V41.8815Z" fill="#21252D"/>
<path d="M137.059 44.4766C137.059 43.9938 137.15 43.511 137.361 43.0886C137.542 42.6963 137.844 42.3643 138.236 42.1229C138.628 41.8815 139.081 41.791 139.564 41.791C139.896 41.791 140.197 41.8212 140.499 41.9419C140.801 42.0626 141.073 42.2135 141.314 42.4549C141.797 42.9377 142.038 43.5714 142.068 44.2352V44.5973C142.098 45.3215 141.857 46.0156 141.404 46.5587C140.922 47.0415 140.258 47.2829 139.594 47.2829C138.93 47.2829 138.266 47.0114 137.783 46.5587C137.301 46.0156 137.059 45.2914 137.089 44.5671V44.4766H137.059ZM138.477 44.5973C138.447 44.9896 138.538 45.4121 138.749 45.744C138.84 45.8647 138.96 45.9552 139.111 46.0457C139.262 46.1061 139.413 46.1363 139.564 46.1664C139.715 46.1966 139.866 46.1363 140.016 46.0759C140.167 46.0156 140.288 45.8949 140.378 45.7742C140.59 45.3819 140.71 44.9594 140.68 44.5068C140.71 44.1145 140.59 43.6921 140.378 43.3601C140.288 43.2394 140.167 43.1187 140.016 43.0584C139.866 42.998 139.715 42.9679 139.564 42.9679C139.413 42.9679 139.262 42.998 139.111 43.0584C138.96 43.1187 138.84 43.2394 138.749 43.3601C138.538 43.7222 138.447 44.1447 138.477 44.5973Z" fill="#21252D"/>
<path d="M144.241 41.8812L144.271 42.4847C144.452 42.2433 144.694 42.0622 144.935 41.9415C145.207 41.8208 145.478 41.7605 145.78 41.7605C146.021 41.7303 146.233 41.7906 146.474 41.851C146.685 41.9415 146.896 42.0622 147.047 42.2433C147.349 42.6657 147.5 43.1787 147.47 43.7219V47.1317H146.052V43.752C146.082 43.5106 145.991 43.2692 145.87 43.0882C145.78 43.0278 145.689 42.9675 145.569 42.9071C145.448 42.877 145.327 42.8468 145.237 42.877C145.056 42.877 144.875 42.9071 144.724 42.9977C144.573 43.0882 144.422 43.2089 144.362 43.3899V47.1317H142.943V41.851H144.241V41.8812Z" fill="#21252D"/>
<path d="M151 47.2829C150.638 47.2829 150.306 47.2527 149.974 47.132C149.642 47.0113 149.341 46.8303 149.099 46.5889C148.858 46.3475 148.647 46.0457 148.526 45.7138C148.405 45.3819 148.345 45.0499 148.345 44.6878V44.5369C148.345 44.0541 148.435 43.5713 148.647 43.1187C148.828 42.7264 149.129 42.3945 149.522 42.1531C149.914 41.9117 150.367 41.791 150.819 41.8212C151.151 41.791 151.453 41.8513 151.755 41.972C152.056 42.0927 152.328 42.2738 152.539 42.5152C152.962 42.9678 153.173 43.6317 153.173 44.4464V45.0197H149.793C149.823 45.3517 149.974 45.6233 150.216 45.8647C150.457 46.0759 150.759 46.1966 151.091 46.1664C151.332 46.1664 151.574 46.1362 151.815 46.0155C152.026 45.925 152.237 45.744 152.388 45.5629L153.082 46.3475C152.871 46.6492 152.569 46.8906 152.237 47.0415C151.815 47.1924 151.393 47.2829 151 47.2829ZM150.819 42.9377C150.699 42.9377 150.578 42.9678 150.457 42.998C150.336 43.0584 150.246 43.1187 150.155 43.2092C149.974 43.4506 149.854 43.7222 149.823 44.024H151.785V43.9033C151.785 43.6317 151.694 43.3903 151.543 43.1791C151.453 43.0885 151.332 43.0282 151.212 42.9678C151.091 42.9377 150.94 42.9377 150.819 42.9377Z" fill="#21252D"/>
<path d="M155.858 45.1705L156.824 41.8813H158.333L156.221 47.9768L156.1 48.2483C155.979 48.5501 155.768 48.8217 155.496 49.0027C155.225 49.1838 154.893 49.2743 154.561 49.2743C154.35 49.2743 154.138 49.2441 153.927 49.1838V48.1276H154.138C154.35 48.1276 154.561 48.0975 154.742 48.0069C154.893 47.9164 154.983 47.7655 155.044 47.6147L155.225 47.1922L153.384 41.8813H154.893L155.858 45.1705Z" fill="#21252D"/>
</svg>
