<svg width="182" height="74" viewBox="0 0 182 74" fill="none" xmlns="http://www.w3.org/2000/svg">
<path d="M43.3049 45.7739L36.7871 48.6104V48.3388C35.4895 48.6708 34.1618 48.8518 32.8039 48.9122C26.6783 48.8518 21.8201 45.6532 21.7597 41.8511V40.4329C23.7513 43.3599 27.8853 45.3213 32.8039 45.2308C34.4334 45.2911 36.0327 45.0799 37.6018 44.6574L38.1751 43.2392C36.425 43.7824 34.6144 44.0841 32.8039 44.0841C26.6783 44.1143 21.8201 40.9157 21.7597 37.0231V35.8764C23.7513 38.5922 27.8552 40.5234 32.8039 40.4329C34.9464 40.5536 37.0888 40.1613 39.02 39.2862L39.2916 37.868C37.2699 38.8638 35.0369 39.3768 32.7737 39.2862C26.6482 39.3768 21.7899 36.1782 21.7296 32.2252V31.0785C23.7211 33.8547 27.8552 35.7859 32.7737 35.8764C35.4292 35.7859 38.0544 35.122 40.4383 33.915L40.7099 32.2252C38.7485 33.6736 35.8516 34.6392 32.8039 34.7599C26.6482 34.609 21.7899 31.4105 21.7296 27.3971C21.7899 23.5951 26.6482 20.3663 32.7737 20.3361C36.425 20.3965 39.8046 21.694 41.8263 23.7459L42.0376 24.0477H43.4558L43.2446 23.7158C41.2228 21 37.2095 19.1895 32.7436 19.1895C25.9843 19.1895 20.5527 22.9312 20.5527 27.3971V42.1227C20.7941 46.4981 26.0748 50.0588 32.7436 50.0588C37.2095 50.0286 41.1625 48.2785 43.3049 45.7739Z" fill="white"/>
<path d="M40.6498 55.7616L42.9431 46.0452L36.3649 48.9118L40.3782 32.0438H32.6533L34.6449 23.7456H59.2378L57.2462 32.0438H49.2498L47.5298 36.6305L56.4013 32.9189L40.6498 55.7616ZM44.6631 44.0234L43.5164 49.7266L52.9613 35.4235L45.2364 38.8635L48.6764 30.867H56.4013L57.8196 24.8621H35.52L34.1017 30.867H41.8266L38.1151 46.8599L44.6631 44.0234Z" fill="white"/>
<path d="M74.5056 29.2979C74.5056 29.7204 74.3849 30.1127 74.2341 30.4748C74.053 30.8369 73.8116 31.1688 73.5099 31.4404C72.8158 31.9835 71.9709 32.2853 71.0958 32.2249C70.613 32.2551 70.1302 32.1646 69.6776 31.9835C69.225 31.8025 68.8327 31.5007 68.5008 31.1386C67.8671 30.4144 67.5653 29.3885 67.5653 28.0909V27.5779C67.5351 26.8235 67.686 26.0993 67.9878 25.4053C68.2593 24.8018 68.6818 24.319 69.225 23.9569C69.8888 23.5948 70.6432 23.4137 71.3976 23.4741C72.152 23.5344 72.8762 23.806 73.4797 24.2586C74.1134 24.832 74.4755 25.6467 74.5358 26.4916H72.7856C72.7856 26.039 72.6348 25.6165 72.333 25.2846C72.0011 25.013 71.5485 24.8923 71.126 24.9225C70.8846 24.8923 70.613 24.9527 70.3716 25.0734C70.1302 25.1941 69.9492 25.345 69.7983 25.5562C69.4965 25.9786 69.3457 26.6425 69.3457 27.5176V28.1513C69.3457 29.0867 69.4965 29.7506 69.7681 30.173C69.919 30.3842 70.1 30.5653 70.3414 30.6558C70.5828 30.7765 70.8242 30.8067 71.0958 30.8067C71.5485 30.8369 71.9709 30.7162 72.3028 30.4446C72.6046 30.1428 72.7555 29.7204 72.7555 29.2979H74.5056Z" fill="white"/>
<path d="M82.6837 28.061C82.7139 28.8154 82.563 29.5698 82.2311 30.2638C81.9595 30.8673 81.5069 31.3803 80.9637 31.7424C80.3904 32.0743 79.7265 32.2554 79.0627 32.2554C78.3988 32.2554 77.735 32.0743 77.1616 31.7424C76.5883 31.3803 76.1357 30.8975 75.8641 30.294C75.5623 29.6 75.3813 28.8757 75.4115 28.1214V27.6989C75.3813 26.9445 75.5623 26.1901 75.8641 25.4659C76.1357 24.8624 76.5883 24.3494 77.1616 23.9873C77.735 23.6554 78.3988 23.4744 79.0627 23.4744C79.7265 23.4744 80.3904 23.6554 80.9637 23.9873C81.5371 24.3494 81.9595 24.8624 82.2613 25.4659C82.563 26.16 82.7441 26.9144 82.7139 27.6687V28.061H82.6837ZM80.9034 27.6687C80.9034 26.7635 80.7525 26.0996 80.4206 25.6168C80.2697 25.4056 80.0585 25.2245 79.8171 25.1038C79.5757 24.9831 79.3041 24.9228 79.0627 24.9228C78.7911 24.9228 78.5195 24.9831 78.3083 25.1038C78.0669 25.2245 77.8557 25.4056 77.7048 25.6168C77.3729 26.0694 77.222 26.7635 77.222 27.6386V28.061C77.1918 28.755 77.3427 29.4793 77.7048 30.0828C77.8557 30.294 78.0669 30.475 78.3083 30.5957C78.5497 30.7164 78.8213 30.7768 79.0929 30.7768C79.3644 30.7768 79.636 30.7164 79.8774 30.5957C80.1188 30.475 80.3301 30.294 80.4809 30.0828C80.7827 29.6301 80.9637 28.9361 80.9637 28.061V27.6687H80.9034Z" fill="white"/>
<path d="M85.8215 32.1046H84.0713V23.5649H85.8215V32.1046Z" fill="white"/>
<path d="M94.3916 32.1046H92.6414L89.2316 26.4919V32.1046H87.4814V23.5649H89.2316L92.6716 29.1776V23.5649H94.4218V32.1046H94.3916Z" fill="white"/>
<path d="M102.177 25.0135H99.5515V32.1348H97.8315V25.0135H95.2666V23.5952H102.207V25.0135H102.177Z" fill="white"/>
<path d="M108.333 28.4233H104.953V30.7166H108.906V32.1348H103.173V23.5952H108.876V25.0135H104.923V27.0352H108.303V28.4233H108.333Z" fill="white"/>
<path d="M111.712 30.6863H115.454V32.1046H109.962V23.5649H111.712V30.6863Z" fill="white"/>
<path d="M121.58 28.4233H118.2V30.7166H122.153V32.1348H116.42V23.5952H122.123V25.0135H118.17V27.0352H121.55V28.4233H121.58Z" fill="white"/>
<path d="M129.969 31.0482C129.606 31.4707 129.154 31.7724 128.641 31.9233C128.037 32.1345 127.373 32.2552 126.71 32.2251C126.016 32.2552 125.352 32.0742 124.778 31.7422C124.205 31.4103 123.752 30.9275 123.481 30.324C123.149 29.6601 122.998 28.9058 123.028 28.1514V27.578C122.998 26.8237 123.149 26.0693 123.451 25.3753C123.722 24.7717 124.145 24.2889 124.688 23.957C125.261 23.6251 125.925 23.444 126.589 23.4742C127.615 23.4742 128.399 23.7156 128.973 24.1984C129.576 24.7416 129.938 25.4959 129.999 26.3107H128.279C128.249 25.8882 128.067 25.5261 127.766 25.2244C127.464 24.983 127.072 24.8623 126.649 24.8924C126.378 24.8924 126.106 24.9226 125.865 25.0433C125.623 25.164 125.412 25.3451 125.261 25.5563C124.959 26.0089 124.778 26.6728 124.778 27.5479V28.091C124.778 28.9963 124.959 29.6601 125.291 30.1128C125.472 30.3542 125.684 30.5352 125.955 30.6559C126.227 30.7766 126.498 30.837 126.8 30.8068C127.464 30.8068 127.917 30.6559 128.218 30.3844V28.9058H126.619V27.6082H129.969V31.0482Z" fill="white"/>
<path d="M134.525 28.9966H133.137V32.1348H131.387V23.5952H134.555C135.551 23.5952 136.335 23.8064 136.879 24.2591C137.15 24.5005 137.361 24.7721 137.512 25.104C137.663 25.4359 137.724 25.798 137.693 26.1601C137.724 26.6731 137.573 27.1861 137.301 27.6085C137.03 28.031 136.607 28.3327 136.154 28.544L137.995 32.0443V32.1348H136.094L134.525 28.9966ZM133.137 27.5482H134.555C134.917 27.5784 135.31 27.4577 135.581 27.2163C135.702 27.0956 135.792 26.9447 135.853 26.7938C135.913 26.6429 135.943 26.4619 135.943 26.2808C135.943 26.0998 135.913 25.9489 135.883 25.7678C135.822 25.617 135.732 25.4661 135.611 25.3152C135.46 25.1945 135.31 25.104 135.128 25.0436C134.947 24.9833 134.766 24.9531 134.555 24.9833H133.137V27.5482Z" fill="white"/>
<path d="M143.849 30.3544H140.771L140.198 32.1046H138.327L141.496 23.5649H143.125L146.324 32.1046H144.453L143.849 30.3544ZM141.254 28.9361H143.397L142.31 25.7376L141.254 28.9361Z" fill="white"/>
<path d="M148.888 29.1173V32.1348H147.138V23.5952H150.457C151.03 23.5952 151.604 23.7159 152.147 23.9573C152.599 24.1685 152.992 24.5307 153.263 24.9531C153.535 25.4057 153.656 25.9187 153.656 26.4317C153.686 26.7938 153.595 27.1861 153.444 27.518C153.293 27.8499 153.082 28.1517 152.78 28.3931C152.207 28.8759 151.423 29.1173 150.397 29.1173H148.888ZM148.888 27.6689H150.457C150.849 27.6991 151.211 27.5784 151.513 27.337C151.634 27.2163 151.724 27.0654 151.815 26.9145C151.875 26.7636 151.905 26.5826 151.905 26.4015C151.905 26.2205 151.875 26.0394 151.815 25.8584C151.755 25.6773 151.664 25.5264 151.543 25.3756C151.423 25.2549 151.242 25.1342 151.06 25.0738C150.879 25.0135 150.698 24.9833 150.517 24.9833H148.918V27.6689H148.888Z" fill="white"/>
<path d="M161.804 32.1046H160.053V28.4533H156.613V32.1046H154.863V23.5649H156.613V27.0351H160.053V23.5649H161.804V32.1046Z" fill="white"/>
<path d="M73.0573 41.2476H70.8847V47.162H69.4061V41.2476H67.2637V40.0708H73.0573V41.2476Z" fill="white"/>
<path d="M75.1702 42.4546C75.3512 42.2434 75.5625 42.0624 75.8039 41.9417C76.0453 41.821 76.3169 41.7606 76.5884 41.7606C77.7351 41.7606 78.3084 42.4245 78.3386 43.7522V47.1318H76.9204V43.7824C76.9505 43.541 76.86 43.2996 76.7393 43.1185C76.6488 43.028 76.5583 42.9676 76.4376 42.9375C76.3169 42.9073 76.1962 42.8771 76.0755 42.9073C75.8944 42.9073 75.7134 42.9375 75.5625 43.028C75.4116 43.1185 75.2607 43.2392 75.1702 43.3901V47.1318H73.752V39.6182H75.1702V42.4546Z" fill="white"/>
<path d="M81.8087 47.2827C81.4466 47.2827 81.1147 47.2525 80.7828 47.1318C80.4509 47.0111 80.1491 46.83 79.9077 46.5886C79.6663 46.3472 79.4551 46.0455 79.3344 45.7135C79.2137 45.3816 79.1533 45.0497 79.1533 44.6876V44.5367C79.1533 44.0539 79.2438 43.5711 79.4551 43.1185C79.6361 42.7262 79.9379 42.3943 80.3302 42.1528C80.7224 41.9114 81.1751 41.7907 81.6277 41.8209C81.9596 41.7907 82.2614 41.8511 82.5631 41.9718C82.8649 42.0925 83.1365 42.2735 83.3477 42.515C83.7701 42.9676 83.9814 43.6314 83.9814 44.4462V45.0195H80.6319C80.6621 45.3514 80.813 45.623 81.0544 45.8644C81.2958 46.0756 81.5975 46.1963 81.9294 46.1662C82.1708 46.1662 82.4123 46.136 82.6537 46.0153C82.8649 45.9248 83.0761 45.7437 83.227 45.5627L83.921 46.3472C83.7098 46.649 83.408 46.8904 83.0761 47.0413C82.6537 47.1921 82.2312 47.2827 81.8087 47.2827ZM81.6579 42.9374C81.5372 42.9374 81.4165 42.9676 81.2958 42.9978C81.1751 43.0581 81.0845 43.1185 80.994 43.209C80.813 43.4504 80.6923 43.722 80.6621 44.0237H82.6235V43.903C82.6235 43.6314 82.533 43.39 82.3821 43.1788C82.2916 43.0883 82.1709 43.0279 82.0502 42.9676C81.8993 42.9374 81.7786 42.9374 81.6579 42.9374Z" fill="white"/>
<path d="M87.6625 47.1619V42.9072H86.8779V41.8812H87.6625V41.4286C87.6323 41.1872 87.6927 40.9156 87.7832 40.6742C87.8737 40.4328 87.9944 40.2216 88.1755 40.0405C88.5677 39.7086 89.0807 39.5275 89.5937 39.5577C89.8351 39.5577 90.0765 39.5879 90.3179 39.6482V40.7345C90.167 40.7044 90.0463 40.6742 89.8955 40.7044C89.3523 40.7044 89.1109 40.9458 89.1109 41.4587V41.8812H90.167V42.9072H89.0807V47.1619H87.6625Z" fill="white"/>
<path d="M94.0296 46.6492C93.8486 46.8604 93.6373 47.0414 93.3959 47.132C93.1545 47.2527 92.8829 47.2828 92.6114 47.2828C92.37 47.313 92.1286 47.2527 91.9173 47.1923C91.7061 47.1018 91.4949 46.9811 91.3138 46.8C90.9819 46.4078 90.831 45.8948 90.8612 45.3818V41.9116H92.2794V45.3214C92.2794 45.8646 92.5208 46.1362 93.0338 46.1362C93.2149 46.1663 93.4261 46.106 93.6072 46.0456C93.7882 45.9551 93.9391 45.8344 94.0296 45.6534V41.9116H95.4478V47.1923H94.1201L94.0296 46.6492Z" fill="white"/>
<path d="M98.1639 40.5835V41.881H99.0692V42.907H98.1639V45.5323C98.1639 45.6831 98.1941 45.834 98.2846 45.9547C98.345 46.0151 98.4053 46.0452 98.4959 46.0754C98.5562 46.1056 98.6467 46.1056 98.7373 46.1056C98.8881 46.1056 99.0088 46.1056 99.1597 46.0754V47.1315C98.8881 47.2221 98.5864 47.2522 98.3148 47.2522C97.319 47.2522 96.806 46.7393 96.806 45.7435V42.907H96.0215V41.881H96.806V40.5835H98.1639Z" fill="white"/>
<path d="M103.022 46.6492C102.841 46.8604 102.63 47.0414 102.388 47.132C102.147 47.2527 101.875 47.2828 101.604 47.2828C101.362 47.313 101.121 47.2527 100.91 47.1923C100.698 47.1018 100.487 46.9811 100.306 46.8C99.9741 46.4078 99.8232 45.8948 99.8534 45.3818V41.9116H101.272V45.3214C101.272 45.8646 101.513 46.1362 102.026 46.1362C102.207 46.1663 102.418 46.106 102.599 46.0456C102.78 45.9551 102.931 45.8344 103.022 45.6534V41.9116H104.44V47.1923H103.112L103.022 46.6492Z" fill="white"/>
<path d="M108.423 43.2089C108.242 43.1787 108.091 43.1787 107.91 43.1787C107.367 43.1787 107.035 43.3597 106.854 43.7218V47.192H105.436V41.9113H106.763L106.793 42.545C106.914 42.3338 107.065 42.1527 107.276 42.0018C107.487 41.8811 107.729 41.7906 107.97 41.8208C108.121 41.8208 108.272 41.851 108.423 41.8811V43.2089Z" fill="white"/>
<path d="M111.441 47.2827C111.078 47.2827 110.747 47.2525 110.415 47.1318C110.083 47.0111 109.781 46.83 109.54 46.5886C109.298 46.3472 109.087 46.0455 108.966 45.7135C108.846 45.3816 108.785 45.0497 108.785 44.6876V44.5367C108.785 44.0539 108.876 43.5711 109.087 43.1185C109.268 42.7262 109.57 42.3943 109.962 42.1528C110.354 41.9114 110.807 41.7907 111.26 41.8209C111.591 41.7907 111.893 41.8511 112.195 41.9718C112.497 42.0925 112.768 42.2735 112.98 42.515C113.402 42.9676 113.613 43.6314 113.613 44.4462V45.0195H110.234C110.264 45.3514 110.415 45.623 110.656 45.8644C110.897 46.0756 111.199 46.1963 111.531 46.1662C111.773 46.1662 112.014 46.136 112.255 46.0153C112.467 45.9248 112.678 45.7437 112.829 45.5627L113.523 46.3472C113.311 46.649 113.01 46.8904 112.678 47.0413C112.255 47.1921 111.863 47.2827 111.441 47.2827ZM111.26 42.9374C111.139 42.9374 111.018 42.9676 110.897 42.9978C110.777 43.0581 110.686 43.1185 110.596 43.209C110.415 43.4504 110.294 43.722 110.264 44.0237H112.225V43.903C112.225 43.6314 112.135 43.39 111.984 43.1788C111.893 43.0883 111.773 43.0279 111.652 42.9676C111.531 42.9374 111.41 42.9374 111.26 42.9374Z" fill="white"/>
<path d="M116.691 44.4764C116.691 43.9936 116.782 43.5108 116.993 43.0883C117.174 42.696 117.476 42.3641 117.868 42.1227C118.261 41.8813 118.713 41.7908 119.196 41.7908C119.528 41.7908 119.83 41.8209 120.131 41.9416C120.433 42.0623 120.705 42.2132 120.946 42.4546C121.429 42.9374 121.67 43.5711 121.701 44.235V44.5971C121.731 45.3213 121.489 46.0153 121.037 46.5585C120.554 47.0413 119.89 47.2827 119.226 47.2827C118.532 47.2827 117.898 47.0111 117.416 46.5585C116.933 46.0153 116.691 45.2911 116.722 44.5669V44.4764H116.691ZM118.079 44.5971C118.049 44.9894 118.14 45.4118 118.351 45.7437C118.442 45.8644 118.562 45.955 118.713 46.0455C118.864 46.1058 119.015 46.136 119.166 46.1662C119.317 46.1662 119.468 46.136 119.618 46.0757C119.769 46.0153 119.89 45.8946 119.981 45.7739C120.192 45.3816 120.312 44.9592 120.282 44.5066C120.312 44.1143 120.192 43.6918 119.981 43.3599C119.89 43.2392 119.769 43.1185 119.618 43.0581C119.468 42.9978 119.317 42.9676 119.166 42.9676C119.015 42.9676 118.864 42.9978 118.713 43.0581C118.562 43.1185 118.442 43.2392 118.351 43.3599C118.17 43.722 118.049 44.1444 118.079 44.5971Z" fill="white"/>
<path d="M122.938 47.1619V42.9072H122.153V41.8812H122.938V41.4286C122.908 41.1872 122.968 40.9156 123.059 40.6742C123.149 40.4328 123.27 40.2216 123.451 40.0405C123.843 39.7086 124.356 39.5275 124.869 39.5577C125.111 39.5577 125.352 39.5879 125.593 39.6482V40.7345C125.442 40.7044 125.322 40.6742 125.171 40.7044C124.628 40.7044 124.386 40.9458 124.386 41.4587V41.8812H125.442V42.9072H124.386V47.1619H122.938Z" fill="white"/>
<path d="M129.968 41.8813L129.998 42.4848C130.179 42.2736 130.421 42.0925 130.662 41.9718C130.934 41.8511 131.205 41.7907 131.507 41.8209C131.809 41.7907 132.08 41.8511 132.322 42.002C132.563 42.1528 132.774 42.3641 132.895 42.6357C133.076 42.3641 133.318 42.1528 133.589 42.0321C133.861 41.8813 134.163 41.8209 134.494 41.8511C134.736 41.8209 134.977 41.8813 135.188 41.9416C135.4 42.0321 135.611 42.1528 135.762 42.3339C136.064 42.7865 136.214 43.2995 136.184 43.8427V47.2223H134.766V43.8427C134.796 43.6013 134.736 43.39 134.585 43.1788C134.494 43.0883 134.404 43.0279 134.283 42.9978C134.163 42.9676 134.072 42.9374 133.951 42.9676C133.77 42.9676 133.559 42.9978 133.408 43.1185C133.257 43.2392 133.137 43.39 133.076 43.5711V47.1921H131.658V43.8125C131.688 43.5711 131.628 43.3297 131.477 43.1486C131.386 43.0581 131.296 43.0279 131.205 42.9676C131.085 42.9374 130.994 42.9072 130.873 42.9374C130.692 42.9374 130.511 42.9676 130.36 43.0581C130.21 43.1486 130.089 43.2693 129.998 43.4504V47.1921H128.58V41.9114H129.968V41.8813Z" fill="white"/>
<path d="M137.06 44.4764C137.06 43.9936 137.15 43.5108 137.361 43.0883C137.542 42.696 137.844 42.3641 138.236 42.1227C138.629 41.8813 139.081 41.7908 139.564 41.7908C139.896 41.7908 140.198 41.8209 140.5 41.9416C140.801 42.0623 141.073 42.2132 141.314 42.4546C141.797 42.9374 142.039 43.5711 142.069 44.235V44.5971C142.099 45.3213 141.857 46.0153 141.405 46.5585C140.922 47.0413 140.258 47.2827 139.594 47.2827C138.93 47.2827 138.267 47.0111 137.784 46.5585C137.301 46.0153 137.06 45.2911 137.09 44.5669V44.4764H137.06ZM138.478 44.5971C138.448 44.9894 138.538 45.4118 138.749 45.7437C138.84 45.8644 138.961 45.955 139.111 46.0455C139.262 46.1058 139.413 46.136 139.564 46.1662C139.715 46.1964 139.866 46.136 140.017 46.0757C140.168 46.0153 140.288 45.8946 140.379 45.7739C140.59 45.3816 140.711 44.9592 140.681 44.5066C140.711 44.1143 140.59 43.6918 140.379 43.3599C140.288 43.2392 140.168 43.1185 140.017 43.0581C139.866 42.9978 139.715 42.9676 139.564 42.9676C139.413 42.9676 139.262 42.9978 139.111 43.0581C138.961 43.1185 138.84 43.2392 138.749 43.3599C138.538 43.722 138.448 44.1444 138.478 44.5971Z" fill="white"/>
<path d="M144.241 41.8812L144.271 42.4847C144.452 42.2433 144.694 42.0622 144.935 41.9415C145.207 41.8208 145.478 41.7605 145.78 41.7605C146.021 41.7303 146.232 41.7906 146.474 41.851C146.685 41.9415 146.896 42.0622 147.047 42.2433C147.349 42.6657 147.5 43.1787 147.47 43.7219V47.1317H146.051V43.752C146.082 43.5106 145.991 43.2692 145.87 43.0882C145.78 43.0278 145.689 42.9675 145.569 42.9071C145.448 42.877 145.327 42.8468 145.237 42.877C145.056 42.877 144.875 42.9071 144.724 42.9977C144.573 43.0882 144.422 43.2089 144.362 43.3899V47.1317H142.943V41.851H144.241V41.8812Z" fill="white"/>
<path d="M151 47.2827C150.638 47.2827 150.306 47.2525 149.974 47.1318C149.642 47.0111 149.341 46.83 149.099 46.5886C148.858 46.3472 148.646 46.0455 148.526 45.7135C148.405 45.3816 148.345 45.0497 148.345 44.6876V44.5367C148.345 44.0539 148.435 43.5711 148.646 43.1185C148.828 42.7262 149.129 42.3943 149.522 42.1528C149.914 41.9114 150.366 41.7907 150.819 41.8209C151.151 41.7907 151.453 41.8511 151.755 41.9718C152.056 42.0925 152.328 42.2735 152.539 42.515C152.962 42.9676 153.173 43.6314 153.173 44.4462V45.0195H149.793C149.823 45.3514 149.974 45.623 150.216 45.8644C150.457 46.0756 150.759 46.1963 151.091 46.1662C151.332 46.1662 151.573 46.136 151.815 46.0153C152.026 45.9248 152.237 45.7437 152.388 45.5627L153.082 46.3472C152.871 46.649 152.569 46.8904 152.237 47.0413C151.815 47.1921 151.392 47.2827 151 47.2827ZM150.819 42.9374C150.698 42.9374 150.578 42.9676 150.457 42.9978C150.336 43.0581 150.246 43.1185 150.155 43.209C149.974 43.4504 149.853 43.722 149.823 44.0237H151.785V43.903C151.785 43.6314 151.694 43.39 151.543 43.1788C151.453 43.0883 151.332 43.0279 151.211 42.9676C151.091 42.9374 150.94 42.9374 150.819 42.9374Z" fill="white"/>
<path d="M155.859 45.1702L156.825 41.8811H158.334L156.221 47.9765L156.101 48.2481C155.98 48.5499 155.769 48.8214 155.497 49.0025C155.225 49.1835 154.894 49.2741 154.562 49.2741C154.35 49.2741 154.139 49.2439 153.928 49.1835V48.1274H154.139C154.35 48.1274 154.562 48.0972 154.743 48.0067C154.894 47.9162 154.984 47.7653 155.044 47.6144L155.225 47.192L153.385 41.8811H154.894L155.859 45.1702Z" fill="white"/>
</svg>
