<svg width="58" height="41" viewBox="0 0 58 41" fill="none" xmlns="http://www.w3.org/2000/svg">
<g filter="url(#filter0_d_199_2074)">
<path d="M38.7515 19.437C38.7515 15.6762 37.6363 11.9998 35.5469 8.87277C33.4575 5.74575 30.4877 3.30853 27.0132 1.86932C23.5386 0.430105 19.7153 0.0535421 16.0267 0.787246C12.3381 1.52095 8.94998 3.33197 6.29066 5.99128C3.63134 8.6506 1.82033 12.0388 1.08662 15.7273C0.35292 19.4159 0.729483 23.2392 2.16869 26.7138C3.60791 30.1884 6.04512 33.1581 9.17215 35.2475C12.2992 37.3369 15.9756 38.4522 19.7364 38.4522V37.5665C19.7364 33.8549 16.4839 30.9854 13.3978 28.9233C11.5216 27.6697 10.0593 25.8878 9.19577 23.8031C8.33225 21.7184 8.10631 19.4244 8.54653 17.2112C8.98675 14.9981 10.0734 12.9652 11.669 11.3696C13.2645 9.77399 15.2974 8.68738 17.5106 8.24715C19.7237 7.80693 22.0177 8.03287 24.1025 8.8964C26.1872 9.75992 27.9691 11.2223 29.2227 13.0985C31.2848 16.1845 34.1543 19.437 37.8659 19.437H38.7515Z" fill="#3D70FF"/>
<path d="M19.7364 19.437C19.7364 23.1979 20.8517 26.8742 22.9411 30.0013C25.0305 33.1283 28.0002 35.5655 31.4748 37.0047C34.9494 38.4439 38.7727 38.8205 42.4612 38.0868C46.1498 37.3531 49.538 35.5421 52.1973 32.8828C54.8566 30.2234 56.6676 26.8353 57.4014 23.1467C58.1351 19.4581 57.7585 15.6348 56.3193 12.1602C54.8801 8.68568 52.4429 5.71592 49.3158 3.62651C46.1888 1.53709 42.5124 0.421875 38.7516 0.421875V1.30752C38.7516 5.0191 42.0041 7.88867 45.0901 9.95071C46.9663 11.2044 48.4287 12.9862 49.2922 15.071C50.1557 17.1557 50.3817 19.4497 49.9414 21.6628C49.5012 23.876 48.4146 25.9089 46.819 27.5045C45.2234 29.1001 43.1905 30.1867 40.9774 30.6269C38.7642 31.0671 36.4702 30.8412 34.3855 29.9776C32.3008 29.1141 30.5189 27.6518 29.2653 25.7756C27.2032 22.6895 24.3337 19.437 20.6221 19.437H19.7364Z" fill="#3D70FF"/>
</g>
<defs>
<filter id="filter0_d_199_2074" x="0.721237" y="0.421875" width="57.0455" height="40.2834" filterUnits="userSpaceOnUse" color-interpolation-filters="sRGB">
<feFlood flood-opacity="0" result="BackgroundImageFix"/>
<feColorMatrix in="SourceAlpha" type="matrix" values="0 0 0 0 0 0 0 0 0 0 0 0 0 0 0 0 0 0 127 0" result="hardAlpha"/>
<feOffset dy="2.25308"/>
<feComposite in2="hardAlpha" operator="out"/>
<feColorMatrix type="matrix" values="0 0 0 0 0.0612956 0 0 0 0 0.256746 0 0 0 0 0.636149 0 0 0 1 0"/>
<feBlend mode="normal" in2="BackgroundImageFix" result="effect1_dropShadow_199_2074"/>
<feBlend mode="normal" in="SourceGraphic" in2="effect1_dropShadow_199_2074" result="shape"/>
</filter>
</defs>
</svg>
