<svg width="158" height="108" viewBox="0 0 158 108" fill="none" xmlns="http://www.w3.org/2000/svg">
<path fill-rule="evenodd" clip-rule="evenodd" d="M61.6166 45.25V58.25H64.8167H68.0166V53.25C68.0166 49.95 68.0166 48.15 68.0166 47.95C68.1166 47.45 68.2166 46.95 68.5166 46.55C68.9166 45.85 69.6166 45.55 70.4166 45.65C71.5166 45.75 72.2166 46.35 72.4166 47.65C72.4166 47.85 72.4166 49.85 72.4166 53.05V58.15H75.6167H78.8167V52.15C78.8167 47.05 78.8167 46.05 78.7167 45.55C78.5167 43.75 77.9166 42.35 76.8167 41.35C75.9166 40.45 74.8166 39.95 73.5166 39.75C73.0166 39.65 71.6167 39.75 71.2167 39.85C70.0167 40.15 69.1166 40.55 68.3167 41.45L67.8167 41.85V37.05V32.25H64.6167H61.4166V45.25H61.6166ZM129.617 32.45C129.417 32.85 122.917 48.55 122.917 48.55C122.917 48.55 124.617 48.55 126.717 48.55H130.517L133.917 40.45C135.817 35.95 137.317 32.25 137.317 32.25C137.317 32.25 135.617 32.25 133.517 32.25H129.717L129.617 32.45ZM47.6166 39.85C46.2167 40.05 45.1167 40.45 44.0167 41.15C41.8167 42.55 40.4167 44.95 40.0167 47.75C39.8167 49.05 39.9167 50.65 40.2167 51.85C41.0167 54.95 43.1166 57.35 45.8167 58.25C46.8167 58.55 47.2166 58.65 48.4166 58.65C49.3166 58.65 49.6166 58.65 49.9166 58.55C51.2166 58.25 52.1166 57.75 52.9166 56.95L53.3167 56.55V57.35V58.15H56.4166H59.5167V49.15V40.15H56.4166H53.3167V40.95V41.75L53.0167 41.45C52.3167 40.65 51.3167 40.15 50.0167 39.85C49.6167 39.75 49.4166 39.75 48.6166 39.75C48.1166 39.85 47.7167 39.85 47.6166 39.85ZM88.4166 39.85C86.7167 40.05 84.9167 40.85 83.6167 41.85C81.1167 43.95 79.8167 47.25 80.3167 50.65C80.8167 54.45 83.5166 57.35 87.3167 58.35C88.1167 58.55 88.9166 58.65 89.9166 58.65C91.7167 58.65 93.0166 58.35 94.4166 57.65C97.2167 56.25 99.0166 53.75 99.4166 50.65C99.5166 49.85 99.5166 48.55 99.4166 47.85C99.2167 46.35 98.6167 44.85 97.7167 43.65C97.3167 43.15 96.5166 42.25 96.0166 41.85C94.6166 40.75 93.0167 40.05 91.2167 39.85C90.5167 39.75 89.1166 39.75 88.4166 39.85ZM108.817 39.85C107.117 40.05 105.417 40.75 104.117 41.85C103.617 42.25 102.717 43.15 102.417 43.65C101.517 44.85 101.017 46.35 100.717 47.85C100.617 48.55 100.617 49.95 100.717 50.65C101.317 54.65 104.217 57.75 108.217 58.55C109.017 58.75 109.417 58.75 110.317 58.75C112.017 58.75 113.517 58.45 114.917 57.65C118.617 55.75 120.617 51.55 119.717 47.25C118.917 43.25 115.717 40.35 111.617 39.85C110.917 39.75 109.517 39.75 108.817 39.85ZM19.3167 40.25C19.3167 40.25 21.0166 44.35 23.1166 49.35C25.2166 54.35 26.9167 58.45 26.9167 58.45C26.9167 58.45 26.3167 59.95 25.5167 61.75C24.7167 63.55 24.1166 64.95 24.1166 65.05C24.1166 65.15 25.6167 65.05 27.5167 65.05H30.9167L36.0167 52.75C38.8167 45.95 41.1166 40.45 41.1166 40.35C41.1166 40.35 40.4167 40.25 37.7167 40.35H34.3167L32.2167 45.55C31.3167 48.35 30.4167 50.75 30.4167 50.75C30.4167 50.75 29.5167 48.35 28.3167 45.55L26.3167 40.35H22.8167C20.9167 40.25 19.3167 40.25 19.3167 40.25ZM50.7167 45.65C52.0167 45.95 53.0166 46.95 53.4166 48.25C53.5166 48.75 53.5166 49.65 53.4166 50.15C53.1166 51.45 52.1166 52.45 50.8167 52.75C50.3167 52.85 49.4166 52.85 48.9166 52.75C47.8166 52.45 46.8166 51.65 46.4166 50.65C45.9166 49.55 46.1167 48.15 46.7167 47.15C47.6167 45.85 49.1167 45.35 50.7167 45.65ZM90.6167 45.75C92.0167 45.95 93.1166 47.05 93.4166 48.45C93.5166 48.95 93.5166 49.75 93.4166 50.25C93.1166 51.55 92.1166 52.45 90.9166 52.85C90.5166 52.95 89.4166 52.95 89.0166 52.85C88.0166 52.55 87.2167 51.85 86.7167 50.95C86.4166 50.35 86.4166 50.05 86.4166 49.35C86.4166 48.75 86.5167 48.45 86.7167 47.95C87.0167 47.35 87.4166 46.75 88.0166 46.35C88.6166 45.75 89.6167 45.55 90.6167 45.75ZM110.917 45.75C112.117 45.95 113.117 46.75 113.517 47.85C113.717 48.35 113.817 48.65 113.817 49.25C113.817 49.95 113.717 50.25 113.517 50.85C113.117 51.75 112.217 52.45 111.217 52.75C110.817 52.85 109.717 52.85 109.317 52.75C108.117 52.45 107.117 51.45 106.817 50.15C106.717 49.65 106.717 48.75 106.817 48.25C107.217 46.65 108.617 45.55 110.217 45.55C110.417 45.65 110.717 45.65 110.917 45.75ZM124.517 50.15C122.617 50.35 121.217 51.75 120.817 53.55C120.717 54.05 120.717 54.95 120.817 55.45C121.217 57.05 122.417 58.15 124.017 58.55C124.217 58.55 124.617 58.65 124.917 58.65C126.117 58.65 127.117 58.25 127.917 57.45C128.817 56.55 129.117 55.65 129.117 54.45C129.117 52.95 128.417 51.65 127.217 50.95C126.417 50.25 125.317 50.05 124.517 50.15ZM71.8167 59.95C70.5167 60.35 69.9167 61.85 70.6167 62.95C70.8167 63.25 71.2166 63.65 71.5166 63.75C71.8166 63.85 71.8167 63.85 72.4166 63.85C72.9166 63.85 73.0167 63.85 73.3167 63.75C73.7167 63.55 74.1166 63.15 74.3167 62.75C74.8167 61.75 74.3167 60.55 73.3167 60.05C73.0167 59.85 72.9166 59.85 72.5166 59.85C72.1166 59.85 72.0167 59.85 71.8167 59.95ZM66.4166 60.05C64.7166 60.35 63.6166 61.45 63.1166 63.25C63.0167 63.55 63.0167 63.85 63.0167 64.25V64.95H62.3167H61.6166V66.45V67.95H62.3167H63.0167V71.55V75.15H64.9166H66.8167V71.55V67.95H68.1167H69.4166V66.45V64.95H68.1167H66.8167V64.65C66.9166 63.95 67.2167 63.45 67.8167 63.35C68.2167 63.25 68.8167 63.25 69.2167 63.45C69.4167 63.55 69.5166 63.55 69.5166 63.55C69.5166 63.55 69.5166 62.85 69.5166 61.95V60.35L69.2167 60.25C68.8167 60.05 68.3167 60.05 67.6167 60.05C67.1167 59.95 66.7166 60.05 66.4166 60.05ZM81.6167 64.75C80.8167 64.95 80.2167 65.35 79.8167 65.85L79.6167 66.15V65.55V64.95H77.7167H75.8167V70.05V75.15H77.7167H79.6167V72.35C79.6167 70.75 79.6167 69.45 79.6167 69.25C79.7167 68.85 79.9167 68.45 80.1167 68.25C80.6167 67.85 81.5166 67.95 81.9166 68.45C82.2166 68.85 82.2167 68.85 82.2167 72.05V75.05H84.1167H86.0166V71.65C86.0166 68.05 86.0166 67.65 85.8167 66.95C85.6167 66.35 85.4166 65.85 84.9166 65.45C84.5166 65.05 84.1166 64.75 83.5166 64.65C83.0166 64.65 82.0167 64.65 81.6167 64.75ZM91.1167 64.65C90.5167 64.75 89.6167 65.05 89.1167 65.45C88.0167 66.25 87.3167 67.45 87.0166 68.95C86.9166 69.55 86.9166 70.65 87.0166 71.25C87.2166 72.15 87.5166 73.05 88.0166 73.65C88.7166 74.55 89.6167 75.15 90.7167 75.35C91.3167 75.45 92.3167 75.45 92.8167 75.25C93.4166 75.05 93.8167 74.85 94.3167 74.45L94.7167 74.05V74.55V75.05H96.6167H98.5166V69.95V64.85H96.6167H94.7167V65.35V65.85L94.4166 65.75C93.9166 65.25 93.2167 64.85 92.4166 64.75C92.1166 64.65 91.4167 64.65 91.1167 64.65ZM105.617 64.75C104.917 64.85 104.217 65.35 103.817 65.85L103.617 66.05V65.45V64.85H101.717H99.8167V69.95V75.05H101.717H103.617V72.15C103.617 69.05 103.617 69.05 103.817 68.55C104.017 68.15 104.417 67.95 104.817 67.95C105.217 67.95 105.417 68.05 105.717 68.25C106.117 68.65 106.117 68.55 106.117 71.95V74.95H108.017H109.917V71.25C109.917 67.55 109.917 67.55 109.817 67.15C109.717 66.95 109.617 66.55 109.517 66.25C109.317 65.85 109.217 65.75 108.917 65.45C108.517 65.05 108.217 64.85 107.817 64.65C107.117 64.65 106.317 64.55 105.617 64.75ZM115.517 64.75C113.817 65.05 112.517 65.85 111.717 67.25C111.517 67.65 111.317 68.15 111.117 68.65C111.017 69.15 111.017 69.25 111.017 70.05C111.017 70.95 111.017 71.25 111.317 71.95C111.917 73.65 113.317 74.95 115.217 75.35C115.517 75.45 115.817 75.45 116.517 75.45C117.517 75.45 117.917 75.35 118.617 75.05L119.017 74.85V73.15V71.45L118.717 71.65C118.217 71.95 117.917 72.05 117.317 72.05C116.717 72.05 116.417 72.05 116.017 71.85C115.617 71.65 115.317 71.35 115.117 70.95C115.017 70.65 115.017 70.65 115.017 70.15C115.017 69.75 115.017 69.65 115.117 69.35C115.417 68.55 116.117 68.15 117.117 68.05C117.817 68.05 118.117 68.05 119.117 68.55C119.117 68.55 119.117 67.75 119.117 66.85V65.15L118.817 65.05C117.717 64.65 116.517 64.55 115.517 64.75ZM124.117 64.75C121.217 65.25 119.417 67.75 119.617 70.65C119.717 71.65 120.017 72.55 120.517 73.25C121.217 74.35 122.317 75.05 123.717 75.35C124.317 75.45 125.917 75.45 126.617 75.35C127.617 75.15 128.517 74.65 129.217 73.95C129.517 73.65 130.017 72.95 130.017 72.95C130.017 72.95 129.317 72.65 128.417 72.35L126.817 71.75L126.617 71.95C126.317 72.25 126.117 72.35 125.717 72.45C124.617 72.75 123.517 72.15 123.317 71.15V70.95H126.817H130.317V70.05C130.317 69.45 130.317 69.05 130.217 68.85C130.017 67.65 129.517 66.85 128.817 66.05C128.117 65.35 127.317 64.95 126.217 64.75C125.817 64.65 124.617 64.65 124.117 64.75ZM70.5166 70.05V75.15H72.4166H74.3167V70.05V64.95H72.4166H70.5166V70.05ZM125.617 67.55C125.917 67.65 126.017 67.75 126.317 67.95C126.517 68.15 126.717 68.35 126.717 68.65V68.85H125.017C123.117 68.85 123.217 68.85 123.417 68.45C123.717 67.75 124.617 67.35 125.617 67.55ZM93.3167 68.05C93.8167 68.15 94.4167 68.65 94.6167 69.15C95.1167 70.25 94.6166 71.55 93.4166 71.95C93.0166 72.05 92.4166 72.05 92.0166 71.95C91.4166 71.75 90.8167 71.25 90.7167 70.65C90.6167 70.35 90.6167 70.25 90.6167 69.95C90.6167 69.55 90.6167 69.45 90.8167 69.15C91.2167 68.25 92.2167 67.85 93.3167 68.05Z" fill="#21252D"/>
</svg>
