<svg width="119" height="44" viewBox="0 0 119 44" fill="none" xmlns="http://www.w3.org/2000/svg">
<path fill-rule="evenodd" clip-rule="evenodd" d="M43.2834 13.25V26.25H46.4834H49.6834V21.25C49.6834 17.95 49.6834 16.15 49.6834 15.95C49.7834 15.45 49.8834 14.95 50.1834 14.55C50.5834 13.85 51.2834 13.55 52.0834 13.65C53.1834 13.75 53.8834 14.35 54.0834 15.65C54.0834 15.85 54.0834 17.85 54.0834 21.05V26.15H57.2834H60.4834V20.15C60.4834 15.05 60.4834 14.05 60.3834 13.55C60.1834 11.75 59.5834 10.35 58.4834 9.35C57.5834 8.45 56.4834 7.95 55.1834 7.75C54.6834 7.65 53.2834 7.75 52.8834 7.85C51.6834 8.15 50.7834 8.55 49.9834 9.45L49.4834 9.85V5.05V0.25H46.2834H43.0834V13.25H43.2834ZM111.283 0.450001C111.083 0.850001 104.583 16.55 104.583 16.55C104.583 16.55 106.283 16.55 108.383 16.55H112.183L115.583 8.45C117.483 3.95 118.983 0.25 118.983 0.25C118.983 0.25 117.283 0.25 115.183 0.25H111.383L111.283 0.450001ZM29.2834 7.85C27.8834 8.05 26.7834 8.45 25.6834 9.15C23.4834 10.55 22.0834 12.95 21.6834 15.75C21.4834 17.05 21.5834 18.65 21.8834 19.85C22.6834 22.95 24.7834 25.35 27.4834 26.25C28.4834 26.55 28.8834 26.65 30.0834 26.65C30.9834 26.65 31.2834 26.65 31.5834 26.55C32.8834 26.25 33.7834 25.75 34.5834 24.95L34.9834 24.55V25.35V26.15H38.0834H41.1834V17.15V8.15H38.0834H34.9834V8.95V9.75L34.6834 9.45C33.9834 8.65 32.9834 8.15 31.6834 7.85C31.2834 7.75 31.0834 7.75 30.2834 7.75C29.7834 7.85 29.3834 7.85 29.2834 7.85ZM70.0834 7.85C68.3834 8.05 66.5834 8.85 65.2834 9.85C62.7834 11.95 61.4834 15.25 61.9834 18.65C62.4834 22.45 65.1834 25.35 68.9834 26.35C69.7834 26.55 70.5834 26.65 71.5834 26.65C73.3834 26.65 74.6834 26.35 76.0834 25.65C78.8834 24.25 80.6834 21.75 81.0834 18.65C81.1834 17.85 81.1834 16.55 81.0834 15.85C80.8834 14.35 80.2834 12.85 79.3834 11.65C78.9834 11.15 78.1834 10.25 77.6834 9.85C76.2834 8.75 74.6834 8.05 72.8834 7.85C72.1834 7.75 70.7834 7.75 70.0834 7.85ZM90.4834 7.85C88.7834 8.05 87.0834 8.75 85.7834 9.85C85.2834 10.25 84.3834 11.15 84.0834 11.65C83.1834 12.85 82.6834 14.35 82.3834 15.85C82.2834 16.55 82.2834 17.95 82.3834 18.65C82.9834 22.65 85.8834 25.75 89.8834 26.55C90.6834 26.75 91.0834 26.75 91.9834 26.75C93.6834 26.75 95.1834 26.45 96.5834 25.65C100.283 23.75 102.283 19.55 101.383 15.25C100.583 11.25 97.3834 8.35 93.2834 7.85C92.5834 7.75 91.1834 7.75 90.4834 7.85ZM0.983398 8.25C0.983398 8.25 2.6834 12.35 4.7834 17.35C6.8834 22.35 8.5834 26.45 8.5834 26.45C8.5834 26.45 7.9834 27.95 7.1834 29.75C6.3834 31.55 5.7834 32.95 5.7834 33.05C5.7834 33.15 7.2834 33.05 9.1834 33.05H12.5834L17.6834 20.75C20.4834 13.95 22.7834 8.45 22.7834 8.35C22.7834 8.35 22.0834 8.25 19.3834 8.35H15.9834L13.8834 13.55C12.9834 16.35 12.0834 18.75 12.0834 18.75C12.0834 18.75 11.1834 16.35 9.9834 13.55L7.9834 8.35H4.4834C2.5834 8.25 0.983398 8.25 0.983398 8.25ZM32.3834 13.65C33.6834 13.95 34.6834 14.95 35.0834 16.25C35.1834 16.75 35.1834 17.65 35.0834 18.15C34.7834 19.45 33.7834 20.45 32.4834 20.75C31.9834 20.85 31.0834 20.85 30.5834 20.75C29.4834 20.45 28.4834 19.65 28.0834 18.65C27.5834 17.55 27.7834 16.15 28.3834 15.15C29.2834 13.85 30.7834 13.35 32.3834 13.65ZM72.2834 13.75C73.6834 13.95 74.7834 15.05 75.0834 16.45C75.1834 16.95 75.1834 17.75 75.0834 18.25C74.7834 19.55 73.7834 20.45 72.5834 20.85C72.1834 20.95 71.0834 20.95 70.6834 20.85C69.6834 20.55 68.8834 19.85 68.3834 18.95C68.0834 18.35 68.0834 18.05 68.0834 17.35C68.0834 16.75 68.1834 16.45 68.3834 15.95C68.6834 15.35 69.0834 14.75 69.6834 14.35C70.2834 13.75 71.2834 13.55 72.2834 13.75ZM92.5834 13.75C93.7834 13.95 94.7834 14.75 95.1834 15.85C95.3834 16.35 95.4834 16.65 95.4834 17.25C95.4834 17.95 95.3834 18.25 95.1834 18.85C94.7834 19.75 93.8834 20.45 92.8834 20.75C92.4834 20.85 91.3834 20.85 90.9834 20.75C89.7834 20.45 88.7834 19.45 88.4834 18.15C88.3834 17.65 88.3834 16.75 88.4834 16.25C88.8834 14.65 90.2834 13.55 91.8834 13.55C92.0834 13.65 92.3834 13.65 92.5834 13.75ZM106.183 18.15C104.283 18.35 102.883 19.75 102.483 21.55C102.383 22.05 102.383 22.95 102.483 23.45C102.883 25.05 104.083 26.15 105.683 26.55C105.883 26.55 106.283 26.65 106.583 26.65C107.783 26.65 108.783 26.25 109.583 25.45C110.483 24.55 110.783 23.65 110.783 22.45C110.783 20.95 110.083 19.65 108.883 18.95C108.083 18.25 106.983 18.05 106.183 18.15ZM53.4834 27.95C52.1834 28.35 51.5834 29.85 52.2834 30.95C52.4834 31.25 52.8834 31.65 53.1834 31.75C53.4834 31.85 53.4834 31.85 54.0834 31.85C54.5834 31.85 54.6834 31.85 54.9834 31.75C55.3834 31.55 55.7834 31.15 55.9834 30.75C56.4834 29.75 55.9834 28.55 54.9834 28.05C54.6834 27.85 54.5834 27.85 54.1834 27.85C53.7834 27.85 53.6834 27.85 53.4834 27.95ZM48.0834 28.05C46.3834 28.35 45.2834 29.45 44.7834 31.25C44.6834 31.55 44.6834 31.85 44.6834 32.25V32.95H43.9834H43.2834V34.45V35.95H43.9834H44.6834V39.55V43.15H46.5834H48.4834V39.55V35.95H49.7834H51.0834V34.45V32.95H49.7834H48.4834V32.65C48.5834 31.95 48.8834 31.45 49.4834 31.35C49.8834 31.25 50.4834 31.25 50.8834 31.45C51.0834 31.55 51.1834 31.55 51.1834 31.55C51.1834 31.55 51.1834 30.85 51.1834 29.95V28.35L50.8834 28.25C50.4834 28.05 49.9834 28.05 49.2834 28.05C48.7834 27.95 48.3834 28.05 48.0834 28.05ZM63.2834 32.75C62.4834 32.95 61.8834 33.35 61.4834 33.85L61.2834 34.15V33.55V32.95H59.3834H57.4834V38.05V43.15H59.3834H61.2834V40.35C61.2834 38.75 61.2834 37.45 61.2834 37.25C61.3834 36.85 61.5834 36.45 61.7834 36.25C62.2834 35.85 63.1834 35.95 63.5834 36.45C63.8834 36.85 63.8834 36.85 63.8834 40.05V43.05H65.7834H67.6834V39.65C67.6834 36.05 67.6834 35.65 67.4834 34.95C67.2834 34.35 67.0834 33.85 66.5834 33.45C66.1834 33.05 65.7834 32.75 65.1834 32.65C64.6834 32.65 63.6834 32.65 63.2834 32.75ZM72.7834 32.65C72.1834 32.75 71.2834 33.05 70.7834 33.45C69.6834 34.25 68.9834 35.45 68.6834 36.95C68.5834 37.55 68.5834 38.65 68.6834 39.25C68.8834 40.15 69.1834 41.05 69.6834 41.65C70.3834 42.55 71.2834 43.15 72.3834 43.35C72.9834 43.45 73.9834 43.45 74.4834 43.25C75.0834 43.05 75.4834 42.85 75.9834 42.45L76.3834 42.05V42.55V43.05H78.2834H80.1834V37.95V32.85H78.2834H76.3834V33.35V33.85L76.0834 33.75C75.5834 33.25 74.8834 32.85 74.0834 32.75C73.7834 32.65 73.0834 32.65 72.7834 32.65ZM87.2834 32.75C86.5834 32.85 85.8834 33.35 85.4834 33.85L85.2834 34.05V33.45V32.85H83.3834H81.4834V37.95V43.05H83.3834H85.2834V40.15C85.2834 37.05 85.2834 37.05 85.4834 36.55C85.6834 36.15 86.0834 35.95 86.4834 35.95C86.8834 35.95 87.0834 36.05 87.3834 36.25C87.7834 36.65 87.7834 36.55 87.7834 39.95V42.95H89.6834H91.5834V39.25C91.5834 35.55 91.5834 35.55 91.4834 35.15C91.3834 34.95 91.2834 34.55 91.1834 34.25C90.9834 33.85 90.8834 33.75 90.5834 33.45C90.1834 33.05 89.8834 32.85 89.4834 32.65C88.7834 32.65 87.9834 32.55 87.2834 32.75ZM97.1834 32.75C95.4834 33.05 94.1834 33.85 93.3834 35.25C93.1834 35.65 92.9834 36.15 92.7834 36.65C92.6834 37.15 92.6834 37.25 92.6834 38.05C92.6834 38.95 92.6834 39.25 92.9834 39.95C93.5834 41.65 94.9834 42.95 96.8834 43.35C97.1834 43.45 97.4834 43.45 98.1834 43.45C99.1834 43.45 99.5834 43.35 100.283 43.05L100.683 42.85V41.15V39.45L100.383 39.65C99.8834 39.95 99.5834 40.05 98.9834 40.05C98.3834 40.05 98.0834 40.05 97.6834 39.85C97.2834 39.65 96.9834 39.35 96.7834 38.95C96.6834 38.65 96.6834 38.65 96.6834 38.15C96.6834 37.75 96.6834 37.65 96.7834 37.35C97.0834 36.55 97.7834 36.15 98.7834 36.05C99.4834 36.05 99.7834 36.05 100.783 36.55C100.783 36.55 100.783 35.75 100.783 34.85V33.15L100.483 33.05C99.3834 32.65 98.1834 32.55 97.1834 32.75ZM105.783 32.75C102.883 33.25 101.083 35.75 101.283 38.65C101.383 39.65 101.683 40.55 102.183 41.25C102.883 42.35 103.983 43.05 105.383 43.35C105.983 43.45 107.583 43.45 108.283 43.35C109.283 43.15 110.183 42.65 110.883 41.95C111.183 41.65 111.683 40.95 111.683 40.95C111.683 40.95 110.983 40.65 110.083 40.35L108.483 39.75L108.283 39.95C107.983 40.25 107.783 40.35 107.383 40.45C106.283 40.75 105.183 40.15 104.983 39.15V38.95H108.483H111.983V38.05C111.983 37.45 111.983 37.05 111.883 36.85C111.683 35.65 111.183 34.85 110.483 34.05C109.783 33.35 108.983 32.95 107.883 32.75C107.483 32.65 106.283 32.65 105.783 32.75ZM52.1834 38.05V43.15H54.0834H55.9834V38.05V32.95H54.0834H52.1834V38.05ZM107.283 35.55C107.583 35.65 107.683 35.75 107.983 35.95C108.183 36.15 108.383 36.35 108.383 36.65V36.85H106.683C104.783 36.85 104.883 36.85 105.083 36.45C105.383 35.75 106.283 35.35 107.283 35.55ZM74.9834 36.05C75.4834 36.15 76.0834 36.65 76.2834 37.15C76.7834 38.25 76.2834 39.55 75.0834 39.95C74.6834 40.05 74.0834 40.05 73.6834 39.95C73.0834 39.75 72.4834 39.25 72.3834 38.65C72.2834 38.35 72.2834 38.25 72.2834 37.95C72.2834 37.55 72.2834 37.45 72.4834 37.15C72.8834 36.25 73.8834 35.85 74.9834 36.05Z" fill="white"/>
</svg>
