<svg width="1024" height="1024" viewBox="0 0 1024 1024" fill="none" xmlns="http://www.w3.org/2000/svg">
<rect width="1024" height="1024" fill="#3D70FF"/>
<path d="M642 512.5C642 460.978 626.722 410.613 598.098 367.774C569.474 324.935 528.789 291.546 481.189 271.829C433.589 252.113 381.211 246.954 330.679 257.005C280.147 267.057 233.73 291.867 197.299 328.299C160.867 364.73 136.057 411.147 126.005 461.679C115.954 512.211 121.113 564.589 140.829 612.189C160.546 659.789 193.935 700.474 236.774 729.098C279.613 757.722 329.978 773 381.5 773V760.867C381.5 710.02 336.942 670.708 294.664 642.459V642.459C268.961 625.284 248.928 600.874 237.098 572.313C225.268 543.753 222.172 512.327 228.203 482.007C234.234 451.688 249.12 423.838 270.979 401.979C292.838 380.12 320.688 365.234 351.007 359.203C381.327 353.172 412.753 356.268 441.313 368.098C469.874 379.928 494.284 399.961 511.459 425.664V425.664C539.708 467.942 579.02 512.5 629.867 512.5H642Z" fill="white"/>
<path d="M381.494 512.5C381.494 564.022 396.772 614.387 425.396 657.226C454.02 700.065 494.705 733.454 542.305 753.171C589.905 772.887 642.283 778.046 692.815 767.995C743.347 757.943 789.764 733.133 826.195 696.701C862.627 660.27 887.437 613.853 897.489 563.321C907.54 512.789 902.381 460.411 882.665 412.811C862.948 365.211 829.559 324.526 786.72 295.902C743.881 267.278 693.516 252 641.994 252L641.994 264.133C641.994 314.98 686.552 354.292 728.83 382.541V382.541C754.533 399.716 774.567 424.126 786.397 452.687C798.226 481.247 801.322 512.673 795.291 542.993C789.26 573.312 774.374 601.162 752.515 623.021C730.656 644.88 702.806 659.766 672.487 665.797C642.168 671.828 610.741 668.732 582.181 656.902C553.621 645.072 529.21 625.039 512.035 599.336V599.336C483.786 557.058 444.474 512.5 393.627 512.5H381.494Z" fill="white"/>
</svg>
