<svg width="16" height="16" viewBox="0 0 16 16" xmlns="http://www.w3.org/2000/svg">
<path d="M5 3.00004H4.83333V1.33337C4.83333 1.06004 4.60667 0.833374 4.33333 0.833374C4.06 0.833374 3.83333 1.06004 3.83333 1.33337V3.00004H3.66667C2.60667 3.00004 2 3.60671 2 4.66671V8.66671C2 9.72671 2.60667 10.3334 3.66667 10.3334H3.83333V14.6667C3.83333 14.94 4.06 15.1667 4.33333 15.1667C4.60667 15.1667 4.83333 14.94 4.83333 14.6667V10.3334H5C6.06 10.3334 6.66667 9.72671 6.66667 8.66671V4.66671C6.66667 3.60671 6.06 3.00004 5 3.00004Z"/>
<path d="M12.3333 5.66671H12.1667V1.33337C12.1667 1.06004 11.94 0.833374 11.6667 0.833374C11.3933 0.833374 11.1667 1.06004 11.1667 1.33337V5.66671H11C9.94 5.66671 9.33333 6.27337 9.33333 7.33337V11.3334C9.33333 12.3934 9.94 13 11 13H11.1667V14.6667C11.1667 14.94 11.3933 15.1667 11.6667 15.1667C11.94 15.1667 12.1667 14.94 12.1667 14.6667V13H12.3333C13.3933 13 14 12.3934 14 11.3334V7.33337C14 6.27337 13.3933 5.66671 12.3333 5.66671Z"/>
</svg>
