<svg width="16" height="16" viewBox="0 0 16 16" xmlns="http://www.w3.org/2000/svg">
<path d="M11.6867 5.18004C11.64 5.17337 11.5933 5.17337 11.5467 5.18004C10.5133 5.14671 9.69332 4.30004 9.69332 3.26004C9.69332 2.20004 10.5533 1.33337 11.62 1.33337C12.68 1.33337 13.5467 2.19337 13.5467 3.26004C13.54 4.30004 12.72 5.14671 11.6867 5.18004Z"/>
<path d="M13.86 9.80004C13.1133 10.3 12.0667 10.4867 11.1 10.36C11.3533 9.81337 11.4867 9.20671 11.4933 8.56671C11.4933 7.90004 11.3467 7.26671 11.0667 6.71337C12.0533 6.58004 13.1 6.76671 13.8533 7.26671C14.9067 7.96004 14.9067 9.10004 13.86 9.80004Z"/>
<path d="M4.29332 5.18004C4.33999 5.17337 4.38665 5.17337 4.43332 5.18004C5.46665 5.14671 6.28665 4.30004 6.28665 3.26004C6.28665 2.19337 5.42665 1.33337 4.35999 1.33337C3.29999 1.33337 2.43999 2.19337 2.43999 3.26004C2.43999 4.30004 3.25999 5.14671 4.29332 5.18004Z"/>
<path d="M4.36665 8.56671C4.36665 9.21337 4.50665 9.82671 4.75999 10.38C3.81999 10.48 2.83999 10.28 2.11999 9.80671C1.06665 9.10671 1.06665 7.96671 2.11999 7.26671C2.83332 6.78671 3.83999 6.59337 4.78665 6.70004C4.51332 7.26004 4.36665 7.89337 4.36665 8.56671Z"/>
<path d="M8.07999 10.58C8.02665 10.5734 7.96665 10.5734 7.90665 10.58C6.67999 10.54 5.69999 9.53337 5.69999 8.29337C5.70665 7.02671 6.72665 6.00004 7.99999 6.00004C9.26665 6.00004 10.2933 7.02671 10.2933 8.29337C10.2867 9.53337 9.31332 10.54 8.07999 10.58Z"/>
<path d="M5.91332 11.96C4.90665 12.6334 4.90665 13.74 5.91332 14.4067C7.05999 15.1734 8.93999 15.1734 10.0867 14.4067C11.0933 13.7334 11.0933 12.6267 10.0867 11.96C8.94665 11.1934 7.06665 11.1934 5.91332 11.96Z"/>
</svg>
