<svg width="16" height="16" viewBox="0 0 16 16" xmlns="http://www.w3.org/2000/svg">
<path d="M2.87802 4.62476L5.2163 6.08729L7.54678 3.02642C7.59828 2.95871 7.66628 2.90352 7.7451 2.86544C7.82393 2.82736 7.9113 2.8075 7.99997 2.8075C8.08863 2.8075 8.176 2.82736 8.25483 2.86544C8.33365 2.90352 8.40165 2.95871 8.45315 3.02642L10.7836 6.08729L13.1219 4.62476C13.2104 4.56952 13.3139 4.53921 13.4202 4.53739C13.5265 4.53558 13.6311 4.56235 13.7216 4.61454C13.8122 4.66672 13.885 4.74214 13.9313 4.83189C13.9777 4.92163 13.9957 5.02195 13.9832 5.12098L13.0685 12.4164C13.0525 12.5435 12.9874 12.6606 12.8855 12.7456C12.7836 12.8306 12.652 12.8776 12.5156 12.8776H3.4843C3.34794 12.8776 3.21632 12.8306 3.11442 12.7456C3.01252 12.6606 2.94742 12.5435 2.93146 12.4164L2.01675 5.12046C2.00439 5.02147 2.02248 4.92122 2.06887 4.83156C2.11527 4.7419 2.18804 4.66657 2.27859 4.61445C2.36914 4.56234 2.47369 4.53561 2.57991 4.53744C2.68612 4.53927 2.78956 4.56957 2.87802 4.62476Z"/>
</svg>
