<svg width="16" height="16" viewBox="0 0 16 16" fill="none" xmlns="http://www.w3.org/2000/svg">
<path d="M7.99999 12.6666C10.5773 12.6666 12.6667 10.5773 12.6667 7.99996C12.6667 5.42263 10.5773 3.33329 7.99999 3.33329C5.42266 3.33329 3.33332 5.42263 3.33332 7.99996C3.33332 10.5773 5.42266 12.6666 7.99999 12.6666Z" fill="black"/>
<path d="M7.99999 15.3066C7.63332 15.3066 7.33332 15.0333 7.33332 14.6666V14.6133C7.33332 14.2466 7.63332 13.9466 7.99999 13.9466C8.36666 13.9466 8.66666 14.2466 8.66666 14.6133C8.66666 14.98 8.36666 15.3066 7.99999 15.3066ZM12.76 13.4266C12.5867 13.4266 12.42 13.36 12.2867 13.2333L12.2 13.1466C11.94 12.8866 11.94 12.4666 12.2 12.2066C12.46 11.9466 12.88 11.9466 13.14 12.2066L13.2267 12.2933C13.4867 12.5533 13.4867 12.9733 13.2267 13.2333C13.1 13.36 12.9333 13.4266 12.76 13.4266ZM3.23999 13.4266C3.06666 13.4266 2.89999 13.36 2.76666 13.2333C2.50666 12.9733 2.50666 12.5533 2.76666 12.2933L2.85332 12.2066C3.11332 11.9466 3.53332 11.9466 3.79332 12.2066C4.05332 12.4666 4.05332 12.8866 3.79332 13.1466L3.70666 13.2333C3.57999 13.36 3.40666 13.4266 3.23999 13.4266ZM14.6667 8.66663H14.6133C14.2467 8.66663 13.9467 8.36663 13.9467 7.99996C13.9467 7.63329 14.2467 7.33329 14.6133 7.33329C14.98 7.33329 15.3067 7.63329 15.3067 7.99996C15.3067 8.36663 15.0333 8.66663 14.6667 8.66663ZM1.38666 8.66663H1.33332C0.966657 8.66663 0.666656 8.36663 0.666656 7.99996C0.666656 7.63329 0.966657 7.33329 1.33332 7.33329C1.69999 7.33329 2.02666 7.63329 2.02666 7.99996C2.02666 8.36663 1.75332 8.66663 1.38666 8.66663ZM12.6733 3.99329C12.5 3.99329 12.3333 3.92663 12.2 3.79996C11.94 3.53996 11.94 3.11996 12.2 2.85996L12.2867 2.77329C12.5467 2.51329 12.9667 2.51329 13.2267 2.77329C13.4867 3.03329 13.4867 3.45329 13.2267 3.71329L13.14 3.79996C13.0133 3.92663 12.8467 3.99329 12.6733 3.99329ZM3.32666 3.99329C3.15332 3.99329 2.98666 3.92663 2.85332 3.79996L2.76666 3.70663C2.50666 3.44663 2.50666 3.02663 2.76666 2.76663C3.02666 2.50663 3.44666 2.50663 3.70666 2.76663L3.79332 2.85329C4.05332 3.11329 4.05332 3.53329 3.79332 3.79329C3.66666 3.92663 3.49332 3.99329 3.32666 3.99329ZM7.99999 2.02663C7.63332 2.02663 7.33332 1.75329 7.33332 1.38663V1.33329C7.33332 0.966626 7.63332 0.666626 7.99999 0.666626C8.36666 0.666626 8.66666 0.966626 8.66666 1.33329C8.66666 1.69996 8.36666 2.02663 7.99999 2.02663Z" fill="black"/>
</svg>
