<svg width="16" height="16" viewBox="0 0 16 16" xmlns="http://www.w3.org/2000/svg">
<path d="M11.2 6.00004H8.49999V8.96004L9.87999 7.58004C9.97999 7.48004 10.1067 7.43337 10.2333 7.43337C10.36 7.43337 10.4867 7.48004 10.5867 7.58004C10.78 7.77337 10.78 8.09337 10.5867 8.28671L8.35333 10.52C8.15999 10.7134 7.83999 10.7134 7.64666 10.52L5.41333 8.28671C5.21999 8.09337 5.21999 7.77337 5.41333 7.58004C5.60666 7.38671 5.92666 7.38671 6.11999 7.58004L7.49999 8.96004V6.00004H4.79999C2.66666 6.00004 1.33333 7.33337 1.33333 9.46671V11.1934C1.33333 13.3334 2.66666 14.6667 4.79999 14.6667H11.1933C13.3267 14.6667 14.66 13.3334 14.66 11.2V9.46671C14.6667 7.33337 13.3333 6.00004 11.2 6.00004Z"/>
<path d="M8.49999 1.83337C8.49999 1.56004 8.27333 1.33337 7.99999 1.33337C7.72666 1.33337 7.49999 1.56004 7.49999 1.83337V6.00004H8.49999L8.49999 1.83337Z"/>
</svg>
