<svg width="16" height="16" viewBox="0 0 16 16" xmlns="http://www.w3.org/2000/svg">
<path d="M14 14.6666H2C1.72667 14.6666 1.5 14.4399 1.5 14.1666C1.5 13.8933 1.72667 13.6666 2 13.6666H14C14.2733 13.6666 14.5 13.8933 14.5 14.1666C14.5 14.4399 14.2733 14.6666 14 14.6666Z"/>
<path d="M12.68 2.31994C11.3867 1.02661 10.12 0.993275 8.79333 2.31994L7.98667 3.12661C7.92 3.19328 7.89333 3.29994 7.92 3.39328C8.42667 5.15994 9.84 6.57328 11.6067 7.07994C11.6333 7.08661 11.66 7.09328 11.6867 7.09328C11.76 7.09328 11.8267 7.06661 11.88 7.01328L12.68 6.20661C13.34 5.55328 13.66 4.91994 13.66 4.27994C13.6667 3.61994 13.3467 2.97994 12.68 2.31994Z"/>
<path d="M10.4067 7.68661C10.2133 7.59328 10.0267 7.49994 9.84667 7.39328C9.7 7.30661 9.56 7.21328 9.42 7.11328C9.30667 7.03994 9.17333 6.93328 9.04667 6.82661C9.03333 6.81994 8.98667 6.77994 8.93333 6.72661C8.71333 6.53994 8.46667 6.29994 8.24667 6.03328C8.22667 6.01994 8.19333 5.97328 8.14667 5.91328C8.08 5.83328 7.96667 5.69994 7.86667 5.54661C7.78667 5.44661 7.69333 5.29994 7.60667 5.15328C7.5 4.97328 7.40667 4.79328 7.31333 4.60661C7.19096 4.34438 6.84679 4.26648 6.64217 4.4711L2.89333 8.21994C2.80667 8.30661 2.72667 8.47328 2.70667 8.58661L2.34667 11.1399C2.28 11.5933 2.40667 12.0199 2.68667 12.3066C2.92667 12.5399 3.26 12.6666 3.62 12.6666C3.7 12.6666 3.78 12.6599 3.86 12.6466L6.42 12.2866C6.54 12.2666 6.70667 12.1866 6.78667 12.0999L10.5417 8.34492C10.7422 8.14439 10.6669 7.79937 10.4067 7.68661Z"/>
</svg>
