<svg width="16" height="16" viewBox="0 0 16 16" xmlns="http://www.w3.org/2000/svg">
<path d="M6.40357 8.4865C6.40357 8.8953 6.56597 9.28735 6.85503 9.57641C7.1441 9.86548 7.53615 10.0279 7.94495 10.0279C8.35375 10.0279 8.7458 9.86548 9.03486 9.57641C9.32393 9.28735 9.48632 8.8953 9.48632 8.4865C9.48632 8.0777 9.32393 7.68565 9.03486 7.39658C8.7458 7.10752 8.35375 6.94512 7.94495 6.94512C7.53615 6.94512 7.1441 7.10752 6.85503 7.39658C6.56597 7.68565 6.40357 8.0777 6.40357 8.4865ZM13.9205 8.13143C12.6159 5.38311 10.6437 4 8 4C5.35489 4 3.38413 5.38311 2.07947 8.13281C2.02714 8.24362 2 8.36464 2 8.48719C2 8.60973 2.02714 8.73075 2.07947 8.84156C3.38413 11.5899 5.35627 12.973 8 12.973C10.6451 12.973 12.6159 11.5899 13.9205 8.84019C14.0265 8.61724 14.0265 8.35851 13.9205 8.13143ZM7.94495 10.9087C6.60726 10.9087 5.52279 9.82419 5.52279 8.4865C5.52279 7.14881 6.60726 6.06434 7.94495 6.06434C9.28264 6.06434 10.3671 7.14881 10.3671 8.4865C10.3671 9.82419 9.28264 10.9087 7.94495 10.9087Z"/>
</svg>
