<svg xmlns="http://www.w3.org/2000/svg" width="16" height="16" viewBox="0 0 16 16" >
<path d="M7.94496 10.256C8.35376 10.256 8.74581 10.0937 9.03488 9.80459C9.32394 9.51553 9.48633 9.12347 9.48633 8.71467C9.48633 8.66953 9.48427 8.62481 9.48042 8.58063L7.81091 10.2501C7.85509 10.254 7.89968 10.256 7.94496 10.256ZM13.0469 3.94687L12.459 3.35949C12.4383 3.33886 12.4103 3.32727 12.3812 3.32727C12.352 3.32727 12.324 3.33886 12.3033 3.35949L10.7988 4.8644C9.96889 4.44024 9.03594 4.22817 8.00001 4.22817C5.3549 4.22817 3.38138 5.60577 2.07947 8.36098C2.02714 8.47179 2 8.59282 2 8.71536C2 8.83791 2.02714 8.95893 2.07947 9.06974C2.59969 10.1655 3.2261 11.0438 3.95871 11.7045L2.5028 13.1599C2.48217 13.1805 2.47058 13.2085 2.47058 13.2377C2.47058 13.2669 2.48217 13.2949 2.5028 13.3155L3.09031 13.9031C3.11096 13.9237 3.13895 13.9353 3.16814 13.9353C3.19732 13.9353 3.22532 13.9237 3.24596 13.9031L13.0469 4.10266C13.0571 4.09243 13.0653 4.08029 13.0708 4.06692C13.0764 4.05356 13.0792 4.03923 13.0792 4.02476C13.0792 4.01029 13.0764 3.99597 13.0708 3.9826C13.0653 3.96923 13.0571 3.95709 13.0469 3.94687ZM5.52279 8.71467C5.52276 8.29631 5.63108 7.88507 5.83722 7.52101C6.04336 7.15695 6.34027 6.85249 6.69905 6.6373C7.05782 6.4221 7.46622 6.3035 7.88446 6.29305C8.30269 6.2826 8.7165 6.38065 9.08558 6.57767L8.41645 7.24679C8.1466 7.16038 7.85817 7.14998 7.58279 7.21671C7.30741 7.28345 7.05574 7.42474 6.85538 7.6251C6.65503 7.82546 6.51373 8.07713 6.447 8.35251C6.38026 8.62788 6.39067 8.91632 6.47707 9.18617L5.80795 9.85529C5.62018 9.50446 5.52221 9.11259 5.52279 8.71467Z"/>
<path d="M13.9205 8.35962C13.4361 7.33938 12.8595 6.50745 12.1907 5.86383L10.207 7.84766C10.3743 8.28477 10.4113 8.76095 10.3138 9.21867C10.2162 9.67639 9.98817 10.0961 9.65724 10.427C9.32631 10.7579 8.90664 10.9859 8.44892 11.0835C7.9912 11.1811 7.51502 11.144 7.07791 10.9768L5.39533 12.6594C6.17593 13.0206 7.04414 13.2012 7.99998 13.2012C10.6451 13.2012 12.6186 11.8236 13.9205 9.06838C13.9729 8.95757 14 8.83655 14 8.714C14 8.59145 13.9729 8.47043 13.9205 8.35962Z" />
<path d="M7.94496 10.256C8.35376 10.256 8.74581 10.0937 9.03488 9.80459C9.32394 9.51553 9.48633 9.12347 9.48633 8.71467C9.48633 8.66953 9.48427 8.62481 9.48042 8.58063L7.81091 10.2501C7.85509 10.254 7.89968 10.256 7.94496 10.256ZM13.0469 3.94687L12.459 3.35949C12.4383 3.33886 12.4103 3.32727 12.3812 3.32727C12.352 3.32727 12.324 3.33886 12.3033 3.35949L10.7988 4.8644C9.96889 4.44024 9.03594 4.22817 8.00001 4.22817C5.3549 4.22817 3.38138 5.60577 2.07947 8.36098C2.02714 8.47179 2 8.59282 2 8.71536C2 8.83791 2.02714 8.95893 2.07947 9.06974C2.59969 10.1655 3.2261 11.0438 3.95871 11.7045L2.5028 13.1599C2.48217 13.1805 2.47058 13.2085 2.47058 13.2377C2.47058 13.2669 2.48217 13.2949 2.5028 13.3155L3.09031 13.9031C3.11096 13.9237 3.13895 13.9353 3.16814 13.9353C3.19732 13.9353 3.22532 13.9237 3.24596 13.9031L13.0469 4.10266C13.0571 4.09243 13.0653 4.08029 13.0708 4.06692C13.0764 4.05356 13.0792 4.03923 13.0792 4.02476C13.0792 4.01029 13.0764 3.99597 13.0708 3.9826C13.0653 3.96923 13.0571 3.95709 13.0469 3.94687ZM5.52279 8.71467C5.52276 8.29631 5.63108 7.88507 5.83722 7.52101C6.04336 7.15695 6.34027 6.85249 6.69905 6.6373C7.05782 6.4221 7.46622 6.3035 7.88446 6.29305C8.30269 6.2826 8.7165 6.38065 9.08558 6.57767L8.41645 7.24679C8.1466 7.16038 7.85817 7.14998 7.58279 7.21671C7.30741 7.28345 7.05574 7.42474 6.85538 7.6251C6.65503 7.82546 6.51373 8.07713 6.447 8.35251C6.38026 8.62788 6.39067 8.91632 6.47707 9.18617L5.80795 9.85529C5.62018 9.50446 5.52221 9.11259 5.52279 8.71467Z" />
<path d="M13.9205 8.35962C13.4361 7.33938 12.8595 6.50745 12.1907 5.86383L10.207 7.84766C10.3743 8.28477 10.4113 8.76095 10.3138 9.21867C10.2162 9.67639 9.98817 10.0961 9.65724 10.427C9.32631 10.7579 8.90664 10.9859 8.44892 11.0835C7.9912 11.1811 7.51502 11.144 7.07791 10.9768L5.39533 12.6594C6.17593 13.0206 7.04414 13.2012 7.99998 13.2012C10.6451 13.2012 12.6186 11.8236 13.9205 9.06838C13.9729 8.95757 14 8.83655 14 8.714C14 8.59145 13.9729 8.47043 13.9205 8.35962Z"/>
</svg>