<svg width="16" height="16" viewBox="0 0 16 16" xmlns="http://www.w3.org/2000/svg">
<path d="M12.5753 7.43064C12.2995 6.84459 11.8986 6.31859 11.3977 5.88554L10.9844 5.52743C10.9703 5.5156 10.9534 5.50721 10.9352 5.50299C10.9169 5.49877 10.8978 5.49884 10.8796 5.50321C10.8613 5.50758 10.8445 5.51611 10.8306 5.52805C10.8167 5.53999 10.8061 5.55497 10.7997 5.57169L10.615 6.07197C10.5 6.38582 10.2883 6.70637 9.98863 7.02156C9.96874 7.04168 9.94602 7.04705 9.93039 7.04839C9.91477 7.04973 9.89062 7.04705 9.86931 7.02827C9.84942 7.01217 9.83948 6.98803 9.8409 6.96389C9.89346 6.15647 9.63778 5.24577 9.07812 4.2546C8.61505 3.43108 7.97159 2.78863 7.16761 2.34066L6.58096 2.01474C6.50426 1.97182 6.40625 2.02815 6.41051 2.11265L6.44176 2.75644C6.46306 3.19636 6.40909 3.58532 6.28125 3.90856C6.125 4.30422 5.90057 4.67172 5.61363 5.00166C5.41395 5.23097 5.18763 5.43837 4.93892 5.61997C4.33992 6.05476 3.85286 6.61186 3.5142 7.24957C3.17638 7.89285 3.00041 8.60108 3 9.3191C3 9.95216 3.1321 10.5651 3.39347 11.1432C3.64583 11.6997 4.01003 12.2049 4.46591 12.6306C4.92613 13.0598 5.46022 13.3978 6.05539 13.6325C6.67187 13.8766 7.32528 14 7.99999 14C8.67471 14 9.32812 13.8766 9.9446 13.6338C10.5383 13.4005 11.0782 13.0602 11.5341 12.6319C11.9943 12.2027 12.3551 11.7011 12.6065 11.1445C12.8675 10.568 13.0014 9.94738 13 9.32044C13 8.66591 12.8579 8.03017 12.5753 7.43064Z"/>
</svg>
