<svg width="23" height="23" viewBox="0 0 23 23" fill="none" xmlns="http://www.w3.org/2000/svg">
<path fill-rule="evenodd" clip-rule="evenodd" d="M11.2332 1.84082C5.93284 1.84082 1.63477 6.21138 1.63477 11.6032C1.63477 15.9165 4.38502 19.5759 8.19878 20.8668C8.67848 20.9571 8.8546 20.655 8.8546 20.3971C8.8546 20.1643 8.8457 19.3953 8.84156 18.5796C6.17126 19.1701 5.6078 17.4277 5.6078 17.4277C5.17117 16.2993 4.54206 15.9993 4.54206 15.9993C3.67119 15.3933 4.6077 15.4058 4.6077 15.4058C5.57156 15.4745 6.07907 16.4118 6.07907 16.4118C6.93516 17.9043 8.32451 17.4728 8.87224 17.2234C8.95839 16.5926 9.20714 16.1616 9.48164 15.9179C7.34969 15.6711 5.10854 14.834 5.10854 11.0933C5.10854 10.0274 5.4835 9.15655 6.09751 8.47288C5.99785 8.22683 5.66931 7.23406 6.19049 5.88934C6.19049 5.88934 6.99651 5.62697 8.83076 6.89004C9.5964 6.67373 10.4175 6.56526 11.2332 6.56154C12.0489 6.56526 12.8707 6.67373 13.6378 6.89004C15.4698 5.62697 16.2747 5.88934 16.2747 5.88934C16.7972 7.23406 16.4685 8.22683 16.3688 8.47288C16.9842 9.15655 17.3567 10.0274 17.3567 11.0933C17.3567 14.8429 15.1112 15.6685 12.9739 15.9102C13.3181 16.2131 13.6249 16.8072 13.6249 17.7181C13.6249 19.0241 13.6138 20.0754 13.6138 20.3971C13.6138 20.6569 13.7866 20.9613 14.2731 20.8655C18.0848 19.5731 20.8315 15.915 20.8315 11.6032C20.8315 6.21138 16.5341 1.84082 11.2332 1.84082Z" fill="#21252D"/>
<path fill-rule="evenodd" clip-rule="evenodd" d="M5.27019 15.8575C5.24905 15.9061 5.17403 15.9205 5.10568 15.8872C5.03606 15.8554 4.99696 15.7893 5.01953 15.7406C5.0402 15.6906 5.11538 15.6769 5.18484 15.71C5.25462 15.7421 5.29435 15.8088 5.27019 15.8575Z" fill="#21252D"/>
<path fill-rule="evenodd" clip-rule="evenodd" d="M5.65898 16.2985C5.6132 16.3417 5.52371 16.3216 5.46299 16.2534C5.40021 16.1853 5.38845 16.0943 5.43486 16.0505C5.48207 16.0073 5.56885 16.0275 5.6318 16.0956C5.69458 16.1645 5.70682 16.2548 5.65898 16.2985Z" fill="#21252D"/>
<path fill-rule="evenodd" clip-rule="evenodd" d="M6.03743 16.8608C5.97862 16.9023 5.88245 16.8633 5.82301 16.7765C5.7642 16.6897 5.7642 16.5856 5.82428 16.5439C5.88389 16.5022 5.97862 16.5397 6.03886 16.6259C6.09751 16.714 6.09751 16.8182 6.03743 16.8608Z" fill="#21252D"/>
<path fill-rule="evenodd" clip-rule="evenodd" d="M6.55591 17.4039C6.5033 17.463 6.39124 17.4471 6.30923 17.3666C6.2253 17.2879 6.20194 17.1762 6.25471 17.1172C6.30796 17.058 6.42065 17.0746 6.5033 17.1545C6.58659 17.2331 6.61202 17.3456 6.55591 17.4039Z" fill="#21252D"/>
<path fill-rule="evenodd" clip-rule="evenodd" d="M7.27117 17.7193C7.24797 17.7958 7.14004 17.8306 7.03132 17.7981C6.92276 17.7646 6.85171 17.6751 6.87365 17.5978C6.89622 17.5208 7.00462 17.4846 7.11413 17.5194C7.22253 17.5527 7.29374 17.6416 7.27117 17.7193Z" fill="#21252D"/>
<path fill-rule="evenodd" clip-rule="evenodd" d="M8.05669 17.7779C8.05939 17.8584 7.9672 17.9251 7.85308 17.9264C7.73832 17.9292 7.64549 17.864 7.64422 17.7848C7.64422 17.7035 7.73434 17.6374 7.8491 17.6354C7.96322 17.6332 8.05669 17.6978 8.05669 17.7779Z" fill="#21252D"/>
<path fill-rule="evenodd" clip-rule="evenodd" d="M8.78768 17.6513C8.80135 17.7299 8.72204 17.8105 8.60871 17.8319C8.49729 17.8527 8.39413 17.8042 8.37998 17.7263C8.36615 17.6458 8.4469 17.5651 8.55816 17.5443C8.67165 17.5242 8.77322 17.5714 8.78768 17.6513Z" fill="#21252D"/>
</svg>
