<svg width="16" height="16" viewBox="0 0 16 16" xmlns="http://www.w3.org/2000/svg">
<path d="M14.6667 5.68004V2.65337C14.6667 1.71337 14.24 1.33337 13.18 1.33337H10.4867C9.42668 1.33337 9.00001 1.71337 9.00001 2.65337V5.67337C9.00001 6.62004 9.42668 6.99337 10.4867 6.99337H13.18C14.24 7.00004 14.6667 6.62004 14.6667 5.68004Z"/>
<path d="M14.6667 13.18V10.4867C14.6667 9.42671 14.24 9.00004 13.18 9.00004H10.4867C9.42668 9.00004 9.00001 9.42671 9.00001 10.4867V13.18C9.00001 14.24 9.42668 14.6667 10.4867 14.6667H13.18C14.24 14.6667 14.6667 14.24 14.6667 13.18Z"/>
<path d="M7.00001 5.68004V2.65337C7.00001 1.71337 6.57334 1.33337 5.51334 1.33337H2.82001C1.76001 1.33337 1.33334 1.71337 1.33334 2.65337V5.67337C1.33334 6.62004 1.76001 6.99337 2.82001 6.99337H5.51334C6.57334 7.00004 7.00001 6.62004 7.00001 5.68004Z"/>
<path d="M7.00001 13.18V10.4867C7.00001 9.42671 6.57334 9.00004 5.51334 9.00004H2.82001C1.76001 9.00004 1.33334 9.42671 1.33334 10.4867V13.18C1.33334 14.24 1.76001 14.6667 2.82001 14.6667H5.51334C6.57334 14.6667 7.00001 14.24 7.00001 13.18Z"/>
</svg>
