<svg width="16" height="16" viewBox="0 0 16 16" xmlns="http://www.w3.org/2000/svg">
<path fill-rule="evenodd" clip-rule="evenodd" d="M5.32417 4.45507C5.18956 4.45507 5.06225 4.51626 4.97816 4.62137L2.27528 7.99997H6.22756C6.47229 7.99997 6.67068 8.19836 6.67068 8.44308C6.67068 9.17725 7.26584 9.77242 8.00001 9.77242C8.73419 9.77242 9.32935 9.17725 9.32935 8.44308C9.32935 8.19836 9.52774 7.99997 9.77246 7.99997H13.7247L11.0219 4.62137C10.9378 4.51626 10.8105 4.45507 10.6759 4.45507H5.32417ZM4.28613 4.06775C4.5384 3.75242 4.92034 3.56885 5.32417 3.56885H10.6759C11.0797 3.56885 11.4616 3.75242 11.7139 4.06775L14.9927 8.16627C15.0674 8.25968 15.1012 8.37934 15.0864 8.49804L14.7403 11.2666C14.6572 11.9319 14.0917 12.4311 13.4212 12.4311H2.57879C1.90837 12.4311 1.34287 11.9319 1.25972 11.2666L0.913641 8.49804C0.898803 8.37934 0.932589 8.25968 1.00732 8.16627L4.28613 4.06775Z"/>
</svg>
