<svg width="16" height="16" viewBox="0 0 16 16" fill="none" xmlns="http://www.w3.org/2000/svg">
<path d="M14.3533 10.62C14.2467 10.44 13.9467 10.16 13.2 10.2933C12.7867 10.3667 12.3667 10.4 11.9467 10.38C10.3933 10.3133 8.98666 9.6 8.00666 8.5C7.13999 7.53333 6.60665 6.27333 6.59999 4.91333C6.59999 4.15333 6.74665 3.42 7.04665 2.72666C7.33999 2.05333 7.13332 1.7 6.98665 1.55333C6.83332 1.4 6.47332 1.18666 5.76665 1.48C3.03999 2.62666 1.35332 5.36 1.55332 8.28666C1.75332 11.04 3.68666 13.3933 6.24665 14.28C6.85999 14.4933 7.50666 14.62 8.17332 14.6467C8.27999 14.6533 8.38665 14.66 8.49332 14.66C10.7267 14.66 12.82 13.6067 14.14 11.8133C14.5867 11.1933 14.4667 10.8 14.3533 10.62Z" fill="black"/>
</svg>
