<svg width="22" height="23" viewBox="0 0 22 23" fill="none" xmlns="http://www.w3.org/2000/svg">
<path fill-rule="evenodd" clip-rule="evenodd" d="M0 11.5C0 5.42487 4.92487 0.5 11 0.5C17.0751 0.5 22 5.42487 22 11.5C22 17.5751 17.0751 22.5 11 22.5C4.92487 22.5 0 17.5751 0 11.5ZM7.77358 9.61068H5.28074V17.1006H7.77358V9.61068ZM7.93777 7.29374C7.92159 6.55935 7.39642 6 6.54364 6C5.69085 6 5.13333 6.55935 5.13333 7.29374C5.13333 8.01291 5.67438 8.58837 6.51128 8.58837H6.52721C7.39642 8.58837 7.93777 8.01291 7.93777 7.29374ZM16.7637 12.8061C16.7637 10.5055 15.5339 9.4348 13.8935 9.4348C12.57 9.4348 11.9774 10.1618 11.6466 10.6718V9.61088H9.15342C9.18628 10.3137 9.15342 17.1008 9.15342 17.1008H11.6466V12.9178C11.6466 12.694 11.6627 12.4707 11.7287 12.3104C11.9088 11.8632 12.319 11.4002 13.0077 11.4002C13.9101 11.4002 14.2709 12.087 14.2709 13.0935V17.1006H16.7636L16.7637 12.8061Z" fill="#3C4550"/>
</svg>
