<svg width="16" height="16" viewBox="0 0 16 16" xmlns="http://www.w3.org/2000/svg">
<path d="M2 3.78552C2 3.16284 2 2.85149 2.16392 2.63659C2.20726 2.57978 2.258 2.52903 2.31481 2.4857C2.52972 2.32178 2.84106 2.32178 3.46374 2.32178H12.5363C13.1589 2.32178 13.4703 2.32178 13.6852 2.4857C13.742 2.52903 13.7927 2.57978 13.8361 2.63659C14 2.85149 14 3.16284 14 3.78552C14 4.40821 14 4.71955 13.8361 4.93445C13.7927 4.99126 13.742 5.04201 13.6852 5.08534C13.4703 5.24927 13.1589 5.24927 12.5363 5.24927H3.46375C2.84106 5.24927 2.52972 5.24927 2.31481 5.08534C2.258 5.04201 2.20726 4.99126 2.16392 4.93445C2 4.71955 2 4.40821 2 3.78552Z"/>
<path d="M2 7.99994C2 7.37726 2 7.06591 2.16392 6.85101C2.20726 6.7942 2.258 6.74345 2.31481 6.70012C2.52972 6.5362 2.84106 6.5362 3.46374 6.5362H12.5363C13.1589 6.5362 13.4703 6.5362 13.6852 6.70012C13.742 6.74345 13.7927 6.7942 13.8361 6.85101C14 7.06591 14 7.37726 14 7.99994C14 8.62263 14 8.93397 13.8361 9.14887C13.7927 9.20568 13.742 9.25643 13.6852 9.29976C13.4703 9.46369 13.1589 9.46369 12.5363 9.46369H3.46375C2.84106 9.46369 2.52972 9.46369 2.31481 9.29976C2.258 9.25643 2.20726 9.20568 2.16392 9.14887C2 8.93397 2 8.62263 2 7.99994Z"/>
<path d="M2 12.2144C2 11.5917 2 11.2803 2.16392 11.0654C2.20726 11.0086 2.258 10.9579 2.31481 10.9145C2.52972 10.7506 2.84106 10.7506 3.46374 10.7506H12.5363C13.1589 10.7506 13.4703 10.7506 13.6852 10.9145C13.742 10.9579 13.7927 11.0086 13.8361 11.0654C14 11.2803 14 11.5917 14 12.2144C14 12.837 14 13.1484 13.8361 13.3633C13.7927 13.4201 13.742 13.4709 13.6852 13.5142C13.4703 13.6781 13.1589 13.6781 12.5363 13.6781H3.46375C2.84106 13.6781 2.52972 13.6781 2.31481 13.5142C2.258 13.4709 2.20726 13.4201 2.16392 13.3633C2 13.1484 2 12.837 2 12.2144Z"/>
</svg>
