<svg width="16" height="16" viewBox="0 0 16 16" xmlns="http://www.w3.org/2000/svg">
<path d="M13.2246 8.90733H2.77536C1.78334 8.90733 1.38654 9.29444 1.38654 10.2562V12.6998C1.38654 13.6615 1.78334 14.0487 2.77536 14.0487H13.2246C14.2166 14.0487 14.6134 13.6615 14.6134 12.6998V10.2562C14.6134 9.29444 14.2166 8.90733 13.2246 8.90733Z"/>
<path d="M13.2246 1.95142H2.77536C1.78334 1.95142 1.38654 2.33853 1.38654 3.30026V5.7439C1.38654 6.70563 1.78334 7.09275 2.77536 7.09275H13.2246C14.2166 7.09275 14.6134 6.70563 14.6134 5.7439V3.30026C14.6134 2.33853 14.2166 1.95142 13.2246 1.95142Z"/>
</svg>
