<svg width="16" height="16" viewBox="0 0 16 16" xmlns="http://www.w3.org/2000/svg">
<path d="M11.7535 6.92358L11.3782 6.94667V4.89397C11.3782 2.8564 9.8629 1.1991 7.99998 1.1991C6.13707 1.1991 4.62182 2.8564 4.62182 4.89397V6.94667L4.24646 6.92358C3.41717 6.92358 2.74506 7.65871 2.74506 8.56575V12.6712C2.74506 13.5779 3.41717 14.3133 4.24646 14.3133H11.7535C12.5828 14.3133 13.2549 13.5779 13.2549 12.6712V8.56575C13.2549 7.68308 12.5816 6.92358 11.7535 6.92358ZM6.12322 4.89397C6.12322 3.7619 6.96542 2.84126 7.99998 2.84126C9.03455 2.84126 9.87675 3.7619 9.87675 4.89397V6.94667H6.12322V4.89397Z"/>
</svg>
