<svg width="16" height="16" viewBox="0 0 16 16" xmlns="http://www.w3.org/2000/svg">
<path d="M5.08667 2.38002C5.20626 2.31479 5.33334 2.41514 5.33334 2.55136V11.5733C5.33334 11.7312 5.22527 11.8644 5.08667 11.94L3.52001 12.8334C2.42667 13.46 1.52667 12.94 1.52667 11.6734V5.18669C1.52667 4.76669 1.82667 4.24669 2.20001 4.03335L5.08667 2.38002Z"/>
<path d="M9.7219 4.02229C9.89223 4.10665 10 4.28028 10 4.47036V12.8704C10 13.2389 9.61496 13.4808 9.28299 13.3208L6.78299 12.1164C6.60999 12.033 6.50001 11.8579 6.50001 11.6659V3.23226C6.50001 2.8614 6.88957 2.61961 7.2219 2.7842L9.7219 4.02229Z"/>
<path d="M14.6667 4.32669V10.8134C14.6667 11.2334 14.3667 11.7534 13.9933 11.9667L11.9153 13.1576C11.582 13.3487 11.1667 13.108 11.1667 12.7238V4.31701C11.1667 4.13749 11.2629 3.97176 11.4188 3.88277L12.6733 3.16669C13.7667 2.54002 14.6667 3.06002 14.6667 4.32669Z"/>
</svg>
