<svg width="16" height="16" viewBox="0 0 16 16" xmlns="http://www.w3.org/2000/svg">
<path d="M8 10.6241C9.44956 10.6241 10.6241 9.44955 10.6241 7.99999V3.62645C10.6241 2.17689 9.44956 1.00232 8 1.00232C6.55045 1.00232 5.37588 2.17689 5.37588 3.62645V7.99999C5.37588 9.44873 6.52667 10.6241 8 10.6241ZM12.1549 6.25058C11.7913 6.25058 11.4988 6.54306 11.4988 6.88201V7.99999C11.4988 10.0044 9.80491 11.6191 7.77313 11.4906C5.96685 11.3767 4.50117 9.67042 4.50117 7.86059V6.88201C4.50117 6.54306 4.20732 6.25058 3.84513 6.25058C3.48295 6.25058 3.1891 6.54306 3.1891 6.88201V7.76082C3.1891 10.2116 4.9377 12.3968 7.34397 12.7275V13.6856H6.25059C5.75337 13.6856 5.35291 14.1005 5.37697 14.6032C5.38763 14.8282 5.58909 14.9977 5.81323 14.9977H10.1868C10.4115 14.9977 10.6124 14.8278 10.623 14.6032C10.646 14.1011 10.2469 13.6856 9.74942 13.6856H8.65604V12.7625C10.9986 12.4419 12.8109 10.43 12.8109 7.99999V6.88201C12.8109 6.54306 12.5184 6.25058 12.1549 6.25058Z"/>
</svg>
