<svg width="16" height="16" viewBox="0 0 16 16" xmlns="http://www.w3.org/2000/svg">
<path d="M10.9467 5.30003C12.5733 6.9267 12.5733 9.5667 10.9467 11.1934C9.32 12.82 6.68 12.82 5.05333 11.1934C3.42667 9.5667 3.42667 6.9267 5.05333 5.30003C6.68 3.67336 9.32 3.67336 10.9467 5.30003Z"/>
<path d="M5.5 14.9267C5.44 14.9267 5.37333 14.9134 5.31333 14.8934C3.81333 14.2934 2.6 13.2334 1.78667 11.8334C1 10.4667 0.686667 8.92003 0.893334 7.3467C0.926667 7.07337 1.18667 6.88003 1.45333 6.91336C1.72667 6.9467 1.92 7.20003 1.88667 7.47336C1.71333 8.8267 1.98 10.16 2.65333 11.3334C3.34667 12.5334 4.39333 13.4467 5.68 13.96C5.93333 14.0667 6.06 14.3534 5.96 14.6134C5.88667 14.8067 5.69333 14.9267 5.5 14.9267Z"/>
<path d="M3.9 3.4867C3.75333 3.4867 3.60667 3.42003 3.50667 3.29336C3.33333 3.08003 3.37333 2.7667 3.59333 2.59336C4.86 1.60003 6.38667 1.07336 8 1.07336C9.57333 1.07336 11.0733 1.58003 12.3333 2.54003C12.5533 2.7067 12.5933 3.02003 12.4267 3.24003C12.26 3.46003 11.9467 3.50003 11.7267 3.33336C10.64 2.5067 9.35333 2.07336 8 2.07336C6.61333 2.07336 5.3 2.5267 4.20667 3.38003C4.11333 3.45336 4.00667 3.4867 3.9 3.4867Z"/>
<path d="M10.5 14.9267C10.3 14.9267 10.1133 14.8067 10.0333 14.6134C9.93333 14.36 10.0533 14.0667 10.3133 13.96C11.6 13.44 12.6467 12.5334 13.34 11.3334C14.02 10.16 14.2867 8.8267 14.1067 7.48003C14.0733 7.2067 14.2667 6.95336 14.54 6.92003C14.8067 6.8867 15.0667 7.08003 15.1 7.35336C15.3 8.92003 14.9933 10.4734 14.2067 11.84C13.4 13.24 12.18 14.2934 10.68 14.9C10.6267 14.9134 10.5667 14.9267 10.5 14.9267Z"/>
</svg>
