<svg width="16" height="16" viewBox="0 0 16 16" xmlns="http://www.w3.org/2000/svg">
<path d="M12.8933 9.66004L12.2267 8.55337C12.0867 8.30671 11.96 7.84004 11.96 7.56671V5.88004C11.96 4.31337 11.04 2.96004 9.71333 2.32671C9.36666 1.71337 8.72666 1.33337 7.99333 1.33337C7.26666 1.33337 6.61333 1.72671 6.26666 2.34671C4.96666 2.99337 4.06666 4.33337 4.06666 5.88004V7.56671C4.06666 7.84004 3.94 8.30671 3.8 8.54671L3.12666 9.66004C2.86 10.1067 2.8 10.6 2.96666 11.0534C3.12666 11.5 3.50666 11.8467 4 12.0134C5.29333 12.4534 6.65333 12.6667 8.01333 12.6667C9.37333 12.6667 10.7333 12.4534 12.0267 12.02C12.4933 11.8667 12.8533 11.5134 13.0267 11.0534C13.2 10.5934 13.1533 10.0867 12.8933 9.66004Z"/>
<path d="M9.88666 13.34C9.60666 14.1134 8.86666 14.6667 8 14.6667C7.47333 14.6667 6.95333 14.4534 6.58666 14.0734C6.37333 13.8734 6.21333 13.6067 6.12 13.3334C6.20666 13.3467 6.29333 13.3534 6.38666 13.3667C6.54 13.3867 6.7 13.4067 6.86 13.42C7.24 13.4534 7.62666 13.4734 8.01333 13.4734C8.39333 13.4734 8.77333 13.4534 9.14666 13.42C9.28666 13.4067 9.42666 13.4 9.56 13.38C9.66666 13.3667 9.77333 13.3534 9.88666 13.34Z"/>
</svg>
