<svg width="16" height="16" viewBox="0 0 16 16" xmlns="http://www.w3.org/2000/svg">
<path d="M12.8867 3.78673L8.70666 1.53339C8.26666 1.29339 7.73333 1.29339 7.29333 1.53339L3.11333 3.78673C2.80666 3.95339 2.61999 4.27339 2.61999 4.64006C2.61999 5.00006 2.80666 5.32673 3.11333 5.49339L7.29333 7.74673C7.51333 7.86673 7.75999 7.92673 7.99999 7.92673C8.23999 7.92673 8.48666 7.86673 8.70666 7.74673L12.8867 5.49339C13.1933 5.32673 13.38 5.00673 13.38 4.64006C13.38 4.27339 13.1933 3.95339 12.8867 3.78673Z"/>
<path d="M6.60666 8.52673L2.71333 6.58006C2.41333 6.43339 2.06666 6.44673 1.78666 6.62006C1.49999 6.80006 1.33333 7.10006 1.33333 7.43339V11.1067C1.33333 11.7401 1.68666 12.3134 2.25333 12.6001L6.14 14.5467C6.27333 14.6134 6.42 14.6467 6.56666 14.6467C6.74 14.6467 6.91333 14.6001 7.06666 14.5067C7.35333 14.3334 7.51999 14.0267 7.51999 13.6934V10.0201C7.52666 9.38006 7.17333 8.80673 6.60666 8.52673Z"/>
<path d="M14.2133 6.62006C13.9267 6.44673 13.58 6.42673 13.2867 6.58006L9.4 8.52673C8.83333 8.81339 8.48 9.38006 8.48 10.0201V13.6934C8.48 14.0267 8.64666 14.3334 8.93333 14.5067C9.08666 14.6001 9.26 14.6467 9.43333 14.6467C9.58 14.6467 9.72666 14.6134 9.85999 14.5467L13.7467 12.6001C14.3133 12.3134 14.6667 11.7467 14.6667 11.1067V7.43339C14.6667 7.10006 14.5 6.80006 14.2133 6.62006Z"/>
</svg>
