<svg width="16" height="16" viewBox="0 0 16 16" xmlns="http://www.w3.org/2000/svg">
<path d="M10.7933 1.33337H5.20668C2.78001 1.33337 1.33334 2.78004 1.33334 5.20671V10.7934C1.33334 12.6667 2.19334 13.9534 3.70668 14.44C4.14668 14.5934 4.65334 14.6667 5.20668 14.6667H10.7933C11.3467 14.6667 11.8533 14.5934 12.2933 14.44C13.8067 13.9534 14.6667 12.6667 14.6667 10.7934V5.20671C14.6667 2.78004 13.22 1.33337 10.7933 1.33337ZM13.6667 10.7934C13.6667 12.22 13.1067 13.12 11.98 13.4934C11.3333 12.22 9.80001 11.3134 8.00001 11.3134C6.20001 11.3134 4.67334 12.2134 4.02001 13.4934H4.01334C2.90001 13.1334 2.33334 12.2267 2.33334 10.8V5.20671C2.33334 3.32671 3.32668 2.33337 5.20668 2.33337H10.7933C12.6733 2.33337 13.6667 3.32671 13.6667 5.20671V10.7934Z"/>
<path d="M8.00001 5.33337C6.68001 5.33337 5.61334 6.40004 5.61334 7.72004C5.61334 9.04004 6.68001 10.1134 8.00001 10.1134C9.32001 10.1134 10.3867 9.04004 10.3867 7.72004C10.3867 6.40004 9.32001 5.33337 8.00001 5.33337Z"/>
</svg>
