<svg width="16" height="16" viewBox="0 0 16 16" xmlns="http://www.w3.org/2000/svg">
<path d="M13.8067 5.41337V11.6867C13.8067 13.3267 12.4667 14.6667 10.8267 14.6667H5.17333C3.53333 14.6667 2.19333 13.3267 2.19333 11.6867V5.41337C2.19333 4.27337 2.83333 3.28004 3.77333 2.78004C4.1 2.60671 4.50666 2.84004 4.50666 3.21337C4.50666 4.27337 5.37333 5.14004 6.43333 5.14004H9.56666C10.6267 5.14004 11.4933 4.27337 11.4933 3.21337C11.4933 2.84004 11.8933 2.60671 12.2267 2.78004C13.1667 3.28004 13.8067 4.27337 13.8067 5.41337Z"/>
<path d="M9.56666 1.33337H6.43333C5.74 1.33337 5.17333 1.89337 5.17333 2.58671V3.21337C5.17333 3.90671 5.73333 4.46671 6.42666 4.46671H9.56666C10.26 4.46671 10.82 3.90671 10.82 3.21337V2.58671C10.8267 1.89337 10.26 1.33337 9.56666 1.33337Z"/>
</svg>
