<svg width="16" height="16" viewBox="0 0 16 16" xmlns="http://www.w3.org/2000/svg">
<path d="M5.29124 5.79835C5.28365 5.93457 5.39604 6.04492 5.53247 6.04492H6.35695C6.49502 6.04492 6.60481 5.93234 6.62336 5.79552C6.71231 5.13939 7.16263 4.66113 7.96535 4.66113C8.6509 4.66113 9.27932 5.00391 9.27932 5.8291C9.27932 6.46387 8.90481 6.75586 8.31447 7.2002C7.64162 7.68896 7.10842 8.26025 7.1465 9.18701L7.14947 9.40382C7.15135 9.54054 7.26272 9.65039 7.39945 9.65039H8.21047C8.34854 9.65039 8.46047 9.53846 8.46047 9.40039V9.29492C8.46047 8.57764 8.73342 8.36816 9.46975 7.80957C10.0791 7.34619 10.7139 6.83203 10.7139 5.75293C10.7139 4.24219 9.43801 3.51221 8.04152 3.51221C6.77445 3.51221 5.38577 4.10282 5.29124 5.79835ZM6.84816 11.561C6.84816 12.0942 7.27346 12.4878 7.85744 12.4878C8.46682 12.4878 8.88576 12.0942 8.88576 11.561C8.88576 11.0088 8.46682 10.6216 7.85744 10.6216C7.27346 10.6216 6.84816 11.0088 6.84816 11.561Z"/>
</svg>
