<svg width="16" height="16" viewBox="0 0 16 16" xmlns="http://www.w3.org/2000/svg">
<path fill-rule="evenodd" clip-rule="evenodd" d="M14.2277 7.99995C14.2277 11.4394 11.4395 14.2277 8.00001 14.2277C4.56053 14.2277 1.77228 11.4394 1.77228 7.99995C1.77228 4.56047 4.56053 1.77222 8.00001 1.77222C11.4395 1.77222 14.2277 4.56047 14.2277 7.99995ZM6.05099 6.46848C5.94478 6.46848 5.85729 6.38258 5.8632 6.27654C5.93679 4.95662 7.01783 4.49685 8.0042 4.49685C9.09132 4.49685 10.0845 5.06511 10.0845 6.24118C10.0845 7.08122 9.59041 7.48148 9.11603 7.8422C8.54282 8.27705 8.33034 8.44011 8.33034 8.9985V9.0806C8.33034 9.18808 8.24321 9.27522 8.13572 9.27522H7.50437C7.39793 9.27522 7.31123 9.1897 7.30977 9.08327L7.30746 8.91449C7.27781 8.19304 7.69289 7.74831 8.21669 7.36782C8.67624 7.02192 8.96778 6.79462 8.96778 6.30047C8.96778 5.65809 8.47858 5.39125 7.94491 5.39125C7.32002 5.39125 6.96946 5.76355 6.90021 6.27433C6.88577 6.38084 6.80031 6.46848 6.69282 6.46848H6.05099ZM7.8609 11.484C7.40629 11.484 7.07521 11.1777 7.07521 10.7626C7.07521 10.3327 7.40629 10.0313 7.8609 10.0313C8.33528 10.0313 8.66142 10.3327 8.66142 10.7626C8.66142 11.1777 8.33528 11.484 7.8609 11.484Z"/>
</svg>
