<svg width="16" height="16" viewBox="0 0 16 16" xmlns="http://www.w3.org/2000/svg">
<path d="M10.5333 1.47337C10.26 1.20004 9.78666 1.38671 9.78666 1.76671V4.09337C9.78666 5.06671 10.6133 5.87337 11.62 5.87337C12.2533 5.88004 13.1333 5.88004 13.8867 5.88004C14.2667 5.88004 14.4667 5.43337 14.2 5.16671C13.24 4.20004 11.52 2.46004 10.5333 1.47337Z"/>
<path d="M13.6667 6.79337H11.74C10.16 6.79337 8.87332 5.50671 8.87332 3.92671V2.00004C8.87332 1.63337 8.57332 1.33337 8.20666 1.33337H5.37999C3.32666 1.33337 1.66666 2.66671 1.66666 5.04671V10.9534C1.66666 13.3334 3.32666 14.6667 5.37999 14.6667H10.62C12.6733 14.6667 14.3333 13.3334 14.3333 10.9534V7.46004C14.3333 7.09337 14.0333 6.79337 13.6667 6.79337ZM7.66666 11.8334H4.99999C4.72666 11.8334 4.49999 11.6067 4.49999 11.3334C4.49999 11.06 4.72666 10.8334 4.99999 10.8334H7.66666C7.93999 10.8334 8.16666 11.06 8.16666 11.3334C8.16666 11.6067 7.93999 11.8334 7.66666 11.8334ZM8.99999 9.16671H4.99999C4.72666 9.16671 4.49999 8.94004 4.49999 8.66671C4.49999 8.39337 4.72666 8.16671 4.99999 8.16671H8.99999C9.27332 8.16671 9.49999 8.39337 9.49999 8.66671C9.49999 8.94004 9.27332 9.16671 8.99999 9.16671Z"/>
</svg>
