<svg width="16" height="16" viewBox="0 0 16 16" xmlns="http://www.w3.org/2000/svg">
<path d="M13.3067 5.97335C12.86 5.48002 12.1867 5.19335 11.2533 5.09335V4.58668C11.2533 3.67335 10.8667 2.79335 10.1867 2.18001C9.5 1.55335 8.60667 1.26001 7.68 1.34668C6.08667 1.50001 4.74667 3.04001 4.74667 4.70668V5.09335C3.81334 5.19335 3.14 5.48002 2.69334 5.97335C2.04667 6.69335 2.06667 7.65335 2.14 8.32001L2.60667 12.0333C2.74667 13.3333 3.27334 14.6667 6.14 14.6667H9.86C12.7267 14.6667 13.2533 13.3333 13.3933 12.04L13.86 8.31335C13.9333 7.65335 13.9467 6.69335 13.3067 5.97335ZM7.77334 2.27335C8.44 2.21335 9.07334 2.42002 9.56667 2.86668C10.0533 3.30668 10.3267 3.93335 10.3267 4.58668V5.05335H5.67334V4.70668C5.67334 3.52002 6.65334 2.38002 7.77334 2.27335ZM5.61334 8.76668H5.60667C5.24 8.76668 4.94 8.46668 4.94 8.10002C4.94 7.73335 5.24 7.43335 5.60667 7.43335C5.98 7.43335 6.28 7.73335 6.28 8.10002C6.28 8.46668 5.98 8.76668 5.61334 8.76668ZM10.28 8.76668H10.2733C9.90667 8.76668 9.60667 8.46668 9.60667 8.10002C9.60667 7.73335 9.90667 7.43335 10.2733 7.43335C10.6467 7.43335 10.9467 7.73335 10.9467 8.10002C10.9467 8.46668 10.6467 8.76668 10.28 8.76668Z"/>
</svg>
