<svg width="16" height="16" viewBox="0 0 16 16" xmlns="http://www.w3.org/2000/svg">
<path d="M11.3333 1.62H4.66668C2.66668 1.62 1.33334 2.95333 1.33334 4.95333V8.95333C1.33334 10.9533 2.66668 12.2867 4.66668 12.2867H7.33334L10.3 14.26C10.74 14.5533 11.3333 14.24 11.3333 13.7067V12.2867C13.3333 12.2867 14.6667 10.9533 14.6667 8.95333V4.95333C14.6667 2.95333 13.3333 1.62 11.3333 1.62ZM10.3333 7.49999H5.66668C5.39334 7.49999 5.16668 7.27333 5.16668 6.99999C5.16668 6.72666 5.39334 6.49999 5.66668 6.49999H10.3333C10.6067 6.49999 10.8333 6.72666 10.8333 6.99999C10.8333 7.27333 10.6067 7.49999 10.3333 7.49999Z"/>
</svg>
