<svg width="16" height="16" viewBox="0 0 16 16" xmlns="http://www.w3.org/2000/svg">
<path d="M7.53602 2.15547C7.70398 1.73724 8.29605 1.73724 8.464 2.15547L9.69341 5.21698C9.76493 5.39508 9.93209 5.51653 10.1236 5.52951L13.4152 5.7527C13.8648 5.78319 14.0478 6.34628 13.7019 6.63525L11.1702 8.75055C11.0229 8.87361 10.959 9.07011 11.0058 9.25624L11.8107 12.4557C11.9207 12.8928 11.4417 13.2408 11.06 13.0011L8.26587 11.247C8.10332 11.1449 7.8967 11.1449 7.73416 11.247L4.94003 13.0011C4.55832 13.2408 4.07933 12.8928 4.18928 12.4557L4.99417 9.25624C5.041 9.07011 4.97715 8.87361 4.82987 8.75055L2.29811 6.63525C1.95224 6.34628 2.1352 5.78319 2.58487 5.7527L5.87645 5.52951C6.06793 5.51653 6.23509 5.39508 6.30661 5.21698L7.53602 2.15547Z"/>
</svg>
