<svg width="16" height="16" viewBox="0 0 16 16" xmlns="http://www.w3.org/2000/svg">
<path d="M12 1.33337H4C2.89333 1.33337 2 2.22004 2 3.31337V10.5867C2 11.68 2.89333 12.5734 4 12.5734H4.50667C5.03333 12.5734 5.54667 12.78 5.92 13.1534L7.06 14.28C7.58 14.7934 8.42 14.7934 8.94 14.28L10.08 13.1534C10.4533 12.78 10.9667 12.5734 11.4933 12.5734H12C13.1067 12.5734 14 11.68 14 10.5867V3.31337C14 2.22004 13.1067 1.33337 12 1.33337ZM8 3.70004C8.72 3.70004 9.3 4.28671 9.3 5.00004C9.3 5.70671 8.74 6.27337 8.04667 6.30004C8.02 6.30004 7.98 6.30004 7.94667 6.30004C7.24667 6.27337 6.69333 5.70671 6.69333 5.00004C6.7 4.28671 7.28 3.70004 8 3.70004ZM9.83333 9.79337C8.82667 10.4667 7.17333 10.4667 6.16667 9.79337C5.28 9.20671 5.28 8.23337 6.16667 7.64004C7.18 6.96671 8.83333 6.96671 9.83333 7.64004C10.72 8.23337 10.72 9.20004 9.83333 9.79337Z"/>
</svg>
