<svg width="16" height="16" viewBox="0 0 16 16" xmlns="http://www.w3.org/2000/svg">
<path d="M10.6667 1.33337H5.33333C3 1.33337 2 2.66671 2 4.66671V11.3334C2 13.3334 3 14.6667 5.33333 14.6667H10.6667C13 14.6667 14 13.3334 14 11.3334V4.66671C14 2.66671 13 1.33337 10.6667 1.33337ZM7.02 10.98C7.21333 11.1734 7.21333 11.4934 7.02 11.6867C6.92 11.7867 6.79333 11.8334 6.66667 11.8334C6.54 11.8334 6.41333 11.7867 6.31333 11.6867L4.98 10.3534C4.78667 10.16 4.78667 9.84004 4.98 9.64671L6.31333 8.31337C6.50667 8.12004 6.82667 8.12004 7.02 8.31337C7.21333 8.50671 7.21333 8.82671 7.02 9.02004L6.04 10L7.02 10.98ZM11.02 10.3534L9.68667 11.6867C9.58667 11.7867 9.46 11.8334 9.33333 11.8334C9.20667 11.8334 9.08 11.7867 8.98 11.6867C8.78667 11.4934 8.78667 11.1734 8.98 10.98L9.96 10L8.98 9.02004C8.78667 8.82671 8.78667 8.50671 8.98 8.31337C9.17333 8.12004 9.49333 8.12004 9.68667 8.31337L11.02 9.64671C11.2133 9.84004 11.2133 10.16 11.02 10.3534ZM12.3333 6.16671H11C9.98667 6.16671 9.16667 5.34671 9.16667 4.33337V3.00004C9.16667 2.72671 9.39333 2.50004 9.66667 2.50004C9.94 2.50004 10.1667 2.72671 10.1667 3.00004V4.33337C10.1667 4.79337 10.54 5.16671 11 5.16671H12.3333C12.6067 5.16671 12.8333 5.39337 12.8333 5.66671C12.8333 5.94004 12.6067 6.16671 12.3333 6.16671Z"/>
</svg>
