<svg width="23" height="23" viewBox="0 0 23 23" fill="none" xmlns="http://www.w3.org/2000/svg">
<g clip-path="url(#clip0_1093_3925)">
<path fill-rule="evenodd" clip-rule="evenodd" d="M22.2324 11.8623C22.2324 17.9374 17.3076 22.8623 11.2324 22.8623C5.15729 22.8623 0.232422 17.9374 0.232422 11.8623C0.232422 5.78717 5.15729 0.862305 11.2324 0.862305C17.3076 0.862305 22.2324 5.78717 22.2324 11.8623ZM11.6268 8.98294C10.5569 9.42795 8.41857 10.349 5.21185 11.7461C4.69113 11.9532 4.41835 12.1558 4.39352 12.3539C4.35155 12.6886 4.77077 12.8204 5.34163 12.9999C5.41929 13.0244 5.49974 13.0497 5.58222 13.0765C6.14387 13.259 6.89937 13.4726 7.29213 13.4811C7.6484 13.4888 8.04603 13.3419 8.48504 13.0405C11.4812 11.018 13.0278 9.99575 13.1249 9.97371C13.1934 9.95816 13.2883 9.93861 13.3526 9.99578C13.417 10.0529 13.4106 10.1612 13.4038 10.1903C13.3623 10.3673 11.7167 11.8972 10.8651 12.6889C10.5997 12.9357 10.4113 13.1108 10.3729 13.1508C10.2866 13.2403 10.1987 13.325 10.1143 13.4065C9.59248 13.9095 9.2012 14.2867 10.1359 14.9026C10.5851 15.1987 10.9446 15.4434 11.3031 15.6876C11.6948 15.9543 12.0854 16.2203 12.5908 16.5516C12.7195 16.636 12.8425 16.7237 12.9623 16.8091C13.418 17.134 13.8275 17.4259 14.3333 17.3793C14.6273 17.3523 14.9309 17.0759 15.0851 16.2516C15.4495 14.3035 16.1658 10.0825 16.3313 8.34315C16.3458 8.19076 16.3276 7.99573 16.3129 7.91011C16.2983 7.8245 16.2677 7.70252 16.1564 7.61222C16.0246 7.50528 15.8211 7.48273 15.7301 7.48433C15.3164 7.49162 14.6816 7.71234 11.6268 8.98294Z" fill="#3C4550"/>
</g>
<defs>
<clipPath id="clip0_1093_3925">
<rect width="22" height="22" fill="white" transform="translate(0.232422 0.862305)"/>
</clipPath>
</defs>
</svg>
