<svg width="16" height="16" viewBox="0 0 16 16" xmlns="http://www.w3.org/2000/svg">
<path d="M2.2103 3.58165C2.04697 3.21044 1.9653 3.02483 2.00117 2.91093C2.03226 2.81219 2.10955 2.73481 2.20825 2.7036C2.32211 2.6676 2.50781 2.74905 2.87922 2.91195L13.4195 7.53489C13.7548 7.68194 13.9224 7.75546 13.9738 7.85825C14.0183 7.94752 14.0183 8.05255 13.9738 8.14182C13.9224 8.24461 13.7548 8.31813 13.4195 8.46518L2.87922 13.0881C2.50781 13.251 2.32211 13.3325 2.20825 13.2965C2.10955 13.2653 2.03226 13.1879 2.00117 13.0891C1.9653 12.9752 2.04697 12.7896 2.21031 12.4184L4.06439 8.20459C4.09754 8.12924 4.11412 8.09157 4.12067 8.05243C4.12647 8.01774 4.12647 7.98233 4.12067 7.94764C4.11412 7.90851 4.09754 7.87083 4.06439 7.79548L2.2103 3.58165Z"/>
</svg>
