<svg width="16" height="16" viewBox="0 0 16 16" xmlns="http://www.w3.org/2000/svg">
<path d="M14.6133 11.1667C14.3933 12.94 12.94 14.3934 11.1667 14.6134C10.0933 14.7467 9.09334 14.4534 8.31334 13.88C7.86668 13.5534 7.97334 12.86 8.50668 12.7C10.5133 12.0934 12.0933 10.5067 12.7067 8.50004C12.8667 7.97337 13.56 7.86671 13.8867 8.30671C14.4533 9.09337 14.7467 10.0934 14.6133 11.1667Z"/>
<path d="M6.66001 1.33337C3.72001 1.33337 1.33334 3.72004 1.33334 6.66004C1.33334 9.60004 3.72001 11.9867 6.66001 11.9867C9.60001 11.9867 11.9867 9.60004 11.9867 6.66004C11.98 3.72004 9.60001 1.33337 6.66001 1.33337Z"/>
</svg>
