<svg width="23" height="23" viewBox="0 0 23 23" fill="none" xmlns="http://www.w3.org/2000/svg">
<g clip-path="url(#clip0_1093_3923)">
<path d="M8.26376 6.7025H6.51659L14.2319 17.0221H15.9791L8.26376 6.7025Z" fill="#3C4550"/>
<path fill-rule="evenodd" clip-rule="evenodd" d="M22.2324 11.8623C22.2324 17.9374 17.3075 22.8623 11.2324 22.8623C5.15731 22.8623 0.232422 17.9374 0.232422 11.8623C0.232422 5.78719 5.15731 0.862305 11.2324 0.862305C17.3075 0.862305 22.2324 5.78719 22.2324 11.8623ZM9.8076 12.4793L4.87302 5.87903H8.67621L11.9112 10.206L15.915 5.87903H17.0326L12.4106 10.8742L17.6229 17.8456H13.8197L10.3071 13.1472L5.95958 17.8456H4.84192L9.8076 12.4793Z" fill="#3C4550"/>
</g>
<defs>
<clipPath id="clip0_1093_3923">
<rect width="22" height="22" fill="white" transform="translate(0.232422 0.862305)"/>
</clipPath>
</defs>
</svg>
