<svg width="16" height="16" viewBox="0 0 16 16" xmlns="http://www.w3.org/2000/svg">
<path d="M8 1.33337C6.25334 1.33337 4.83334 2.75337 4.83334 4.50004C4.83334 6.21337 6.17334 7.60004 7.92 7.66004C7.97334 7.65337 8.02667 7.65337 8.06667 7.66004C8.08 7.66004 8.08667 7.66004 8.1 7.66004C8.10667 7.66004 8.10667 7.66004 8.11334 7.66004C9.82 7.60004 11.16 6.21337 11.1667 4.50004C11.1667 2.75337 9.74667 1.33337 8 1.33337Z"/>
<path d="M11.3867 9.43337C9.52667 8.19337 6.49334 8.19337 4.62 9.43337C3.77334 10 3.30667 10.7667 3.30667 11.5867C3.30667 12.4067 3.77334 13.1667 4.61334 13.7267C5.54667 14.3534 6.77334 14.6667 8 14.6667C9.22667 14.6667 10.4533 14.3534 11.3867 13.7267C12.2267 13.16 12.6933 12.4 12.6933 11.5734C12.6867 10.7534 12.2267 9.99337 11.3867 9.43337Z"/>
</svg>
