<svg width="16" height="16" viewBox="0 0 16 16"  xmlns="http://www.w3.org/2000/svg">
<path d="M6 1.33337C4.25334 1.33337 2.83334 2.75337 2.83334 4.50004C2.83334 6.21337 4.17334 7.60004 5.92 7.66004C5.97334 7.65337 6.02667 7.65337 6.06667 7.66004C6.08 7.66004 6.08667 7.66004 6.1 7.66004C6.10667 7.66004 6.10667 7.66004 6.11334 7.66004C7.82 7.60004 9.16 6.21337 9.16667 4.50004C9.16667 2.75337 7.74667 1.33337 6 1.33337Z" />
<path d="M9.38667 9.43337C7.52667 8.19337 4.49334 8.19337 2.62 9.43337C1.77334 10 1.30667 10.7667 1.30667 11.5867C1.30667 12.4067 1.77334 13.1667 2.61334 13.7267C3.54667 14.3534 4.77334 14.6667 6 14.6667C7.22667 14.6667 8.45334 14.3534 9.38667 13.7267C10.2267 13.16 10.6933 12.4 10.6933 11.5734C10.6867 10.7534 10.2267 9.99337 9.38667 9.43337Z"/>
<path d="M13.3267 4.89337C13.4333 6.18671 12.5133 7.32004 11.24 7.47337C11.2333 7.47337 11.2333 7.47337 11.2267 7.47337H11.2067C11.1667 7.47337 11.1267 7.47337 11.0933 7.48671C10.4467 7.52004 9.85334 7.31337 9.40667 6.93337C10.0933 6.32004 10.4867 5.40004 10.4067 4.40004C10.36 3.86004 10.1733 3.36671 9.89334 2.94671C10.1467 2.82004 10.44 2.74004 10.74 2.71337C12.0467 2.60004 13.2133 3.57337 13.3267 4.89337Z"/>
<path d="M14.66 11.06C14.6067 11.7067 14.1933 12.2667 13.5 12.6467C12.8333 13.0134 11.9933 13.1867 11.16 13.1667C11.64 12.7334 11.92 12.1934 11.9733 11.62C12.04 10.7934 11.6467 10 10.86 9.36671C10.4133 9.01337 9.89334 8.73337 9.32667 8.52671C10.8 8.10004 12.6533 8.38671 13.7933 9.30671C14.4067 9.80004 14.72 10.42 14.66 11.06Z" />
</svg>
