<svg width="18" height="16" viewBox="0 0 18 16" fill="none" xmlns="http://www.w3.org/2000/svg">
<g clip-path="url(#clip0_199_1917)">
<path d="M2.86281 6.3844C2.89456 6.44824 2.97834 6.49987 3.04959 6.49987C3.04935 6.49987 3.04984 6.49987 3.04959 6.49987C3.12062 6.4719 3.20312 6.4469 3.23437 6.3844L3.88187 4.83346L5.4325 4.18627C5.49572 4.15465 5.547 4.0714 5.54738 4.00071C5.54688 3.93127 5.49688 3.84377 5.43438 3.81252L3.89062 3.16877L3.87812 3.15627L3.23437 1.61565C3.20312 1.5519 3.12062 1.50065 3.04969 1.50002C3.04944 1.50002 3.04993 1.50002 3.04969 1.50002C2.97847 1.50002 2.8945 1.55149 2.86278 1.61534L2.21593 3.16565L0.664683 3.81252C0.601245 3.8469 0.549683 3.92815 0.549683 3.9719C0.549683 4.04271 0.601308 4.12656 0.664745 4.15831L2.216 4.80518L2.86281 6.3844ZM7.05 1.9719L7.43813 2.90252C7.45625 2.96909 7.50625 3.00002 7.55 3.00002C7.59375 3.00002 7.64272 2.96896 7.66175 2.93068L8.05001 1.9719L8.98063 1.58377C9.01873 1.56473 9.04973 1.51437 9.04973 1.4719C9.04973 1.42924 9.01872 1.37918 8.98063 1.36015L8.05001 1.00002L7.6625 0.0693061C7.64375 0.0309686 7.56563 2.48927e-05 7.55 2.48927e-05C7.53438 2.48927e-05 7.45625 0.0309686 7.4375 0.0693061L7.05 1.00002L6.11875 1.38815C6.08125 1.40721 6.05 1.45721 6.05 1.4719C6.05 1.51437 6.08101 1.56474 6.11903 1.58377L7.05 1.9719ZM16.5594 1.50002L15.4994 0.4394C14.9138 -0.146538 13.9638 -0.146538 13.3781 0.439337L1.43937 12.3781C0.853433 12.9638 0.853433 13.9135 1.43925 14.4994L2.49956 15.5603C3.08519 16.1463 4.03519 16.1463 4.62082 15.5605L16.5594 3.6219C17.1469 3.03534 17.1469 2.08596 16.5594 1.50002ZM11.8531 5.85315L11.1459 5.14596L14.4397 1.85221L15.1478 2.5594L11.8531 5.85315ZM16.4344 11.8125L14.8853 11.1666L14.2363 9.6144C14.2031 9.55315 14.1219 9.50002 14.05 9.50002C13.9787 9.50002 13.8954 9.55165 13.8636 9.61549L13.2167 11.1664L11.6655 11.8136C11.6021 11.8454 11.5506 11.9286 11.5505 11.9997C11.5506 12.0704 11.6022 12.1546 11.6655 12.1863L13.2145 12.8322L13.8636 14.3844C13.8938 14.4469 13.9781 14.5 14.05 14.5C14.1212 14.5 14.2045 14.4483 14.2362 14.3844L14.8831 12.8335L16.4347 12.1863C16.498 12.1546 16.5495 12.0709 16.5497 12.0002C16.55 11.9281 16.4969 11.8469 16.4344 11.8125Z" fill="#21252D"/>
</g>
<defs>
<clipPath id="clip0_199_1917">
<rect width="18" height="16" fill="white"/>
</clipPath>
</defs>
</svg>
