<svg width="16" height="16" viewBox="0 0 16 16" xmlns="http://www.w3.org/2000/svg">
<path fill-rule="evenodd" clip-rule="evenodd" d="M8.82454 2.05577C8.36915 1.60039 7.63084 1.60039 7.17546 2.05577L2.05577 7.17546C1.60039 7.63084 1.60039 8.36915 2.05577 8.82453L7.17546 13.9442C7.63084 14.3996 8.36915 14.3996 8.82453 13.9442L13.9442 8.82454C14.3996 8.36915 14.3996 7.63084 13.9442 7.17546L8.82454 2.05577ZM8 4.8571C7.57931 4.8571 7.2506 5.22032 7.29246 5.63892L7.56804 8.39479C7.59024 8.6167 7.77697 8.7857 8 8.7857C8.22302 8.7857 8.40976 8.6167 8.43195 8.39479L8.70753 5.63892C8.74939 5.22032 8.42068 4.8571 8 4.8571ZM8.00121 9.57142C7.56727 9.57142 7.21549 9.9232 7.21549 10.3571C7.21549 10.7911 7.56727 11.1429 8.00121 11.1429C8.43515 11.1429 8.78693 10.7911 8.78693 10.3571C8.78693 9.9232 8.43515 9.57142 8.00121 9.57142Z" />
</svg>
