<svg width="44" height="45" viewBox="0 0 44 45" fill="none" xmlns="http://www.w3.org/2000/svg">
<path d="M37.2071 19.0234H6.79295C5.86363 19.0234 5.10327 19.7838 5.10327 20.7131V29.4825C5.10327 29.8205 5.12017 30.1584 5.15396 30.4963C5.4919 35.7006 8.70228 38.9109 13.9065 39.2489C14.2444 39.2827 14.5824 39.2996 14.9203 39.2996H29.0798C29.4177 39.2996 29.7557 39.2827 30.0936 39.2489C35.2978 38.9109 38.5082 35.7006 38.8461 30.4963C38.8799 30.1584 38.8968 29.8205 38.8968 29.4825V20.7131C38.8968 19.7838 38.1365 19.0234 37.2071 19.0234ZM15.2413 29.4149C15.8158 30.2598 16.5931 30.9526 17.4886 31.4088C18.1307 31.7129 18.3841 32.4733 18.0631 33.1153C17.8434 33.5547 17.3872 33.8081 16.931 33.8081C16.7451 33.8081 16.5424 33.7574 16.3734 33.6729C15.0555 33.0309 13.9403 32.0339 13.1461 30.8343C12.4703 29.8205 12.4703 28.5025 13.1461 27.4887C13.9403 26.289 15.0555 25.2921 16.3734 24.6501C16.9986 24.329 17.759 24.5825 18.0631 25.2077C18.3841 25.8497 18.1307 26.6101 17.4886 26.9142C16.5931 27.3704 15.8158 28.0632 15.2413 28.908C15.14 29.0601 15.14 29.2629 15.2413 29.4149ZM31.2088 30.8343C30.3977 32.0339 29.2825 33.0309 27.9815 33.6729C27.7956 33.7574 27.6098 33.8081 27.4239 33.8081C26.9508 33.8081 26.5115 33.5547 26.2918 33.1153C25.9708 32.4733 26.2242 31.7129 26.8494 31.4088C27.7618 30.9526 28.5391 30.2598 29.0967 29.4149C29.215 29.2629 29.215 29.0601 29.0967 28.908C28.5391 28.0632 27.7618 27.3704 26.8494 26.9142C26.2242 26.6101 25.9708 25.8497 26.2918 25.2077C26.596 24.5825 27.3563 24.329 27.9815 24.6501C29.2825 25.2921 30.3977 26.289 31.2088 27.4887C31.8847 28.5025 31.8847 29.8205 31.2088 30.8343Z" fill="url(#paint0_linear_2616_16064)"/>
<path d="M38.8968 15.3229V15.6439C38.8968 16.5732 38.1365 17.3336 37.2071 17.3336L6.79295 17.3505C5.86363 17.3505 5.10327 16.5901 5.10327 15.6608V15.3229C5.10327 14.9849 5.12017 14.647 5.15396 14.3091C5.4919 9.10487 8.70228 5.89449 13.9065 5.55655C14.2444 5.52276 14.5824 5.50586 14.9203 5.50586H29.0798C29.4177 5.50586 29.7557 5.52276 30.0936 5.55655C35.2978 5.89449 38.5082 9.10487 38.8461 14.3091C38.8799 14.647 38.8968 14.9849 38.8968 15.3229Z" fill="url(#paint1_linear_2616_16064)"/>
<defs>
<linearGradient id="paint0_linear_2616_16064" x1="22" y1="19.0234" x2="22" y2="39.2996" gradientUnits="userSpaceOnUse">
<stop stop-color="#CAD5E1" stop-opacity="0.5"/>
<stop offset="1" stop-color="#CAD5E1" stop-opacity="0.16"/>
</linearGradient>
<linearGradient id="paint1_linear_2616_16064" x1="38.8968" y1="11.4282" x2="5.10327" y2="11.4282" gradientUnits="userSpaceOnUse">
<stop stop-color="#44CDAC"/>
<stop offset="1" stop-color="#44CDAC" stop-opacity="0.5"/>
</linearGradient>
</defs>
</svg>
