<svg width="40" height="40" viewBox="0 0 40 40" fill="none" xmlns="http://www.w3.org/2000/svg">
<path d="M28.1322 36.0637H11.8839C11.2177 36.0637 10.6653 35.5113 10.6653 34.8451C10.6653 34.1789 11.2177 33.6265 11.8839 33.6265H28.1322C28.7984 33.6265 29.3508 34.1789 29.3508 34.8451C29.3508 35.5113 28.7984 36.0637 28.1322 36.0637Z" fill="#3D70FF"/>
<path d="M33.5726 9.28628L27.0733 13.9333C26.2121 14.5507 24.9772 14.177 24.6035 13.1859L21.5326 4.99673C21.0127 3.58312 19.0141 3.58312 18.4942 4.99673L15.407 13.1696C15.0333 14.177 13.8147 14.5507 12.9535 13.917L6.45418 9.27003C5.15431 8.36013 3.43199 9.64374 3.96819 11.1548L10.7275 30.0841C10.955 30.734 11.5724 31.1565 12.2548 31.1565H27.7395C28.4219 31.1565 29.0393 30.7178 29.2668 30.0841L36.0261 11.1548C36.5785 9.64374 34.8562 8.36013 33.5726 9.28628Z" fill="url(#paint0_linear_2616_16168)"/>
<path d="M15.9432 24.2834H24.0674C24.7336 24.2834 25.286 23.731 25.286 23.0648C25.286 22.3986 24.7336 21.8462 24.0674 21.8462H15.9432C15.2771 21.8462 14.7246 22.3986 14.7246 23.0648C14.7246 23.731 15.2771 24.2834 15.9432 24.2834Z" fill="white"/>
<defs>
<linearGradient id="paint0_linear_2616_16168" x1="19.9999" y1="3.93652" x2="19.9999" y2="31.1565" gradientUnits="userSpaceOnUse">
<stop stop-color="#3D70FF" stop-opacity="0.5"/>
<stop offset="1" stop-color="#3D70FF"/>
</linearGradient>
</defs>
</svg>
