<svg width="40" height="40" viewBox="0 0 40 40" fill="none" xmlns="http://www.w3.org/2000/svg">
<path fill-rule="evenodd" clip-rule="evenodd" d="M10.3906 12.2707C10.3906 6.96363 14.6929 2.66138 20 2.66138C22.1622 2.66138 24.1609 3.37703 25.7672 4.58388C26.3207 4.99969 26.4322 5.78541 26.0164 6.33885C25.6006 6.89228 24.8149 7.00385 24.2615 6.58804C23.0744 5.69618 21.6007 5.16817 20 5.16817C16.0773 5.16817 12.8974 8.34809 12.8974 12.2707V13.999C13.8495 13.9419 15.0444 13.9419 16.6576 13.9419H23.3423C25.7516 13.9419 27.2279 13.9419 28.3559 14.132C28.6843 14.1873 28.9831 14.2587 29.2669 14.3509C31.8107 15.1775 33.8052 17.1719 34.6317 19.7158C35.0407 20.9744 35.0407 22.5297 35.0407 25.6403C35.0407 28.7508 35.0407 30.3061 34.6317 31.5648C33.8052 34.1087 31.8107 36.1031 29.2669 36.9297C28.0082 37.3386 26.4529 37.3386 23.3423 37.3386H16.6575C13.547 37.3386 11.9917 37.3386 10.7331 36.9297C8.18918 36.1031 6.19475 34.1087 5.3682 31.5648C4.95923 30.3061 4.95923 28.7508 4.95923 25.6403C4.95923 22.5297 4.95923 20.9744 5.3682 19.7158C6.16192 17.2729 8.0326 15.3367 10.4326 14.4549C10.4052 14.3518 10.3906 14.2436 10.3906 14.132V12.2707Z" fill="url(#paint0_linear_2616_16175)"/>
<path d="M20 21.0444C20.6922 21.0444 21.2534 21.6056 21.2534 22.2978V28.9826C21.2534 29.6748 20.6922 30.236 20 30.236C19.3077 30.236 18.7466 29.6748 18.7466 28.9826V22.2978C18.7466 21.6056 19.3077 21.0444 20 21.0444Z" fill="white"/>
<defs>
<linearGradient id="paint0_linear_2616_16175" x1="20" y1="2.66138" x2="20" y2="37.3386" gradientUnits="userSpaceOnUse">
<stop stop-color="#3D70FF" stop-opacity="0.5"/>
<stop offset="1" stop-color="#3D70FF"/>
</linearGradient>
</defs>
</svg>
