<svg width="44" height="45" viewBox="0 0 44 45" fill="none" xmlns="http://www.w3.org/2000/svg">
<g filter="url(#filter0_b_2616_16020)">
<path d="M31.7851 14.5245C31.6616 14.5068 31.5381 14.5068 31.4147 14.5245C28.6805 14.4363 26.5107 12.196 26.5107 9.44416C26.5107 6.63939 28.7863 4.34619 31.6087 4.34619C34.4135 4.34619 36.7067 6.62175 36.7067 9.44416C36.689 12.196 34.5193 14.4363 31.7851 14.5245Z" fill="url(#paint0_linear_2616_16020)"/>
<path d="M37.5402 26.7489C35.5645 28.0719 32.795 28.5658 30.2372 28.2306C30.9075 26.7841 31.2603 25.1789 31.278 23.4855C31.278 21.7215 30.8899 20.0457 30.149 18.5815C32.7597 18.2287 35.5292 18.7226 37.5225 20.0456C40.3097 21.8802 40.3097 24.8967 37.5402 26.7489Z" fill="url(#paint1_linear_2616_16020)"/>
</g>
<g filter="url(#filter1_b_2616_16020)">
<path d="M12.2242 14.5245C12.3477 14.5068 12.4712 14.5068 12.5947 14.5245C15.3289 14.4363 17.4986 12.196 17.4986 9.44416C17.4986 6.62175 15.223 4.34619 12.4006 4.34619C9.59586 4.34619 7.3203 6.62175 7.3203 9.44416C7.3203 12.196 9.49002 14.4363 12.2242 14.5245Z" fill="url(#paint2_linear_2616_16020)"/>
<path d="M12.4199 23.4858C12.4199 25.1969 12.7904 26.8197 13.4607 28.2839C10.9734 28.5485 8.38035 28.0193 6.47523 26.7668C3.68811 24.9146 3.68811 21.8982 6.47523 20.046C8.36271 18.7759 11.0264 18.2643 13.5312 18.5466C12.808 20.0283 12.4199 21.7041 12.4199 23.4858Z" fill="url(#paint3_linear_2616_16020)"/>
</g>
<g filter="url(#filter2_b_2616_16020)">
<path d="M22.2449 28.8128C22.1038 28.7951 21.945 28.7951 21.7862 28.8128C18.5405 28.7069 15.9474 26.0433 15.9474 22.7623C15.965 19.4107 18.664 16.6941 22.0332 16.6941C25.3848 16.6941 28.1014 19.4107 28.1014 22.7623C28.0837 26.0433 25.5083 28.7069 22.2449 28.8128Z" fill="url(#paint4_linear_2616_16020)"/>
<path d="M16.5119 32.4641C13.8482 34.2457 13.8482 37.174 16.5119 38.938C19.546 40.9666 24.5205 40.9666 27.5545 38.938C30.2182 37.1563 30.2182 34.2281 27.5545 32.4641C24.5381 30.4355 19.5636 30.4355 16.5119 32.4641Z" fill="url(#paint5_linear_2616_16020)"/>
</g>
<defs>
<filter id="filter0_b_2616_16020" x="8.11074" y="-14.0538" width="49.9044" height="60.7861" filterUnits="userSpaceOnUse" color-interpolation-filters="sRGB">
<feFlood flood-opacity="0" result="BackgroundImageFix"/>
<feGaussianBlur in="BackgroundImageFix" stdDeviation="9.2"/>
<feComposite in2="SourceAlpha" operator="in" result="effect1_backgroundBlur_2616_16020"/>
<feBlend mode="normal" in="SourceGraphic" in2="effect1_backgroundBlur_2616_16020" result="shape"/>
</filter>
<filter id="filter1_b_2616_16020" x="-14.0151" y="-14.0538" width="49.9136" height="60.8041" filterUnits="userSpaceOnUse" color-interpolation-filters="sRGB">
<feFlood flood-opacity="0" result="BackgroundImageFix"/>
<feGaussianBlur in="BackgroundImageFix" stdDeviation="9.2"/>
<feComposite in2="SourceAlpha" operator="in" result="effect1_backgroundBlur_2616_16020"/>
<feBlend mode="normal" in="SourceGraphic" in2="effect1_backgroundBlur_2616_16020" result="shape"/>
</filter>
<filter id="filter2_b_2616_16020" x="-3.88584" y="-1.70591" width="51.8381" height="60.5654" filterUnits="userSpaceOnUse" color-interpolation-filters="sRGB">
<feFlood flood-opacity="0" result="BackgroundImageFix"/>
<feGaussianBlur in="BackgroundImageFix" stdDeviation="9.2"/>
<feComposite in2="SourceAlpha" operator="in" result="effect1_backgroundBlur_2616_16020"/>
<feBlend mode="normal" in="SourceGraphic" in2="effect1_backgroundBlur_2616_16020" result="shape"/>
</filter>
<linearGradient id="paint0_linear_2616_16020" x1="40.7744" y1="14.2173" x2="30.2296" y2="25.7392" gradientUnits="userSpaceOnUse">
<stop stop-color="#1C4069" stop-opacity="0.3"/>
<stop offset="1" stop-color="#1C4069" stop-opacity="0.1"/>
</linearGradient>
<linearGradient id="paint1_linear_2616_16020" x1="40.7744" y1="14.2173" x2="30.2296" y2="25.7392" gradientUnits="userSpaceOnUse">
<stop stop-color="#1C4069" stop-opacity="0.3"/>
<stop offset="1" stop-color="#1C4069" stop-opacity="0.1"/>
</linearGradient>
<linearGradient id="paint2_linear_2616_16020" x1="18.6587" y1="14.2247" x2="8.10591" y2="25.7549" gradientUnits="userSpaceOnUse">
<stop stop-color="#1C4069" stop-opacity="0.3"/>
<stop offset="1" stop-color="#1C4069" stop-opacity="0.1"/>
</linearGradient>
<linearGradient id="paint3_linear_2616_16020" x1="18.6587" y1="14.2247" x2="8.10591" y2="25.7549" gradientUnits="userSpaceOnUse">
<stop stop-color="#1C4069" stop-opacity="0.3"/>
<stop offset="1" stop-color="#1C4069" stop-opacity="0.1"/>
</linearGradient>
<linearGradient id="paint4_linear_2616_16020" x1="22.0332" y1="16.6941" x2="22.0332" y2="40.4594" gradientUnits="userSpaceOnUse">
<stop stop-color="#3D70FF"/>
<stop offset="1" stop-color="#3D70FF" stop-opacity="0.5"/>
</linearGradient>
<linearGradient id="paint5_linear_2616_16020" x1="22.0332" y1="16.6941" x2="22.0332" y2="40.4594" gradientUnits="userSpaceOnUse">
<stop stop-color="#3D70FF"/>
<stop offset="1" stop-color="#3D70FF" stop-opacity="0.5"/>
</linearGradient>
</defs>
</svg>
