<svg width="44" height="45" viewBox="0 0 44 45" fill="none" xmlns="http://www.w3.org/2000/svg">
<rect width="23.0661" height="23.0661" transform="matrix(0.866025 0.5 -0.866025 0.5 22 19.0818)" fill="url(#paint0_linear_2616_16047)"/>
<g filter="url(#filter0_b_2616_16047)">
<rect width="23.0661" height="23.0661" transform="matrix(0.866025 0.5 -0.866025 0.5 22 10.8699)" fill="url(#paint1_linear_2616_16047)"/>
<rect x="-1.49012e-08" y="0.25" width="22.5661" height="22.5661" transform="matrix(0.866025 0.5 -0.866025 0.5 22.2165 10.9949)" stroke="white" stroke-opacity="0.05" stroke-width="0.5"/>
</g>
<g filter="url(#filter1_b_2616_16047)">
<rect width="23.0661" height="23.0661" transform="matrix(0.866025 0.5 -0.866025 0.5 22 2.65796)" fill="url(#paint2_linear_2616_16047)"/>
<rect width="23.0661" height="23.0661" transform="matrix(0.866025 0.5 -0.866025 0.5 22 2.65796)" fill="url(#paint3_linear_2616_16047)"/>
<rect x="-1.49012e-08" y="0.25" width="22.5661" height="22.5661" transform="matrix(0.866025 0.5 -0.866025 0.5 22.2165 2.78296)" stroke="white" stroke-opacity="0.15" stroke-width="0.5"/>
</g>
<defs>
<filter id="filter0_b_2616_16047" x="-16.3758" y="-7.53013" width="76.7517" height="59.8662" filterUnits="userSpaceOnUse" color-interpolation-filters="sRGB">
<feFlood flood-opacity="0" result="BackgroundImageFix"/>
<feGaussianBlur in="BackgroundImageFix" stdDeviation="9.2"/>
<feComposite in2="SourceAlpha" operator="in" result="effect1_backgroundBlur_2616_16047"/>
<feBlend mode="normal" in="SourceGraphic" in2="effect1_backgroundBlur_2616_16047" result="shape"/>
</filter>
<filter id="filter1_b_2616_16047" x="-16.3758" y="-15.742" width="76.7517" height="59.8662" filterUnits="userSpaceOnUse" color-interpolation-filters="sRGB">
<feFlood flood-opacity="0" result="BackgroundImageFix"/>
<feGaussianBlur in="BackgroundImageFix" stdDeviation="9.2"/>
<feComposite in2="SourceAlpha" operator="in" result="effect1_backgroundBlur_2616_16047"/>
<feBlend mode="normal" in="SourceGraphic" in2="effect1_backgroundBlur_2616_16047" result="shape"/>
</filter>
<linearGradient id="paint0_linear_2616_16047" x1="11.5331" y1="0" x2="11.5331" y2="23.0661" gradientUnits="userSpaceOnUse">
<stop stop-color="#CAD5E1" stop-opacity="0.36"/>
<stop offset="1" stop-color="#CAD5E1" stop-opacity="0.08"/>
</linearGradient>
<linearGradient id="paint1_linear_2616_16047" x1="11.5331" y1="0" x2="11.5331" y2="23.0661" gradientUnits="userSpaceOnUse">
<stop stop-color="#CAD5E1" stop-opacity="0.36"/>
<stop offset="1" stop-color="#CAD5E1" stop-opacity="0.08"/>
</linearGradient>
<linearGradient id="paint2_linear_2616_16047" x1="11.5331" y1="0" x2="11.5331" y2="23.0661" gradientUnits="userSpaceOnUse">
<stop stop-color="#CAD5E1" stop-opacity="0.36"/>
<stop offset="1" stop-color="#CAD5E1" stop-opacity="0.08"/>
</linearGradient>
<linearGradient id="paint3_linear_2616_16047" x1="11.5331" y1="0" x2="11.5331" y2="23.0661" gradientUnits="userSpaceOnUse">
<stop stop-color="#CAD5E1" stop-opacity="0.5"/>
<stop offset="1" stop-color="#CAD5E1" stop-opacity="0.16"/>
</linearGradient>
</defs>
</svg>
