<svg width="40" height="41" viewBox="0 0 40 41" fill="none" xmlns="http://www.w3.org/2000/svg">
<rect width="7.38474" height="21.2339" transform="matrix(0.866025 0.5 -0.866025 0.5 25.6989 0.562988)" fill="url(#paint0_linear_2616_16154)"/>
<path d="M13.7052 14.8723L32.0943 4.25537L32.0943 29.8971L22.8997 30.6723L13.7052 40.514L13.7052 14.8723Z" fill="url(#paint1_linear_2616_16154)"/>
<rect width="7.3961" height="25.6553" transform="matrix(-0.866025 -0.5 -5.19309e-08 1 13.7052 14.8723)" fill="url(#paint2_linear_2616_16154)"/>
<path d="M22.1344 15.9991C22.2723 15.5227 22.7587 15.2419 22.8967 15.559L23.8911 17.8443C23.9499 17.9793 24.0872 18.0152 24.2445 17.9367L26.9069 16.608C27.2763 16.4237 27.4266 16.871 27.1425 17.3092L25.0947 20.4672C24.9737 20.6538 24.9212 20.8705 24.9597 21.0248L25.7417 24.1627C25.7846 24.3349 25.5977 24.5998 25.4487 24.5778L22.7339 24.1771C22.6004 24.1574 22.4307 24.2554 22.2971 24.4293L20.0371 27.3725C19.7235 27.7809 19.33 27.678 19.4203 27.2112L20.0714 23.8471C20.1099 23.6483 20.0574 23.4922 19.9364 23.4453L17.6631 22.5646C17.4606 22.4862 17.5677 22.0436 17.831 21.871L20.7866 19.9332C20.9439 19.83 21.0812 19.6356 21.1399 19.4327L22.1344 15.9991Z" fill="white"/>
<defs>
<linearGradient id="paint0_linear_2616_16154" x1="3.69237" y1="0" x2="3.69237" y2="21.2339" gradientUnits="userSpaceOnUse">
<stop stop-color="#3D70FF" stop-opacity="0.5"/>
<stop offset="1" stop-color="#3D70FF"/>
</linearGradient>
<linearGradient id="paint1_linear_2616_16154" x1="22.8997" y1="9.56384" x2="34.0029" y2="28.7951" gradientUnits="userSpaceOnUse">
<stop stop-color="#3D70FF" stop-opacity="0.5"/>
<stop offset="1" stop-color="#3D70FF"/>
</linearGradient>
<linearGradient id="paint2_linear_2616_16154" x1="3.69805" y1="-13.7027" x2="3.69805" y2="34.9352" gradientUnits="userSpaceOnUse">
<stop stop-color="#3D70FF"/>
<stop offset="1" stop-color="#3D70FF" stop-opacity="0.5"/>
</linearGradient>
</defs>
</svg>
