<svg width="16" height="16" viewBox="0 0 16 16" fill="none" xmlns="http://www.w3.org/2000/svg">
<g id="Property 1=back">
<path id="Vector" d="M9.6667 5.99992V6.74992V5.99992ZM4.33337 11.9166C3.91915 11.9166 3.58337 12.2524 3.58337 12.6666C3.58337 13.0808 3.91915 13.4166 4.33337 13.4166V11.9166ZM4.60537 9.19928C4.89957 9.49086 5.37444 9.48874 5.66602 9.19454C5.95761 8.90035 5.95549 8.42548 5.66129 8.13389L4.60537 9.19928ZM4.19308 7.73469L3.66512 8.26738L4.19308 7.73469ZM4.19308 4.26515L3.66512 3.73246V3.73246L4.19308 4.26515ZM5.66129 3.86594C5.95549 3.57436 5.95761 3.09949 5.66602 2.80529C5.37444 2.5111 4.89957 2.50898 4.60538 2.80056L5.66129 3.86594ZM3.01061 6.16703L2.26663 6.26186L2.26663 6.26186L3.01061 6.16703ZM3.01061 5.83281L2.26663 5.73798L2.26663 5.73798L3.01061 5.83281ZM9.6667 11.9166H4.33337V13.4166H9.6667V11.9166ZM12.25 9.33325C12.25 10.76 11.0934 11.9166 9.6667 11.9166V13.4166C11.9219 13.4166 13.75 11.5884 13.75 9.33325H12.25ZM9.6667 6.74992C11.0934 6.74992 12.25 7.90652 12.25 9.33325H13.75C13.75 7.07809 11.9219 5.24992 9.6667 5.24992V6.74992ZM5.66129 8.13389L4.72104 7.202L3.66512 8.26738L4.60537 9.19928L5.66129 8.13389ZM4.72104 4.79784L5.66129 3.86594L4.60538 2.80056L3.66512 3.73246L4.72104 4.79784ZM4.72104 7.202C4.3336 6.818 4.08884 6.57381 3.92708 6.37239C3.77482 6.18279 3.75879 6.10513 3.75459 6.0722L2.26663 6.26186C2.32016 6.68183 2.52045 7.01641 2.75754 7.31163C2.98512 7.59502 3.30274 7.90821 3.66512 8.26738L4.72104 7.202ZM3.66512 3.73246C3.30274 4.09163 2.98513 4.40482 2.75754 4.68821C2.52045 4.98343 2.32016 5.31801 2.26663 5.73798L3.75459 5.92764C3.75879 5.8947 3.77482 5.81704 3.92708 5.62745C4.08884 5.42603 4.3336 5.18184 4.72104 4.79784L3.66512 3.73246ZM3.75459 6.0722C3.75153 6.0482 3.75 6.02405 3.75 5.99992H2.25C2.25 6.08741 2.25554 6.1749 2.26663 6.26186L3.75459 6.0722ZM3.75 5.99992C3.75 5.97578 3.75153 5.95164 3.75459 5.92764L2.26663 5.73798C2.25554 5.82494 2.25 5.91243 2.25 5.99992H3.75ZM3 6.74992L9.6667 6.74992V5.24992L3 5.24992L3 6.74992Z" fill="black"/>
</g>
</svg>
