<svg width="16" height="16" viewBox="0 0 16 16" fill="none" xmlns="http://www.w3.org/2000/svg">
<g id="Property 1=calendar">
<path id="Vector" d="M14 6.8H2M10.6667 2V4.4M5.33333 2V4.4M5.2 14H10.8C11.9201 14 12.4802 14 12.908 13.8038C13.2843 13.6312 13.5903 13.3559 13.782 13.0172C14 12.6321 14 12.1281 14 11.12V6.08C14 5.07191 14 4.56786 13.782 4.18282C13.5903 3.84413 13.2843 3.56876 12.908 3.39619C12.4802 3.2 11.9201 3.2 10.8 3.2H5.2C4.0799 3.2 3.51984 3.2 3.09202 3.39619C2.71569 3.56876 2.40973 3.84413 2.21799 4.18282C2 4.56786 2 5.07191 2 6.08V11.12C2 12.1281 2 12.6321 2.21799 13.0172C2.40973 13.3559 2.71569 13.6312 3.09202 13.8038C3.51984 14 4.0799 14 5.2 14Z" stroke="black" stroke-width="1.5" stroke-linecap="round" stroke-linejoin="round"/>
</g>
</svg>
