<svg width="16" height="16" viewBox="0 0 16 16" fill="none" xmlns="http://www.w3.org/2000/svg">
<g id="Property 1=camera">
<g id="Vector">
<path d="M14.6666 5.95429C14.6666 5.55041 14.6666 5.34847 14.5868 5.25496C14.5175 5.17383 14.4135 5.13077 14.3072 5.13914C14.1846 5.14879 14.0418 5.29158 13.7562 5.57716L11.3333 8.00004L13.7562 10.4229C14.0418 10.7085 14.1846 10.8513 14.3072 10.8609C14.4135 10.8693 14.5175 10.8263 14.5868 10.7451C14.6666 10.6516 14.6666 10.4497 14.6666 10.0458V5.95429Z" stroke="black" stroke-width="1.5" stroke-linecap="round" stroke-linejoin="round"/>
<path d="M1.33331 6.53337C1.33331 5.41327 1.33331 4.85322 1.5513 4.42539C1.74305 4.04907 2.04901 3.74311 2.42533 3.55136C2.85316 3.33337 3.41321 3.33337 4.53331 3.33337H8.13331C9.25342 3.33337 9.81347 3.33337 10.2413 3.55136C10.6176 3.74311 10.9236 4.04907 11.1153 4.42539C11.3333 4.85322 11.3333 5.41327 11.3333 6.53337V9.46671C11.3333 10.5868 11.3333 11.1469 11.1153 11.5747C10.9236 11.951 10.6176 12.257 10.2413 12.4487C9.81347 12.6667 9.25342 12.6667 8.13331 12.6667H4.53331C3.41321 12.6667 2.85316 12.6667 2.42533 12.4487C2.04901 12.257 1.74305 11.951 1.5513 11.5747C1.33331 11.1469 1.33331 10.5868 1.33331 9.46671V6.53337Z" stroke="black" stroke-width="1.5" stroke-linecap="round" stroke-linejoin="round"/>
</g>
</g>
</svg>
