<svg width="16" height="16" viewBox="0 0 16 16" fill="none" xmlns="http://www.w3.org/2000/svg">
<g id="Property 1=copy">
<path id="Vector" d="M3.8 9.8C3.24087 9.8 2.96131 9.8 2.74078 9.70866C2.44675 9.58686 2.21314 9.35325 2.09134 9.05922C2 8.83869 2 8.55913 2 8V3.92C2 3.24794 2 2.91191 2.13079 2.65521C2.24584 2.42942 2.42942 2.24584 2.65521 2.13079C2.91191 2 3.24794 2 3.92 2H8C8.55913 2 8.83869 2 9.05922 2.09134C9.35325 2.21314 9.58686 2.44675 9.70866 2.74078C9.8 2.96131 9.8 3.24087 9.8 3.8M8.12 14H12.08C12.7521 14 13.0881 14 13.3448 13.8692C13.5706 13.7542 13.7542 13.5706 13.8692 13.3448C14 13.0881 14 12.7521 14 12.08V8.12C14 7.44794 14 7.11191 13.8692 6.85521C13.7542 6.62942 13.5706 6.44584 13.3448 6.33079C13.0881 6.2 12.7521 6.2 12.08 6.2H8.12C7.44794 6.2 7.11191 6.2 6.85521 6.33079C6.62942 6.44584 6.44584 6.62942 6.33079 6.85521C6.2 7.11191 6.2 7.44794 6.2 8.12V12.08C6.2 12.7521 6.2 13.0881 6.33079 13.3448C6.44584 13.5706 6.62942 13.7542 6.85521 13.8692C7.11191 14 7.44794 14 8.12 14Z" stroke="black" stroke-width="1.5" stroke-linecap="round" stroke-linejoin="round"/>
</g>
</svg>
