<svg width="16" height="16" viewBox="0 0 16 16" fill="none" xmlns="http://www.w3.org/2000/svg">
<g id="Property 1=crown">
<path id="Vector" d="M2.87799 4.62476L5.21627 6.08729L7.54675 3.02642C7.59825 2.95871 7.66625 2.90352 7.74507 2.86544C7.8239 2.82736 7.91127 2.8075 7.99993 2.8075C8.0886 2.8075 8.17597 2.82736 8.2548 2.86544C8.33362 2.90352 8.40162 2.95871 8.45312 3.02642L10.7836 6.08729L13.1219 4.62476C13.2104 4.56952 13.3139 4.53921 13.4202 4.53739C13.5264 4.53558 13.631 4.56235 13.7216 4.61454C13.8122 4.66672 13.8849 4.74214 13.9313 4.83189C13.9776 4.92163 13.9956 5.02195 13.9831 5.12098L13.0684 12.4164C13.0525 12.5435 12.9874 12.6606 12.8855 12.7456C12.7836 12.8306 12.652 12.8776 12.5156 12.8776H3.48427C3.34791 12.8776 3.21629 12.8306 3.11439 12.7456C3.01249 12.6606 2.94739 12.5435 2.93143 12.4164L2.01672 5.12046C2.00436 5.02147 2.02245 4.92122 2.06884 4.83156C2.11524 4.7419 2.18801 4.66657 2.27856 4.61445C2.36911 4.56234 2.47366 4.53561 2.57988 4.53744C2.68609 4.53927 2.78953 4.56957 2.87799 4.62476Z" stroke="black" stroke-width="1.5"/>
</g>
</svg>
