<svg width="16" height="16" viewBox="0 0 16 16" fill="none" xmlns="http://www.w3.org/2000/svg">
<g id="Property 1=doc success">
<path id="Vector" d="M12.8529 8.325V4.62C12.8529 3.5279 12.8529 2.98185 12.6414 2.56472C12.4553 2.1978 12.1583 1.89949 11.793 1.71254C11.3778 1.5 10.8342 1.5 9.74706 1.5H5.60588C4.51872 1.5 3.97514 1.5 3.5599 1.71254C3.19464 1.89949 2.89768 2.1978 2.71158 2.56472C2.5 2.98185 2.5 3.5279 2.5 4.62V11.38C2.5 12.4721 2.5 13.0182 2.71158 13.4353C2.89768 13.8022 3.19464 14.1005 3.5599 14.2875C3.97514 14.5 4.51872 14.5 5.60588 14.5H7.67647M8.97059 7.35H5.08824M6.38235 9.95H5.08824M10.2647 4.75H5.08824M9.29412 12.55L10.5882 13.85L13.5 10.925" stroke="black" stroke-width="1.5" stroke-linecap="round" stroke-linejoin="round"/>
</g>
</svg>
