<svg width="16" height="16" viewBox="0 0 16 16" fill="none" xmlns="http://www.w3.org/2000/svg">
<g id="Property 1=edit">
<path id="Vector" d="M7.58225 12.688L12.5006 12.688M1.90912 12.688H2.96467C3.27302 12.688 3.4272 12.688 3.57229 12.6544C3.70093 12.6247 3.8239 12.5756 3.9367 12.5089C4.06393 12.4338 4.17295 12.3288 4.39099 12.1186L12.3099 4.48709C12.8321 3.98384 12.8321 3.16791 12.3099 2.66467C11.7877 2.16142 10.9411 2.16142 10.4189 2.66467L2.49992 10.2962C2.28188 10.5063 2.17286 10.6114 2.0949 10.734C2.02577 10.8427 1.97484 10.9612 1.94395 11.0852C1.90912 11.225 1.90912 11.3736 1.90912 11.6708V12.688Z" stroke="black" stroke-width="1.5" stroke-linecap="round" stroke-linejoin="round"/>
</g>
</svg>
