<svg width="16" height="16" viewBox="0 0 16 16" fill="none" xmlns="http://www.w3.org/2000/svg">
<g id="Property 1=event-history">
<path id="Vector" d="M13.3334 7.00004V4.53337C13.3334 3.41327 13.3334 2.85322 13.1154 2.42539C12.9236 2.04907 12.6177 1.74311 12.2413 1.55136C11.8135 1.33337 11.2535 1.33337 10.1334 1.33337H5.86669C4.74658 1.33337 4.18653 1.33337 3.75871 1.55136C3.38238 1.74311 3.07642 2.04907 2.88467 2.42539C2.66669 2.85322 2.66669 3.41327 2.66669 4.53337V11.4667C2.66669 12.5868 2.66669 13.1469 2.88467 13.5747C3.07642 13.951 3.38238 14.257 3.75871 14.4487C4.18653 14.6667 4.74658 14.6667 5.86669 14.6667H7.66669M14.6667 14.6667L13.6667 13.6667M14.3334 12C14.3334 13.2887 13.2887 14.3334 12 14.3334C10.7114 14.3334 9.66669 13.2887 9.66669 12C9.66669 10.7114 10.7114 9.66671 12 9.66671C13.2887 9.66671 14.3334 10.7114 14.3334 12Z" stroke="black" stroke-width="1.5" stroke-linecap="round" stroke-linejoin="round"/>
</g>
</svg>
