<svg width="16" height="16" viewBox="0 0 16 16" fill="none" xmlns="http://www.w3.org/2000/svg">
<g id="Property 1=fav">
<path id="Vector" d="M13.0747 3.47248C12.7815 3.16418 12.4333 2.91961 12.0502 2.75275C11.667 2.58588 11.2563 2.5 10.8415 2.5C10.4268 2.5 10.0161 2.58588 9.63289 2.75275C9.24972 2.91961 8.90158 3.16418 8.60837 3.47248L7.99985 4.11202L7.39133 3.47248C6.79905 2.85002 5.99576 2.50032 5.15817 2.50032C4.32057 2.50032 3.51728 2.85002 2.92501 3.47248C2.33273 4.09494 2 4.93918 2 5.81947C2 6.69977 2.33273 7.54401 2.92501 8.16647L3.53353 8.80601L7.99985 13.5L12.4662 8.80601L13.0747 8.16647C13.368 7.85831 13.6007 7.49243 13.7595 7.08972C13.9183 6.68702 14 6.25538 14 5.81947C14 5.38357 13.9183 4.95193 13.7595 4.54923C13.6007 4.14652 13.368 3.78064 13.0747 3.47248Z" stroke="black" stroke-width="1.5" stroke-linecap="round" stroke-linejoin="round"/>
</g>
</svg>
