<svg width="16" height="16" viewBox="0 0 16 16" fill="none" xmlns="http://www.w3.org/2000/svg">
<g id="Property 1=file">
<path id="Vector" d="M9.33335 1.51306V4.26676C9.33335 4.64012 9.33335 4.82681 9.40602 4.96942C9.46993 5.09486 9.57192 5.19684 9.69736 5.26076C9.83997 5.33342 10.0267 5.33342 10.4 5.33342H13.1537M10.6667 8.66671H5.33335M10.6667 11.3334H5.33335M6.66669 6.00004H5.33335M9.33335 1.33337H5.86669C4.74658 1.33337 4.18653 1.33337 3.75871 1.55136C3.38238 1.74311 3.07642 2.04907 2.88467 2.42539C2.66669 2.85322 2.66669 3.41327 2.66669 4.53337V11.4667C2.66669 12.5868 2.66669 13.1469 2.88467 13.5747C3.07642 13.951 3.38238 14.257 3.75871 14.4487C4.18653 14.6667 4.74658 14.6667 5.86669 14.6667H10.1334C11.2535 14.6667 11.8135 14.6667 12.2413 14.4487C12.6177 14.257 12.9236 13.951 13.1154 13.5747C13.3334 13.1469 13.3334 12.5868 13.3334 11.4667V5.33337L9.33335 1.33337Z" stroke="black" stroke-width="1.5" stroke-linecap="round" stroke-linejoin="round"/>
</g>
</svg>
