<svg width="16" height="16" viewBox="0 0 16 16" fill="none" xmlns="http://www.w3.org/2000/svg">
<g id="Property 1=filters act" clip-path="url(#clip0_1_128)">
<path id="Vector" d="M3 5.71429L9.66667 5.71429M9.66667 5.71429C9.66667 6.66106 10.4129 7.42857 11.3333 7.42857C12.2538 7.42857 13 6.66106 13 5.71429C13 4.76751 12.2538 4 11.3333 4C10.4129 4 9.66667 4.76751 9.66667 5.71429ZM6.33333 10.2857L13 10.2857M6.33333 10.2857C6.33333 11.2325 5.58714 12 4.66667 12C3.74619 12 3 11.2325 3 10.2857C3 9.33894 3.74619 8.57143 4.66667 8.57143C5.58714 8.57143 6.33333 9.33894 6.33333 10.2857Z" stroke="black" stroke-width="1.5" stroke-linecap="round" stroke-linejoin="round"/>
<circle id="Vector_2" cx="13.5" cy="2.5" r="3.25" fill="black" stroke="white" stroke-width="1.5"/>
</g>
<defs>
<clipPath id="clip0_1_128">
<rect width="16" height="16" fill="white"/>
</clipPath>
</defs>
</svg>
