<svg width="16" height="16" viewBox="0 0 16 16" fill="none" xmlns="http://www.w3.org/2000/svg">
<g id="Property 1=folder">
<path id="Vector" d="M8.55 5.22222L7.93645 3.98273C7.75987 3.626 7.67158 3.44763 7.53985 3.31731C7.42337 3.20207 7.28298 3.11443 7.12884 3.06073C6.95454 3 6.75711 3 6.36226 3H4.26C3.64394 3 3.33591 3 3.10061 3.1211C2.89363 3.22763 2.72535 3.39761 2.61989 3.60668C2.5 3.84436 2.5 4.1555 2.5 4.77778V5.22222M2.5 5.22222H10.86C11.7841 5.22222 12.2461 5.22222 12.5991 5.40388C12.9096 5.56367 13.162 5.81863 13.3202 6.13224C13.5 6.48876 13.5 6.95547 13.5 7.88889V10.3333C13.5 11.2668 13.5 11.7335 13.3202 12.09C13.162 12.4036 12.9096 12.6586 12.5991 12.8183C12.2461 13 11.7841 13 10.86 13H5.14C4.21591 13 3.75387 13 3.40092 12.8183C3.09045 12.6586 2.83803 12.4036 2.67984 12.09C2.5 11.7335 2.5 11.2668 2.5 10.3333V5.22222Z" stroke="black" stroke-width="1.5" stroke-linecap="round" stroke-linejoin="round"/>
</g>
</svg>
