<svg width="16" height="16" viewBox="0 0 16 16" fill="none" xmlns="http://www.w3.org/2000/svg">
<g id="Property 1=loyalty">
<path id="Vector" d="M14.3085 5.4653L1.20189 7.9135M7.58952 9.43314L4.31286 10.0452M0.981556 6.7339L1.91187 11.7144C2.04898 12.4485 2.11754 12.8155 2.31276 13.0692C2.48449 13.2923 2.72245 13.4554 2.99253 13.535C3.29959 13.6254 3.66661 13.5569 4.40065 13.4198L13.3132 11.755C14.0472 11.6179 14.4142 11.5493 14.6679 11.3541C14.8911 11.1824 15.0541 10.9444 15.1337 10.6743C15.2242 10.3673 15.1556 10.0003 15.0185 9.26623L14.0882 4.2857C13.9511 3.55166 13.8825 3.18464 13.6873 2.93096C13.5156 2.70781 13.2776 2.54476 13.0075 2.46517C12.7005 2.37468 12.3335 2.44324 11.5994 2.58035L2.68691 4.24513C1.95287 4.38224 1.58585 4.4508 1.33216 4.64602C1.10902 4.81774 0.945964 5.0557 0.866372 5.32579C0.775888 5.63284 0.844444 5.99986 0.981556 6.7339Z" stroke="black" stroke-width="1.5" stroke-linecap="round" stroke-linejoin="round"/>
</g>
</svg>
