<svg width="16" height="16" viewBox="0 0 16 16" fill="none" xmlns="http://www.w3.org/2000/svg">
<g id="Property 1=mail success">
<path id="Vector" d="M8.42488 2.42794L12.7208 5.22027C12.8726 5.31894 12.9485 5.36827 13.0035 5.43408C13.0521 5.49233 13.0887 5.55971 13.111 5.63227C13.1362 5.71424 13.1362 5.80476 13.1362 5.98581V8.94945M8.42488 2.42794C8.06466 2.1938 7.88455 2.07673 7.69049 2.03117C7.51895 1.99091 7.34042 1.99091 7.16888 2.03117C6.97482 2.07673 6.79471 2.1938 6.43448 2.42794M8.42488 2.42794L11.9585 4.72477C12.351 4.97991 12.5473 5.10748 12.6152 5.26926C12.6746 5.41064 12.6746 5.56998 12.6152 5.71136C12.5473 5.87314 12.351 6.00071 11.9585 6.25585L8.42488 8.55268C8.06466 8.78683 7.88455 8.9039 7.69049 8.94945C7.51895 8.98971 7.34042 8.98971 7.16888 8.94945C6.97482 8.9039 6.79471 8.78683 6.43448 8.55268L2.90089 6.25585C2.50837 6.00071 2.31211 5.87314 2.24414 5.71136C2.18473 5.56998 2.18473 5.41064 2.24414 5.26926C2.31211 5.10748 2.50837 4.97991 2.90089 4.72477L6.43448 2.42794M6.43448 2.42794L2.13859 5.22027C1.98679 5.31894 1.9109 5.36827 1.85591 5.43408C1.80723 5.49233 1.77066 5.55971 1.74835 5.63227C1.72314 5.71424 1.72314 5.80476 1.72314 5.98581V10.1697C1.72314 11.1285 1.72314 11.6079 1.90974 11.9741C2.07387 12.2962 2.33577 12.5581 2.65789 12.7222C3.0241 12.9088 3.50349 12.9088 4.46228 12.9088H8.80294M5.79922 8.34358L2.00847 11.7675M9.62718 11.7031L11.3286 13.4045L15.1569 9.57628" stroke="black" stroke-width="1.5" stroke-linecap="round" stroke-linejoin="round"/>
</g>
</svg>
