<svg width="16" height="16" viewBox="0 0 16 16" fill="none" xmlns="http://www.w3.org/2000/svg">
<g id="Property 1=mail">
<path id="Vector" d="M9.09463 2.47061L13.8198 5.542C13.9868 5.65052 14.0703 5.70479 14.1308 5.77717C14.1843 5.84125 14.2245 5.91536 14.2491 5.99517C14.2768 6.08533 14.2768 6.1849 14.2768 6.38404V10.986C14.2768 12.0406 14.2768 12.5679 14.0716 12.9707C13.891 13.3251 13.603 13.6131 13.2486 13.7937C12.8458 13.9989 12.3185 13.9989 11.2639 13.9989H4.73602C3.68142 13.9989 3.15411 13.9989 2.75131 13.7937C2.39699 13.6131 2.10892 13.3251 1.92838 12.9707C1.72314 12.5679 1.72314 12.0406 1.72314 10.986V6.38404C1.72314 6.1849 1.72314 6.08533 1.75087 5.99517C1.77541 5.91536 1.81563 5.84125 1.86917 5.77717C1.92966 5.70479 2.01314 5.65052 2.18011 5.542L6.90532 2.47061M9.09463 2.47061C8.69841 2.21307 8.5003 2.0843 8.28684 2.03419C8.09816 1.9899 7.90179 1.9899 7.71311 2.03419C7.49965 2.0843 7.30154 2.21307 6.90532 2.47061M9.09463 2.47061L12.9813 4.99698C13.4131 5.27762 13.629 5.41794 13.7037 5.59588C13.7691 5.75139 13.7691 5.92666 13.7037 6.08216C13.629 6.26011 13.4131 6.40043 12.9813 6.68107L9.09463 9.20744C8.69841 9.46498 8.5003 9.59375 8.28684 9.64385C8.09816 9.68814 7.90179 9.68814 7.71311 9.64385C7.49965 9.59375 7.30154 9.46498 6.90532 9.20744L3.01859 6.68107C2.58684 6.40043 2.37097 6.26011 2.2962 6.08216C2.23086 5.92666 2.23086 5.75139 2.2962 5.59588C2.37097 5.41794 2.58684 5.27762 3.01859 4.99698L6.90532 2.47061M13.963 12.7435L9.79338 8.97744M6.20657 8.97744L2.03699 12.7435" stroke="black" stroke-width="1.5" stroke-linecap="round" stroke-linejoin="round"/>
</g>
</svg>
