<svg width="16" height="16" viewBox="0 0 16 16" fill="none" xmlns="http://www.w3.org/2000/svg">
<g id="Property 1=notification">
<path id="Vector" d="M6.46662 13.216C6.87528 13.5767 7.4121 13.7955 8.00003 13.7955C8.58796 13.7955 9.12478 13.5767 9.53344 13.216M11.4774 5.6817C11.4774 4.75945 11.111 3.87497 10.4589 3.22284C9.80676 2.57071 8.92228 2.20435 8.00003 2.20435C7.07778 2.20435 6.1933 2.57071 5.54117 3.22284C4.88904 3.87497 4.52267 4.75945 4.52267 5.6817C4.52267 7.47265 4.07089 8.69886 3.56621 9.50993C3.1405 10.1941 2.92764 10.5362 2.93545 10.6316C2.94409 10.7372 2.96648 10.7775 3.05162 10.8407C3.12852 10.8977 3.47517 10.8977 4.16848 10.8977H11.8316C12.5249 10.8977 12.8715 10.8977 12.9484 10.8407C13.0336 10.7775 13.056 10.7372 13.0646 10.6316C13.0724 10.5362 12.8596 10.1941 12.4339 9.50993C11.9292 8.69886 11.4774 7.47265 11.4774 5.6817Z" stroke="black" stroke-width="1.5" stroke-linecap="round" stroke-linejoin="round"/>
</g>
</svg>
