<svg width="16" height="16" viewBox="0 0 16 16" fill="none" xmlns="http://www.w3.org/2000/svg">
<g id="Property 1=photo">
<g id="Vector">
<path d="M2.1554 6.2389C2.1554 6.04134 2.1554 5.94256 2.16394 5.85936C2.24634 5.05689 2.90424 4.42206 3.7359 4.34256C3.82212 4.33431 3.93002 4.33431 4.14582 4.33431C4.22897 4.33431 4.27055 4.33431 4.30585 4.33225C4.7566 4.30591 5.15131 4.0314 5.31974 3.62712C5.33293 3.59545 5.34526 3.55976 5.36992 3.48838C5.39458 3.417 5.40691 3.38131 5.4201 3.34965C5.58854 2.94537 5.98325 2.67086 6.434 2.64452C6.4693 2.64246 6.50829 2.64246 6.58626 2.64246H9.41372C9.49169 2.64246 9.53068 2.64246 9.56598 2.64452C10.0167 2.67086 10.4114 2.94537 10.5799 3.34965C10.5931 3.38131 10.6054 3.417 10.6301 3.48838C10.6547 3.55976 10.667 3.59545 10.6802 3.62712C10.8487 4.0314 11.2434 4.30591 11.6941 4.33225C11.7294 4.33431 11.771 4.33431 11.8542 4.33431C12.07 4.33431 12.1779 4.33431 12.2641 4.34256C13.0957 4.42206 13.7536 5.05689 13.836 5.85936C13.8446 5.94256 13.8446 6.04134 13.8446 6.2389V10.6506C13.8446 11.5981 13.8446 12.0719 13.6535 12.4338C13.4854 12.7521 13.2171 13.0109 12.8872 13.1731C12.5122 13.3575 12.0212 13.3575 11.0392 13.3575H4.9608C3.97882 13.3575 3.48782 13.3575 3.11276 13.1731C2.78284 13.0109 2.5146 12.7521 2.3465 12.4338C2.1554 12.0719 2.1554 11.5981 2.1554 10.6506V6.2389Z" stroke="black" stroke-width="1.5" stroke-linecap="round" stroke-linejoin="round"/>
<path d="M7.99999 10.8198C9.29114 10.8198 10.3378 9.8098 10.3378 8.56395C10.3378 7.3181 9.29114 6.30814 7.99999 6.30814C6.70884 6.30814 5.66215 7.3181 5.66215 8.56395C5.66215 9.8098 6.70884 10.8198 7.99999 10.8198Z" stroke="black" stroke-width="1.5" stroke-linecap="round" stroke-linejoin="round"/>
</g>
</g>
</svg>
