<svg width="16" height="16" viewBox="0 0 16 16" fill="none" xmlns="http://www.w3.org/2000/svg">
<g id="Property 1=picture">
<path id="Vector" d="M2.97686 13.8186L7.26461 9.42091C7.52202 9.1569 7.65073 9.0249 7.79914 8.97544C7.92969 8.93193 8.07031 8.93193 8.20086 8.97544C8.34927 9.0249 8.47798 9.15691 8.73539 9.42091L12.9945 13.7893M9.3 10L11.1646 8.08758C11.422 7.82357 11.5507 7.69156 11.6991 7.6421C11.8297 7.5986 11.9703 7.5986 12.1009 7.6421C12.2493 7.69156 12.378 7.82357 12.6354 8.08758L14.5 10M6.7 6C6.7 6.73638 6.11797 7.33333 5.4 7.33333C4.68203 7.33333 4.1 6.73638 4.1 6C4.1 5.26362 4.68203 4.66667 5.4 4.66667C6.11797 4.66667 6.7 5.26362 6.7 6ZM4.62 14H11.38C12.4721 14 13.0182 14 13.4353 13.782C13.8022 13.5903 14.1005 13.2843 14.2875 12.908C14.5 12.4802 14.5 11.9201 14.5 10.8V5.2C14.5 4.0799 14.5 3.51984 14.2875 3.09202C14.1005 2.71569 13.8022 2.40973 13.4353 2.21799C13.0182 2 12.4721 2 11.38 2H4.62C3.5279 2 2.98185 2 2.56472 2.21799C2.1978 2.40973 1.89949 2.71569 1.71254 3.09202C1.5 3.51984 1.5 4.0799 1.5 5.2V10.8C1.5 11.9201 1.5 12.4802 1.71254 12.908C1.89949 13.2843 2.1978 13.5903 2.56472 13.782C2.98185 14 3.5279 14 4.62 14Z" stroke="black" stroke-width="1.5" stroke-linecap="round" stroke-linejoin="round"/>
</g>
</svg>
