<svg width="16" height="16" viewBox="0 0 16 16" fill="none" xmlns="http://www.w3.org/2000/svg">
<g id="Property 1=price down">
<path id="Vector" d="M5.54351 5.77941C5.80191 3.84938 7.455 2.36084 9.45577 2.36084C11.6358 2.36084 13.4031 4.12814 13.4031 6.30821C13.4031 6.81552 13.3074 7.30048 13.1331 7.74603M5.54351 5.77941C3.61347 6.03781 2.12494 7.69091 2.12494 9.69167C2.12494 11.8717 3.89224 13.639 6.07231 13.639C6.91847 13.639 7.70245 13.3728 8.34505 12.9195M5.54351 5.77941C5.71648 5.75626 5.893 5.7443 6.07231 5.7443C8.25238 5.7443 10.0197 7.5116 10.0197 9.69167M12.1116 9.37296V13.639M12.1116 13.639L13.875 11.8756M12.1116 13.639L10.3482 11.8756" stroke="black" stroke-width="1.5" stroke-linecap="round" stroke-linejoin="round"/>
</g>
</svg>
