<svg width="16" height="16" viewBox="0 0 16 16" fill="none" xmlns="http://www.w3.org/2000/svg">
<g id="Property 1=share">
<path id="Vector" d="M5.91609 8.90601L10.09 11.294M10.0839 4.70601L5.91609 7.09401M13.5 3.8C13.5 4.79411 12.6792 5.6 11.6667 5.6C10.6541 5.6 9.83333 4.79411 9.83333 3.8C9.83333 2.80589 10.6541 2 11.6667 2C12.6792 2 13.5 2.80589 13.5 3.8ZM6.16667 8C6.16667 8.99411 5.34586 9.8 4.33333 9.8C3.32081 9.8 2.5 8.99411 2.5 8C2.5 7.00589 3.32081 6.2 4.33333 6.2C5.34586 6.2 6.16667 7.00589 6.16667 8ZM13.5 12.2C13.5 13.1941 12.6792 14 11.6667 14C10.6541 14 9.83333 13.1941 9.83333 12.2C9.83333 11.2059 10.6541 10.4 11.6667 10.4C12.6792 10.4 13.5 11.2059 13.5 12.2Z" stroke="black" stroke-width="1.5" stroke-linecap="round" stroke-linejoin="round"/>
</g>
</svg>
