<svg width="16" height="16" viewBox="0 0 16 16" fill="none" xmlns="http://www.w3.org/2000/svg">
<g id="Property 1=6 dots">
<g id="Vector">
<path d="M5.3219 7C5.73611 7 6.0719 7.33579 6.0719 7.75C6.0719 8.16421 5.73611 8.5 5.3219 8.5C4.90769 8.5 4.5719 8.16421 4.5719 7.75C4.5719 7.33579 4.90769 7 5.3219 7Z" fill="black"/>
<path d="M5.3219 1.75C5.73611 1.75 6.0719 2.08579 6.0719 2.5C6.0719 2.91421 5.73611 3.25 5.3219 3.25C4.90769 3.25 4.5719 2.91421 4.5719 2.5C4.5719 2.08579 4.90769 1.75 5.3219 1.75Z" fill="black"/>
<path d="M5.3219 12.25C5.73611 12.25 6.0719 12.5858 6.0719 13C6.0719 13.4142 5.73611 13.75 5.3219 13.75C4.90769 13.75 4.5719 13.4142 4.5719 13C4.5719 12.5858 4.90769 12.25 5.3219 12.25Z" fill="black"/>
<path d="M10.6782 7C11.0924 7 11.4282 7.33579 11.4282 7.75C11.4282 8.16421 11.0924 8.5 10.6782 8.5C10.2639 8.5 9.92816 8.16421 9.92816 7.75C9.92816 7.33579 10.2639 7 10.6782 7Z" fill="black"/>
<path d="M10.6782 1.75C11.0924 1.75 11.4282 2.08579 11.4282 2.5C11.4282 2.91421 11.0924 3.25 10.6782 3.25C10.2639 3.25 9.92816 2.91421 9.92816 2.5C9.92816 2.08579 10.2639 1.75 10.6782 1.75Z" fill="black"/>
<path d="M10.6782 12.25C11.0924 12.25 11.4282 12.5858 11.4282 13C11.4282 13.4142 11.0924 13.75 10.6782 13.75C10.2639 13.75 9.92816 13.4142 9.92816 13C9.92816 12.5858 10.2639 12.25 10.6782 12.25Z" fill="black"/>
<path d="M5.3219 7C5.73611 7 6.0719 7.33579 6.0719 7.75C6.0719 8.16421 5.73611 8.5 5.3219 8.5C4.90769 8.5 4.5719 8.16421 4.5719 7.75C4.5719 7.33579 4.90769 7 5.3219 7Z" stroke="black" stroke-width="1.5" stroke-linecap="round" stroke-linejoin="round"/>
<path d="M5.3219 1.75C5.73611 1.75 6.0719 2.08579 6.0719 2.5C6.0719 2.91421 5.73611 3.25 5.3219 3.25C4.90769 3.25 4.5719 2.91421 4.5719 2.5C4.5719 2.08579 4.90769 1.75 5.3219 1.75Z" stroke="black" stroke-width="1.5" stroke-linecap="round" stroke-linejoin="round"/>
<path d="M5.3219 12.25C5.73611 12.25 6.0719 12.5858 6.0719 13C6.0719 13.4142 5.73611 13.75 5.3219 13.75C4.90769 13.75 4.5719 13.4142 4.5719 13C4.5719 12.5858 4.90769 12.25 5.3219 12.25Z" stroke="black" stroke-width="1.5" stroke-linecap="round" stroke-linejoin="round"/>
<path d="M10.6782 7C11.0924 7 11.4282 7.33579 11.4282 7.75C11.4282 8.16421 11.0924 8.5 10.6782 8.5C10.2639 8.5 9.92816 8.16421 9.92816 7.75C9.92816 7.33579 10.2639 7 10.6782 7Z" stroke="black" stroke-width="1.5" stroke-linecap="round" stroke-linejoin="round"/>
<path d="M10.6782 1.75C11.0924 1.75 11.4282 2.08579 11.4282 2.5C11.4282 2.91421 11.0924 3.25 10.6782 3.25C10.2639 3.25 9.92816 2.91421 9.92816 2.5C9.92816 2.08579 10.2639 1.75 10.6782 1.75Z" stroke="black" stroke-width="1.5" stroke-linecap="round" stroke-linejoin="round"/>
<path d="M10.6782 12.25C11.0924 12.25 11.4282 12.5858 11.4282 13C11.4282 13.4142 11.0924 13.75 10.6782 13.75C10.2639 13.75 9.92816 13.4142 9.92816 13C9.92816 12.5858 10.2639 12.25 10.6782 12.25Z" stroke="black" stroke-width="1.5" stroke-linecap="round" stroke-linejoin="round"/>
</g>
</g>
</svg>
