<svg width="16" height="16" viewBox="0 0 16 16" fill="none" xmlns="http://www.w3.org/2000/svg">
<g id="Property 1=stats">
<path id="Vector" d="M6.33333 5.22222H3.88889C3.57775 5.22222 3.42218 5.22222 3.30334 5.28277C3.1988 5.33604 3.11381 5.42103 3.06055 5.52556C3 5.6444 3 5.79997 3 6.11111V12.1111C3 12.4223 3 12.5778 3.06055 12.6967C3.11381 12.8012 3.1988 12.8862 3.30334 12.9394C3.42218 13 3.57775 13 3.88889 13H6.33333M6.33333 13H9.66667M6.33333 13L6.33333 3.88889C6.33333 3.57775 6.33333 3.42218 6.39389 3.30334C6.44715 3.1988 6.53214 3.11382 6.63667 3.06055C6.75551 3 6.91108 3 7.22222 3L8.77778 3C9.08892 3 9.24449 3 9.36333 3.06055C9.46786 3.11381 9.55285 3.1988 9.60612 3.30334C9.66667 3.42218 9.66667 3.57775 9.66667 3.88889V13M9.66667 7.44444H12.1111C12.4223 7.44444 12.5778 7.44444 12.6967 7.505C12.8012 7.55826 12.8862 7.64325 12.9394 7.74778C13 7.86662 13 8.02219 13 8.33333V12.1111C13 12.4223 13 12.5778 12.9394 12.6967C12.8862 12.8012 12.8012 12.8862 12.6967 12.9394C12.5778 13 12.4223 13 12.1111 13H9.66667" stroke="black" stroke-width="1.5" stroke-linecap="round" stroke-linejoin="round"/>
</g>
</svg>
