<svg width="16" height="16" viewBox="0 0 16 16" fill="none" xmlns="http://www.w3.org/2000/svg">
<g id="Property 1=support">
<path id="Vector" d="M12.3041 6.64918V6.33134C12.3041 4.04927 10.3772 2.19946 8.00004 2.19946C5.62289 2.19946 3.696 4.04927 3.696 6.33134V6.64918M9.23823 13.0059H10.642C11.3704 13.0059 11.9663 12.4338 11.9663 11.7345V11.0989M12.6351 11.0989H11.9729C11.6021 11.0989 11.3108 10.8129 11.3108 10.4633V7.28489C11.3108 6.92891 11.6021 6.64922 11.9729 6.64922H12.6351C13.3635 6.64922 13.9594 7.21497 13.9594 7.92057V9.82759C13.9594 10.5268 13.3635 11.0989 12.6351 11.0989ZM4.02701 11.0989H3.36485C2.63316 11.0989 2.04053 10.5268 2.04053 9.82759V7.92057C2.04053 7.21497 2.63316 6.64922 3.36485 6.64922H4.02701C4.3912 6.64922 4.68917 6.92891 4.68917 7.28489V10.4633C4.68917 10.8129 4.3912 11.0989 4.02701 11.0989ZM8.41383 13.8005H7.58613C7.12924 13.8005 6.75843 13.4445 6.75843 13.0059C6.75843 12.5673 7.12924 12.2113 7.58613 12.2113H8.41383C8.87072 12.2113 9.24153 12.5673 9.24153 13.0059C9.24153 13.4445 8.87072 13.8005 8.41383 13.8005Z" stroke="black" stroke-width="1.5" stroke-linecap="round" stroke-linejoin="round"/>
</g>
</svg>
