<svg width="16" height="16" viewBox="0 0 16 16" fill="none" xmlns="http://www.w3.org/2000/svg">
<g id="Property 1=text bubble">
<path id="Vector" d="M5.5 8H5.50556M8 8H8.00556M10.5 8H10.5056M8 13C10.7614 13 13 10.7614 13 8C13 5.23858 10.7614 3 8 3C5.23858 3 3 5.23858 3 8C3 8.66508 3.12985 9.29983 3.36559 9.88028C3.41071 9.99138 3.43327 10.0469 3.44333 10.0918C3.45318 10.1357 3.45678 10.1682 3.45678 10.2133C3.45679 10.2593 3.44843 10.3094 3.43173 10.4096L3.10229 12.3862C3.06779 12.5932 3.05055 12.6967 3.08264 12.7716C3.11074 12.8371 3.16293 12.8893 3.22844 12.9174C3.30327 12.9495 3.40677 12.9322 3.61376 12.8977L5.59036 12.5683C5.6906 12.5516 5.74073 12.5432 5.78674 12.5432C5.83175 12.5432 5.86426 12.5468 5.90818 12.5567C5.95308 12.5667 6.00862 12.5893 6.11972 12.6344C6.70017 12.8701 7.33492 13 8 13ZM5.77778 8C5.77778 8.15341 5.65341 8.27778 5.5 8.27778C5.34659 8.27778 5.22222 8.15341 5.22222 8C5.22222 7.84659 5.34659 7.72222 5.5 7.72222C5.65341 7.72222 5.77778 7.84659 5.77778 8ZM8.27778 8C8.27778 8.15341 8.15341 8.27778 8 8.27778C7.84659 8.27778 7.72222 8.15341 7.72222 8C7.72222 7.84659 7.84659 7.72222 8 7.72222C8.15341 7.72222 8.27778 7.84659 8.27778 8ZM10.7778 8C10.7778 8.15341 10.6534 8.27778 10.5 8.27778C10.3466 8.27778 10.2222 8.15341 10.2222 8C10.2222 7.84659 10.3466 7.72222 10.5 7.72222C10.6534 7.72222 10.7778 7.84659 10.7778 8Z" stroke="black" stroke-width="1.5" stroke-linecap="round" stroke-linejoin="round"/>
</g>
</svg>
