<svg width="16" height="16" viewBox="0 0 16 16" fill="none" xmlns="http://www.w3.org/2000/svg">
<g id="Property 1=3 dots vert">
<g id="Vector">
<path d="M8 7C8.41421 7 8.75 7.33579 8.75 7.75C8.75 8.16421 8.41421 8.5 8 8.5C7.58579 8.5 7.25 8.16421 7.25 7.75C7.25 7.33579 7.58579 7 8 7Z" fill="black"/>
<path d="M8 1.75C8.41421 1.75 8.75 2.08579 8.75 2.5C8.75 2.91421 8.41421 3.25 8 3.25C7.58579 3.25 7.25 2.91421 7.25 2.5C7.25 2.08579 7.58579 1.75 8 1.75Z" fill="black"/>
<path d="M8 12.25C8.41421 12.25 8.75 12.5858 8.75 13C8.75 13.4142 8.41421 13.75 8 13.75C7.58579 13.75 7.25 13.4142 7.25 13C7.25 12.5858 7.58579 12.25 8 12.25Z" fill="black"/>
<path d="M8 7C8.41421 7 8.75 7.33579 8.75 7.75C8.75 8.16421 8.41421 8.5 8 8.5C7.58579 8.5 7.25 8.16421 7.25 7.75C7.25 7.33579 7.58579 7 8 7Z" stroke="black" stroke-width="1.5" stroke-linecap="round" stroke-linejoin="round"/>
<path d="M8 1.75C8.41421 1.75 8.75 2.08579 8.75 2.5C8.75 2.91421 8.41421 3.25 8 3.25C7.58579 3.25 7.25 2.91421 7.25 2.5C7.25 2.08579 7.58579 1.75 8 1.75Z" stroke="black" stroke-width="1.5" stroke-linecap="round" stroke-linejoin="round"/>
<path d="M8 12.25C8.41421 12.25 8.75 12.5858 8.75 13C8.75 13.4142 8.41421 13.75 8 13.75C7.58579 13.75 7.25 13.4142 7.25 13C7.25 12.5858 7.58579 12.25 8 12.25Z" stroke="black" stroke-width="1.5" stroke-linecap="round" stroke-linejoin="round"/>
</g>
</g>
</svg>
