<svg width="16" height="16" viewBox="0 0 16 16" fill="none" xmlns="http://www.w3.org/2000/svg">
<g id="Property 1=3 dots">
<g id="Vector">
<path d="M8.75 7.75C8.75 8.16421 8.41421 8.5 8 8.5C7.58579 8.5 7.25 8.16421 7.25 7.75C7.25 7.33579 7.58579 7 8 7C8.41421 7 8.75 7.33579 8.75 7.75Z" fill="black"/>
<path d="M14 7.75C14 8.16421 13.6642 8.5 13.25 8.5C12.8358 8.5 12.5 8.16421 12.5 7.75C12.5 7.33579 12.8358 7 13.25 7C13.6642 7 14 7.33579 14 7.75Z" fill="black"/>
<path d="M3.5 7.75C3.5 8.16421 3.16421 8.5 2.75 8.5C2.33579 8.5 2 8.16421 2 7.75C2 7.33579 2.33579 7 2.75 7C3.16421 7 3.5 7.33579 3.5 7.75Z" fill="black"/>
<path d="M8.75 7.75C8.75 8.16421 8.41421 8.5 8 8.5C7.58579 8.5 7.25 8.16421 7.25 7.75C7.25 7.33579 7.58579 7 8 7C8.41421 7 8.75 7.33579 8.75 7.75Z" stroke="black" stroke-width="1.5" stroke-linecap="round" stroke-linejoin="round"/>
<path d="M14 7.75C14 8.16421 13.6642 8.5 13.25 8.5C12.8358 8.5 12.5 8.16421 12.5 7.75C12.5 7.33579 12.8358 7 13.25 7C13.6642 7 14 7.33579 14 7.75Z" stroke="black" stroke-width="1.5" stroke-linecap="round" stroke-linejoin="round"/>
<path d="M3.5 7.75C3.5 8.16421 3.16421 8.5 2.75 8.5C2.33579 8.5 2 8.16421 2 7.75C2 7.33579 2.33579 7 2.75 7C3.16421 7 3.5 7.33579 3.5 7.75Z" stroke="black" stroke-width="1.5" stroke-linecap="round" stroke-linejoin="round"/>
</g>
</g>
</svg>
