<svg width="16" height="16" viewBox="0 0 16 16" fill="none" xmlns="http://www.w3.org/2000/svg">
<g id="Property 1=trash">
<path id="Vector" d="M3 4.7H13M5.77778 4.7V3.6C5.77778 3.30826 5.89484 3.02847 6.10322 2.82218C6.31159 2.61589 6.5942 2.5 6.88889 2.5H9.11111C9.4058 2.5 9.68841 2.61589 9.89679 2.82218C10.1052 3.02847 10.2222 3.30826 10.2222 3.6V4.7M11.8889 4.7V12.4C11.8889 12.6917 11.7718 12.9715 11.5635 13.1778C11.3551 13.3841 11.0725 13.5 10.7778 13.5H5.22222C4.92754 13.5 4.64492 13.3841 4.43655 13.1778C4.22817 12.9715 4.11111 12.6917 4.11111 12.4V4.7H11.8889Z" stroke="black" stroke-width="1.5" stroke-linecap="round" stroke-linejoin="round"/>
</g>
</svg>
