<svg width="16" height="16" viewBox="0 0 16 16" fill="none" xmlns="http://www.w3.org/2000/svg">
<g id="Property 1=user profile">
<path id="Vector" d="M3.98978 12.463C4.35477 11.6031 5.20695 11 6.2 11H9.8C10.793 11 11.6452 11.6031 12.0102 12.463M10.4 6.5C10.4 7.82548 9.32548 8.9 8 8.9C6.67452 8.9 5.6 7.82548 5.6 6.5C5.6 5.17452 6.67452 4.1 8 4.1C9.32548 4.1 10.4 5.17452 10.4 6.5ZM14 8C14 11.3137 11.3137 14 8 14C4.68629 14 2 11.3137 2 8C2 4.68629 4.68629 2 8 2C11.3137 2 14 4.68629 14 8Z" stroke="black" stroke-width="1.5" stroke-linecap="round" stroke-linejoin="round"/>
</g>
</svg>
