<svg width="16" height="16" viewBox="0 0 16 16" fill="none" xmlns="http://www.w3.org/2000/svg">
<g id="Property 1=user">
<path id="Vector" d="M13 14C13 13.1472 13 12.7207 12.8924 12.3737C12.65 11.5925 12.0247 10.9811 11.2257 10.7441C10.8708 10.6389 10.4347 10.6389 9.5625 10.6389H6.4375C5.56527 10.6389 5.12916 10.6389 4.77429 10.7441C3.97528 10.9811 3.35003 11.5925 3.10765 12.3737C3 12.7207 3 13.1472 3 14M10.8125 5.75C10.8125 7.26878 9.5533 8.5 8 8.5C6.4467 8.5 5.1875 7.26878 5.1875 5.75C5.1875 4.23122 6.4467 3 8 3C9.5533 3 10.8125 4.23122 10.8125 5.75Z" stroke="black" stroke-width="1.5" stroke-linecap="round" stroke-linejoin="round"/>
</g>
</svg>
