<svg width="16" height="16" viewBox="0 0 16 16" fill="none" xmlns="http://www.w3.org/2000/svg">
<g id="Property 1=web" clip-path="url(#clip0_1_260)">
<path id="Vector" d="M1.33331 8.00004H14.6666M1.33331 8.00004C1.33331 11.6819 4.31808 14.6667 7.99998 14.6667M1.33331 8.00004C1.33331 4.31814 4.31808 1.33337 7.99998 1.33337M14.6666 8.00004C14.6666 11.6819 11.6819 14.6667 7.99998 14.6667M14.6666 8.00004C14.6666 4.31814 11.6819 1.33337 7.99998 1.33337M7.99998 1.33337C9.6675 3.15894 10.6151 5.52806 10.6666 8.00004C10.6151 10.472 9.6675 12.8411 7.99998 14.6667M7.99998 1.33337C6.33246 3.15894 5.38481 5.52806 5.33331 8.00004C5.38481 10.472 6.33246 12.8411 7.99998 14.6667" stroke="black" stroke-width="1.5" stroke-linecap="round" stroke-linejoin="round"/>
</g>
<defs>
<clipPath id="clip0_1_260">
<rect width="16" height="16" fill="white"/>
</clipPath>
</defs>
</svg>
